<svg xmlns="http://www.w3.org/2000/svg" xmlns:xlink="http://www.w3.org/1999/xlink" width="52.472" height="56.438" viewBox="0 0 52.472 56.438">
  <defs>
    <filter id="Path_149" x="0" y="0" width="52.472" height="56.438" filterUnits="userSpaceOnUse">
      <feOffset input="SourceAlpha"/>
      <feGaussianBlur stdDeviation="5" result="blur"/>
      <feFlood flood-opacity="0.161"/>
      <feComposite operator="in" in2="blur"/>
      <feComposite in="SourceGraphic"/>
    </filter>
  </defs>
  <g transform="matrix(1, 0, 0, 1, 0, 0)" filter="url(#Path_149)">
    <path id="Path_149-2" data-name="Path 149" d="M14.236,0a11.375,11.375,0,0,1,7.941,3.223,10.889,10.889,0,0,1,3.295,7.77c0,2.831-2.24,7.262-6.659,13.168a5.637,5.637,0,0,1-2.01,1.674,5.778,5.778,0,0,1-5.134,0,5.638,5.638,0,0,1-2.01-1.674C5.24,18.256,3,13.825,3,10.994a10.889,10.889,0,0,1,3.3-7.77A11.375,11.375,0,0,1,14.236,0Zm0,15.376a4.573,4.573,0,0,0,2.5-.743A4.43,4.43,0,0,0,18.4,12.656a4.318,4.318,0,0,0,.256-2.546A4.378,4.378,0,0,0,17.42,7.854a4.534,4.534,0,0,0-2.306-1.206,4.6,4.6,0,0,0-2.6.251,4.483,4.483,0,0,0-2.021,1.623,4.335,4.335,0,0,0,.56,5.564A4.553,4.553,0,0,0,14.236,15.376Z" transform="translate(12 15)" fill="#fff"/>
  </g>
</svg>
