<svg xmlns="http://www.w3.org/2000/svg" width="89.868" height="35.714" viewBox="0 0 89.868 35.714">
  <g id="Group_3" data-name="Group 3" transform="translate(-8 -5)">
    <path id="Path_138" data-name="Path 138" d="M10.666,43.152a1.554,1.554,0,0,0,0,2.562h8.89c25.631-28.638,74.8-35.232,79.886-35.688L99.868,10a2.781,2.781,0,0,0-.426.023C40.814,13.3,12.169,41.649,10.666,43.152Zm.3-20.04c-.3.4-.723,1.3,0,1.657S18.3,29.943,21.514,32.3l6.931-3.767-7.233-5.424ZM30.1,38.482l5.726-4.52L49.692,44.207a.856.856,0,0,1,0,1.356H39.9Z" transform="translate(-2 -5)" fill="#fff" fill-rule="evenodd"/>
  </g>
</svg>
