<svg xmlns="http://www.w3.org/2000/svg" xmlns:xlink="http://www.w3.org/1999/xlink" width="38" height="37" viewBox="0 0 38 37">
  <defs>
    <clipPath id="clip-path">
      <rect id="Rectangle_10" data-name="Rectangle 10" width="38" height="37" transform="translate(0.352 0.419)" fill="#fff"/>
    </clipPath>
  </defs>
  <g id="Group_7" data-name="Group 7" transform="translate(-0.352 -0.419)" clip-path="url(#clip-path)">
    <path id="Path_151" data-name="Path 151" d="M6.208,220.824H2.022V219.3a11.618,11.618,0,0,1,6.185-10.4,16.669,16.669,0,0,1,5.934-1.658q-1.353,1.674-2.713,3.557A61.8,61.8,0,0,0,6.208,220.824Zm19.525,4.28a61.789,61.789,0,0,1-10.017,5.23v4.185h1.522a11.614,11.614,0,0,0,10.394-6.184,16.707,16.707,0,0,0,1.659-5.934Q27.625,223.745,25.734,225.1Zm12.808-22.552c-.2,6.623-4.971,13.192-14.58,20.085a53.286,53.286,0,0,1-8.244,4.37v-.856a5.35,5.35,0,0,0-5.326-5.326H9.535a53.09,53.09,0,0,1,4.376-8.242c6.876-9.594,13.434-14.363,20.047-14.582C37.254,198,38.541,199.348,38.541,202.552Zm-9.13,8.381a3.807,3.807,0,1,0-1.114,2.69A3.806,3.806,0,0,0,29.412,210.933Zm-25.3,23.259c1.713-.3,5.845-1.154,7.225-2.533A4.565,4.565,0,0,0,4.881,225.2c-1.379,1.38-2.229,5.513-2.532,7.225l-.376,2.14Z" transform="translate(-1.342 -197.612)" fill="#fff"/>
  </g>
</svg>
