<svg xmlns="http://www.w3.org/2000/svg" xmlns:xlink="http://www.w3.org/1999/xlink" width="36.439" height="516.619" viewBox="0 0 36.439 516.619">
  <defs>
    <linearGradient id="linear-gradient" x1="-9.889" y1="-1.853" x2="-8.942" y2="-1.853" gradientUnits="objectBoundingBox">
      <stop offset="0"/>
      <stop offset="1" stop-opacity="0"/>
    </linearGradient>
    <linearGradient id="linear-gradient-2" x1="100.599" y1="2.852" x2="101.56" y2="2.852" xlink:href="#linear-gradient"/>
    <linearGradient id="linear-gradient-3" x1="-0.273" y1="11.099" x2="0.838" y2="11.099" gradientUnits="objectBoundingBox">
      <stop offset="0" stop-color="#e6e6e6"/>
      <stop offset="1" stop-color="#f9f9f9"/>
    </linearGradient>
    <linearGradient id="linear-gradient-4" x1="-0.285" y1="98.967" x2="0.837" y2="98.967" xlink:href="#linear-gradient-3"/>
    <linearGradient id="linear-gradient-5" x1="-0.341" y1="-10.105" x2="1.035" y2="-10.105" xlink:href="#linear-gradient-3"/>
    <linearGradient id="linear-gradient-6" x1="-0.354" y1="-98.026" x2="1.035" y2="-98.026" xlink:href="#linear-gradient-3"/>
  </defs>
  <g id="g10857" transform="translate(0.199 0.2)">
    <g id="g10495" transform="translate(5.031 96.645)">
      <rect id="rect10487" width="25.95" height="403.945" transform="translate(0)" fill="#fff"/>
      <g id="g10493" transform="translate(0.297 0.051)">
        <rect id="rect10489" width="12.84" height="403.502" fill="url(#linear-gradient)" transform="translate(0 0.186)" stroke-linecap="round" stroke-linejoin="round" stroke-width="0.42" opacity="0.034" stroke="rgba(255,255,255,0)"/>
        <rect id="rect10491" width="12.651" height="403.502" fill="url(#linear-gradient-2)" transform="translate(25.331 403.502) rotate(180)" stroke-linecap="round" stroke-linejoin="round" stroke-width="0.42" opacity="0.034" stroke="rgba(255,255,255,0)"/>
      </g>
    </g>
    <rect id="rect10497" width="0.668" height="0.66" transform="translate(31.024 501.149)" fill="#f7f7f7"/>
    <rect id="rect10499" width="0.662" height="0.63" transform="translate(4.265 501.163)" fill="#f7f7f7"/>
    <path id="path10501" d="M495.017,1008.869a1.209,1.209,0,0,1-.11-.318v-.036h4.713l.017.081c.035.163.035.2,0,.265l-.036.061h-4.547l-.034-.061h0Z" transform="translate(-488.783 -501.534)" fill="#f7f7f7"/>
    <path id="path10503" d="M498.807,1008.842a1.557,1.557,0,0,1-.11-.313c0-.014,1.01-.014,2.428-.014h2.428l-.01.042a1.376,1.376,0,0,1-.1.282l-.041.082h-4.552l-.045-.089Z" transform="translate(-487.305 -501.534)" fill="#f7f7f7"/>
    <path id="path10505" d="M502.487,1009.023s.016-.054.036-.1a2.251,2.251,0,0,0,.1-.356l.01-.05h1.219c1.148,0,1.219,0,1.226.026s.013.058.018.1a2.035,2.035,0,0,0,.063.229c.029.088.052.162.052.165h-1.359c-.747,0-1.359,0-1.359-.014Z" transform="translate(-485.827 -501.535)" fill="#f7f7f7"/>
    <path id="path10507" d="M504.85,1008.842a1.565,1.565,0,0,1-.11-.313c0-.014,1.01-.014,2.427-.014,1.809,0,2.427,0,2.427.018a1.373,1.373,0,0,1-.1.305l-.043.085h-4.552l-.045-.089Z" transform="translate(-484.947 -501.534)" fill="#f7f7f7"/>
    <path id="path10509" d="M508.64,1008.884c-.047-.076-.05-.1-.024-.231.014-.064.024-.121.024-.125s1.064-.014,2.366-.014h2.365l-.01.042a1.681,1.681,0,0,1-.107.3l-.038.074h-4.546l-.031-.05Z" transform="translate(-483.442 -501.535)" fill="#f7f7f7"/>
    <path id="path10511" d="M494.154,1003.89l25.81.043.014,4.551-.97,2.434-23.865-.074-.969-2.436Z" transform="translate(-489.077 -503.339)" fill="#101010"/>
    <path id="path10513" d="M494.142,1003.94h25.92" transform="translate(-489.082 -503.319)" fill="none" stroke="#000" stroke-width="0.4"/>
    <path id="path10515" d="M495.422,1008.067l.064-.2.11-.216.151-.225.189-.223.222-.212.251-.19.276-.158.3-.115.313-.063h.326l.334.072.338.156.561,1.467.588,1.621.588,1.621.588,1.621.588,1.621.588,1.621.588,1.621.588,1.621.588,1.621.588,1.621.588,1.621.588,1.621.148.394.028.049.03.046.033.042.035.039.037.036.038.033.04.029.041.026.042.024.043.021.044.018.045.015.045.014.045.014h.42l.073-.033.072-.069.07-.1.068-.13.065-.157.061-.178.057-.2.052-.209.046-.219.04-.225.033-.228-.269-2.535-.624-5.3-.624-5.3-.624-5.3-.624-5.3-.624-5.3-.624-5.3-.624-5.3-.624-5.3-.624-5.3-.624-5.3-.624-5.3-.409-3.592,0-.349,0-.349,0-.349,0-.349,0-.349,0-.349,0-.349,0-.349,0-.349,0-.349,0-.349-.014-.436-.049-.678-.051-.615-.052-.555-.053-.5-.055-.45-.056-.4-.057-.362-.058-.324-.059-.291-.06-.262-.061-.237-.062-.217-.063-.2-.064-.185-.065-.169-.066-.155-.067-.141-.068-.128-.069-.116-.07-.1-.071-.093-.072-.082-.073-.072-.074-.062-.075-.054-.076-.045-.077-.036-.078-.028-.079-.019-.08-.011-.081,0-.082.005-.083.014-.084.022-.085.031-.085.039-.086.047-.087.056-.088.065-.089.074-.09.084-.092.094-.093.1-.094.116-.1.128-.1.139-.1.152-.1.165-.1.178-.1.19-.105.2-.106.211-.106.219-.105.226-.1.231-.1.235-.1.238-.1.24-.1.24-.092.239-.088.236-.084.234-.079.232-.075.231-.07.23-.065.231-.059.231-.054.233-.048.235-.042.238" transform="translate(-489.124 -524.474)" fill="#f2f2f2" stroke="#000" stroke-width="0.4"/>
    <path id="path10517" d="M496.3,1006.687l-.052.3-.051.305-.051.311-.05.316-.05.322-.049.327-.049.332-.048.337-.048.341-.048.346-.047.35-.047.354-.046.358-.046.361-.045.365-.045.368-.045.371-.045.374-.044.376-.044.379-.044.381-.043.383-.086.771-.085.776-.084.78-.166,1.565-.082.782-.082.78-.081.776-.082.77-.041.383-.041.38-.041.378-.041.376-.041.373-.041.37-.041.367-.041.364-.041.361-.041.357-.021.177-.006.044,0,.022v.014h0l-.01.024-.011.019-.011.017-.011.014-.011.014-.011.014h-.091l-.046-.022-.09-.051-.088-.053-.085-.053-.082-.053-.079-.054-.077-.054-.074-.056-.072-.056-.07-.056-.067-.057-.065-.057-.063-.058-.06-.058-.058-.058-.056-.058-.054-.06-.052-.06-.1-.121-.09-.122-.083-.124-.076-.125-.07-.127-.064-.127-.059-.128-.053-.128-.049-.129-.044-.129-.04-.129-.037-.13-.033-.131-.031-.131-.028-.129-.026-.129-.013-.065-.006-.032,0-.017h0v-.014l0-.078.006-.157.335-10.027.67-20.053.67-20.054.335-10.027.084-2.507.021-.627v-.048h0v-.012l0-.017.01-.066.02-.129.02-.126.02-.123.02-.12.02-.117.02-.115.02-.112.021-.11.021-.108.021-.106.043-.206.043-.2.045-.2.046-.192.048-.19.049-.189.051-.189.054-.191.056-.193.059-.2.064-.2.068-.2.073-.207.039-.106.041-.107.042-.108.044-.11.046-.111.048-.113.05-.114.052-.116.054-.118.057-.12.059-.122.061-.124.064-.126.066-.128" transform="translate(-490.004 -523.093)" fill="#f2f2f2" stroke="#000" stroke-linecap="round" stroke-width="0.4"/>
    <path id="path10519" d="M515.168,1008.067l-.064-.2-.11-.216-.151-.225-.189-.223-.222-.212-.251-.19-.276-.158-.3-.115-.313-.063h-.326l-.334.072-.338.156-.561,1.467-.588,1.621-.588,1.621-.588,1.621-.588,1.621-.588,1.621-.588,1.621-.588,1.621-.588,1.621-.588,1.621-.588,1.621L505.27,1026l-.148.394-.028.049-.031.046-.033.042-.035.039-.037.036-.038.033-.04.029-.041.026-.042.024-.043.021-.044.018-.045.015-.045.014-.045.014h-.42l-.073-.033-.072-.069-.07-.1-.068-.13-.065-.157-.061-.178-.057-.2-.052-.209-.046-.219-.04-.225-.033-.228.268-2.535.624-5.3.624-5.3.624-5.3.624-5.3.624-5.3.624-5.3.624-5.3.624-5.3.624-5.3.624-5.3.624-5.3.409-3.592,0-.349,0-.349,0-.349,0-.349,0-.349,0-.349,0-.349,0-.349,0-.349,0-.349,0-.349.014-.436.049-.678.051-.615.052-.555.053-.5.055-.45.056-.4.057-.362.058-.324.059-.291.06-.262.061-.237.062-.217.063-.2.064-.185.065-.169.066-.155.067-.141.068-.128.069-.116.07-.1.071-.093.072-.082.073-.072.074-.062.075-.054.076-.045.077-.036.078-.028.079-.019.08-.011.081,0,.082.005.083.014.084.022.084.031.085.039.086.047.087.056.088.065.089.074.09.084.092.094.093.1.094.116.1.128.1.139.1.152.1.165.1.178.1.19.105.2.106.211.106.219.105.226.1.231.1.235.1.238.1.24.1.24.092.239.088.236.084.234.079.232.075.231.07.23.065.231.059.231.054.233.048.235.042.238" transform="translate(-485.426 -524.474)" fill="#f2f2f2" stroke="#000" stroke-width="0.4"/>
    <path id="path10521" d="M511.9,1006.687l.052.3.051.305.051.311.05.316.05.322.049.327.049.332.048.337.048.341.047.346.047.35.047.354.046.358.046.361.045.365.045.368.045.371.044.374.044.376.044.379.044.381.043.383.086.771.085.776.084.78.166,1.565.082.782.082.78.082.776.082.77.041.383.041.38.041.378.041.376.041.373.041.37.041.367.041.364.041.361.041.357.021.177.006.044,0,.022v.014h0l.01.024.011.019.011.017.011.014.011.014.011.014h.091l.046-.022.09-.051.088-.053.085-.053.082-.053.079-.054.077-.054.074-.056.072-.056.069-.056.067-.057.065-.057.063-.058.06-.058.058-.058.056-.058.054-.06.052-.06.1-.121.09-.122.083-.124.076-.125.07-.127.064-.127.059-.128.053-.128.049-.129.044-.129.04-.129.037-.13.033-.131.031-.131.028-.129.026-.129.012-.065.005-.032,0-.017h0v-.014l0-.078-.006-.157L516.076,1012l-.67-20.053-.67-20.054-.335-10.027-.084-2.507-.021-.627v-.048h0v-.012l0-.017-.01-.066-.02-.129-.02-.126-.02-.123-.02-.12-.02-.117-.02-.115-.02-.112-.021-.11-.021-.108-.021-.106-.042-.206-.043-.2-.045-.2-.046-.192-.048-.19-.05-.189-.051-.189-.054-.191-.056-.193-.06-.2-.063-.2-.068-.2-.074-.207-.039-.106-.041-.107-.042-.108-.044-.11-.046-.111-.048-.113-.05-.114-.052-.116-.054-.118-.056-.12-.059-.122-.061-.124-.064-.126-.066-.128" transform="translate(-482.155 -523.093)" fill="#f2f2f2" stroke="#000" stroke-linecap="round" stroke-width="0.4"/>
    <g id="g10535" transform="translate(9.915 507.652)">
      <g id="g10527" transform="translate(0 0)">
        <path id="path10523" d="M449.745,1030.551c-.267-.662-.62-1.432-.972-2.122l-.137-.268.057-.106c.1-.184.326-.583.463-.812l.049-.08h1.349l.053.088c.118.2.42.727.492.864l.025.048-.071.137c-.384.737-.768,1.573-1.076,2.343l-.052.129h-.09l-.089-.22h0Z" transform="translate(-448.637 -1026.94)" fill="#333" stroke="rgba(255,255,255,0)" stroke-linecap="round" stroke-linejoin="round" stroke-width="0.4"/>
        <path id="path10525" d="M459.551,1030.391c-.267-.662-.62-1.432-.972-2.122l-.137-.268.057-.106c.1-.184.326-.583.463-.812l.049-.081h1.349l.053.088c.118.2.42.727.492.864l.025.047-.071.138c-.383.737-.768,1.573-1.076,2.343l-.052.129h-.09l-.089-.22h0Z" transform="translate(-444.811 -1027.002)" fill="#333" stroke="rgba(255,255,255,0)" stroke-linecap="round" stroke-linejoin="round" stroke-width="0.4"/>
      </g>
      <path id="path10529" d="M453.793,1029.6c.111-.217.318-.6.46-.858l.258-.463-.3-.539-.3-.539h-.523c-.446,0-.523-.015-.523-.057s-.043-.054-.226-.046c-.214.015-.23.018-.3.141l-.075.129.391.752c.215.414.505,1,.644,1.311a4.811,4.811,0,0,0,.276.561,2.528,2.528,0,0,0,.225-.394Z" transform="translate(-447.224 -1026.965)" fill="#333" stroke="rgba(255,255,255,0)" stroke-linecap="round" stroke-linejoin="round" stroke-width="0.4"/>
      <path id="path10531" d="M455.831,1029.583c-.111-.217-.318-.6-.46-.858l-.258-.463.3-.539.3-.539h.523c.446,0,.523-.015.523-.057s.043-.054.226-.046c.214.015.23.018.3.141l.075.129-.391.752c-.215.414-.505,1-.644,1.311a4.792,4.792,0,0,1-.276.561,2.533,2.533,0,0,1-.225-.394Z" transform="translate(-446.11 -1026.973)" fill="#333" stroke="rgba(255,255,255,0)" stroke-linecap="round" stroke-linejoin="round" stroke-width="0.4"/>
      <path id="path10533" d="M452.12,1035.474c0-.018.115-.53.131-.586.241-3.127.491-2.478,1.479-4.375a20.8,20.8,0,0,1,1.046-2.115l.19-.336v-.871h.933v.883l.2.353c.209.369.787,1.5.921,1.81l.078.178a29.724,29.724,0,0,1,1.566,4.717c.032.146.058.285.058.31,0,.046-.005.046-3.3.046-1.816,0-3.3,0-3.3-.015Z" transform="translate(-447.278 -1026.928)" fill="#333" stroke="rgba(255,255,255,0)" stroke-linecap="round" stroke-linejoin="round" stroke-width="0.4"/>
    </g>
    <path id="path10537" d="M494.142,759.61h25.92" transform="translate(-489.082 -598.634)" fill="none" stroke="#000" stroke-width="0.4"/>
    <path id="path10539" d="M507.393,1009.01h-1.415" transform="translate(-484.465 -501.341)" fill="none" stroke="#000" stroke-width="0.4"/>
    <path id="path10541" d="M496.089,1014.33h6.827" transform="translate(-488.323 -499.266)" fill="none" stroke="#000" stroke-width="0.4"/>
    <path id="path10543" d="M498.035,1009.01h1.415" transform="translate(-487.563 -501.341)" fill="none" stroke="#000" stroke-width="0.4"/>
    <path id="path10545" d="M499.666,1010.163q-.29-.583-.612-1.149" transform="translate(-487.166 -501.34)" fill="none" stroke="#000" stroke-width="0.4"/>
    <path id="path10547" d="M498.207,1009.01q-.322.566-.612,1.149" transform="translate(-487.735 -501.341)" fill="none" stroke="#000" stroke-width="0.4"/>
    <path id="path10549" d="M501.417,1009.01h1.062" transform="translate(-486.244 -501.341)" fill="none" stroke="#000" stroke-width="0.4"/>
    <path id="path10551" d="M503.1,1010.272q-.294-.6-.621-1.183" transform="translate(-485.83 -501.31)" fill="none" stroke="#000" stroke-width="0.4"/>
    <path id="path10553" d="M501.508,1009.01q-.166.292-.323.589" transform="translate(-486.335 -501.341)" fill="none" stroke="#000" stroke-width="0.4"/>
    <path id="path10555" d="M512.757,1014.33H505.93" transform="translate(-484.484 -499.266)" fill="none" stroke="#000" stroke-width="0.4"/>
    <path id="path10557" d="M509.291,1009.01h-1.415" transform="translate(-483.724 -501.341)" fill="none" stroke="#000" stroke-width="0.4"/>
    <path id="path10559" d="M508.049,1009.01q-.322.566-.612,1.149" transform="translate(-483.896 -501.341)" fill="none" stroke="#000" stroke-width="0.4"/>
    <path id="path10561" d="M509.507,1010.163q-.29-.583-.612-1.149" transform="translate(-483.327 -501.34)" fill="none" stroke="#000" stroke-width="0.4"/>
    <path id="path10563" d="M505.811,1009.01h-1.062" transform="translate(-484.944 -501.341)" fill="none" stroke="#000" stroke-width="0.4"/>
    <path id="path10565" d="M502.181,1009.277a1.445,1.445,0,0,0,.3-.951" transform="translate(-485.946 -501.608)" fill="none" stroke="#000" stroke-width="0.4"/>
    <path id="path10567" d="M498.7,1009.01h4.833" transform="translate(-487.302 -501.341)" fill="none" stroke="#000" stroke-width="0.4"/>
    <path id="path10569" d="M504.532,1008.33a1.445,1.445,0,0,0,.3.951" transform="translate(-485.029 -501.607)" fill="none" stroke="#000" stroke-width="0.4"/>
    <path id="path10571" d="M508.225,1009.277a1.445,1.445,0,0,0,.3-.951" transform="translate(-483.588 -501.608)" fill="none" stroke="#000" stroke-width="0.4"/>
    <path id="path10573" d="M502.479,1009.09h2.741" transform="translate(-485.83 -501.31)" fill="none" stroke="#000" stroke-width="0.4"/>
    <path id="path10575" d="M501.672,1009.01c.024.037.049.073.076.108" transform="translate(-486.144 -501.341)" fill="none" stroke="#000" stroke-width="0.4"/>
    <path id="path10577" d="M505.2,1009.12c.027-.035.052-.071.076-.108" transform="translate(-484.767 -501.34)" fill="none" stroke="#000" stroke-width="0.4"/>
    <path id="path10579" d="M501.726,1009.09h4.833" transform="translate(-486.123 -501.31)" fill="none" stroke="#000" stroke-width="0.4"/>
    <path id="path10581" d="M504.675,1009.09q-.327.583-.621,1.183" transform="translate(-485.215 -501.31)" fill="none" stroke="#000" stroke-width="0.4"/>
    <path id="path10583" d="M504.675,1009.09q-.327.583-.621,1.183" transform="translate(-485.215 -501.31)" fill="none" stroke="#000" stroke-width="0.4"/>
    <path id="path10585" d="M505.851,1009.537q-.141-.264-.289-.524" transform="translate(-484.627 -501.34)" fill="none" stroke="#000" stroke-width="0.4"/>
    <path id="path10587" d="M512.788,713.118v334.833" transform="translate(-481.808 -616.771)" fill="none" stroke="#000" stroke-width="0.4"/>
    <path id="path10589" d="M501.28,1014.33q-.137.574-.246,1.155h6.828q-.109-.58-.246-1.155" transform="translate(-486.393 -499.266)" fill="none" stroke="#000" stroke-width="0.4"/>
    <path id="path10591" d="M502.132,1012.51a23.872,23.872,0,0,1,1.18-2.376v-1.047" transform="translate(-485.965 -501.311)" fill="none" stroke="#000" stroke-width="0.4"/>
    <path id="path10593" d="M504,1009.09v1.047a23.881,23.881,0,0,1,1.143,2.289" transform="translate(-485.237 -501.31)" fill="none" stroke="#000" stroke-width="0.4"/>
    <path id="path10595" d="M500.243,1013.376a23.868,23.868,0,0,0-1.932-4.368H496.9a23.863,23.863,0,0,0-2.706,7.391h6.828" transform="translate(-489.063 -501.342)" fill="#333" stroke="#000" stroke-width="0.4"/>
    <path id="path10597" d="M508.386,1008.862a1.446,1.446,0,0,0,.223.412h4.833a1.446,1.446,0,0,0,.3-.951" transform="translate(-483.525 -501.61)" fill="none" stroke="#000" stroke-width="0.4"/>
    <path id="path10599" d="M507.828,1016.4h6.827a23.867,23.867,0,0,0-2.706-7.391h-1.415a23.868,23.868,0,0,0-1.932,4.368" transform="translate(-483.743 -501.34)" fill="#333" stroke="#000" stroke-width="0.4"/>
    <path id="path10601" d="M500.693,1009.01a23.871,23.871,0,0,0-2.706,7.39h6.828a23.872,23.872,0,0,0-2.706-7.39Z" transform="translate(-487.582 -501.341)" fill="#333" stroke="#000" stroke-width="0.4"/>
    <g id="g10625" transform="translate(0 0)">
      <g id="g10615" transform="translate(0.169 0.241)">
        <g id="g10607" transform="translate(0 0)">
          <path id="path10603" d="M224.073,192.435c-.09-1.385-.121-13.688-.07-27.338.1-26.974.087-26.633,1.563-33.532a40.02,40.02,0,0,1,10.336-19.89c2.151-2.307,3.873-3.458,5.182-3.464l.553,0v86.746h-17.4l-.164-2.519Z" transform="translate(-223.978 -108.208)" fill="url(#linear-gradient-3)"/>
          <path id="path10605" d="M228.877,179.5c-.132-.169-1.045-1.8-2.03-3.625s-2.006-3.677-2.269-4.116l-.478-.8h17.488v8.847h-6.236C230.655,179.811,229.057,179.735,228.877,179.5Z" transform="translate(-223.93 -83.726)" fill="url(#linear-gradient-4)"/>
        </g>
        <g id="g10613" transform="translate(35.771 96.085) rotate(180)">
          <path id="path10609" d="M.095,2.519C0,3.9-.027,16.206.025,29.857c.1,26.974.087,26.633,1.563,33.532a40.021,40.021,0,0,0,10.336,19.89c2.151,2.307,3.873,3.458,5.182,3.464l.553,0V0H.259L.095,2.519Z" transform="translate(0 9.339)" fill="url(#linear-gradient-5)"/>
          <path id="path10611" d="M4.776.307c-.132.169-1.045,1.8-2.03,3.625S.74,7.609.478,8.048L0,8.847H17.488V0H11.251C6.554,0,4.956.076,4.776.307Z" transform="translate(0.172)" fill="url(#linear-gradient-6)"/>
        </g>
      </g>
      <path id="path10617" d="M492.642,731.219h25.92" transform="translate(-487.582 -634.732)" fill="none" stroke="#000" stroke-width="0.4"/>
      <path id="path10619" d="M489,724.544h36.039" transform="translate(-489.002 -637.336)" fill="none" stroke="#000" stroke-width="0.4"/>
      <path id="path10621" d="M494.062,758.3l-.541-.992-.541-.992-.541-.992-.541-.992-.541-.992-.541-.992-.541-.992-.541-.992-.541-.992-.19-3.982V700.562l.021-4.158.069-.736.07-.736.072-.736.075-.737.078-.736.083-.737.088-.737.094-.737.1-.737.108-.737.116-.737.124-.737.133-.736.142-.734.151-.732.161-.73.171-.727.181-.724.191-.72.2-.716.213-.712.225-.707.236-.7.248-.7.261-.69.273-.683.287-.676.3-.668.313-.661.326-.654.339-.647.352-.641.365-.634.377-.628.39-.623.4-.617.414-.612.427-.607.439-.6.451-.6.463-.595.474-.591.486-.587.5-.584.509-.582.52-.578.533-.569.549-.547.568-.513.591-.467.616-.409.645-.339.677-.257.712-.164.751-.091h.786l.752.091.712.163.677.256.645.338.616.409.591.467.569.513.549.547.533.569.52.579.508.581.5.584.486.588.474.591.462.595.45.6.439.6.427.607.414.612.4.617.39.623.377.628.365.634.352.64.34.647.327.654.314.661.3.668.288.675.275.683.263.689.25.7.238.7.226.707.215.712.2.716.192.72.181.724.171.727.161.73.151.732.141.734.131.736.122.737.113.737.1.738.1.738.088.738.081.738.076.737.071.737.067.737.064.737.062.737.061.737.018,4.158v44.822l-.19,3.982-.541.992-.541.992-.541.992-.541.992-.541.992-.541.992-.541.992-.541.992-.541.992" transform="translate(-489.002 -661.809)" fill="none" stroke="#000" stroke-width="0.4"/>
      <path id="path10623" d="M501.965,758.3V661.81" transform="translate(-483.945 -661.809)" fill="none" stroke="#000" stroke-width="0.4"/>
    </g>
    <path id="path10627" d="M498.453,955.077l-1.715-1.817" transform="translate(-488.069 -523.09)" fill="none" stroke="#000" stroke-width="0.4"/>
    <path id="path10629" d="M497.616,953.259h-3.129" transform="translate(-488.947 -523.09)" fill="none" stroke="#000" stroke-width="0.4"/>
    <path id="path10631" d="M494.219,993.033l.243-33.529" transform="translate(-489.052 -520.654)" fill="none" stroke="#000" stroke-width="0.4"/>
    <path id="path10633" d="M494.393,960.646l3-4.066" transform="translate(-488.984 -521.795)" fill="none" stroke="#000" stroke-width="0.4"/>
    <path id="path10635" d="M494.8,960.548l-1.435-3.717" transform="translate(-489.387 -521.697)" fill="none" stroke="#000" stroke-width="0.4"/>
    <path id="path10637" d="M496.554,957.875l.256-4.615" transform="translate(-488.141 -523.09)" fill="none" stroke="#000" stroke-linecap="round" stroke-width="0.4"/>
    <path id="path10639" d="M494.142,1047.951V713.118" transform="translate(-489.082 -616.771)" fill="none" stroke="#000" stroke-width="0.4"/>
    <path id="path10641" d="M493.528,1004.25h.853" transform="translate(-489.321 -503.198)" fill="none" stroke="#000" stroke-width="0.4"/>
    <path id="path10643" d="M493.453,1004.91h.958" transform="translate(-489.351 -502.941)" fill="none" stroke="#000" stroke-width="0.4"/>
    <path id="path10645" d="M520.062,998.507v11.551a4.167,4.167,0,0,1-.68,2.1H494.822a4.169,4.169,0,0,1-.68-2.1V998.507" transform="translate(-489.082 -505.438)" fill="none" stroke="#000" stroke-width="0.4"/>
    <path id="path10647" d="M503.159,1004.91h.851" transform="translate(-485.564 -502.941)" fill="none" stroke="#000" stroke-width="0.4"/>
    <path id="path10649" d="M503.355,1004.25h.3" transform="translate(-485.488 -503.198)" fill="none" stroke="#000" stroke-width="0.4"/>
    <path id="path10651" d="M492.21,1012.172l.165-2.088.165-2.088.165-2.088.165-2.088.165-2.088.165-2.088.165-2.088.165-2.087.165-2.088.165-2.088.165-2.088.165-2.088.165-2.088.069-.662.046-.166.055-.142.062-.12.069-.1.075-.079.08-.06.084-.043.087-.026.09-.014h.091l.091.014.091.025.09.035.088.045.085.053.083.06.081.065.079.072.077.076.074.081.071.083.069.086.066.088.063.089.06.089.246.612.81,2.181.81,2.182.81,2.181.81,2.182.81,2.182.81,2.181.81,2.182.81,2.182.81,2.181.81,2.182.81,2.181.81,2.182.81,2.181" transform="translate(-489.836 -511.245)" fill="none" stroke="#000" stroke-width="0.4"/>
    <path id="path10653" d="M508.958,955.077l1.715-1.817" transform="translate(-483.302 -523.09)" fill="none" stroke="#000" stroke-width="0.4"/>
    <path id="path10655" d="M510.192,953.259h3.129" transform="translate(-482.821 -523.09)" fill="none" stroke="#000" stroke-width="0.4"/>
    <path id="path10657" d="M512.779,993.033l-.242-33.529" transform="translate(-481.906 -520.654)" fill="none" stroke="#000" stroke-width="0.4"/>
    <path id="path10659" d="M513.38,960.646l-3-4.066" transform="translate(-482.749 -521.795)" fill="none" stroke="#000" stroke-width="0.4"/>
    <path id="path10661" d="M512.537,960.548l1.435-3.717" transform="translate(-481.906 -521.697)" fill="none" stroke="#000" stroke-width="0.4"/>
    <path id="path10663" d="M510.448,957.875l-.257-4.615" transform="translate(-482.821 -523.09)" fill="none" stroke="#000" stroke-linecap="round" stroke-width="0.4"/>
    <path id="path10665" d="M513.641,1004.25h-.853" transform="translate(-481.808 -503.198)" fill="none" stroke="#000" stroke-width="0.4"/>
    <path id="path10667" d="M513.746,1004.91h-.958" transform="translate(-481.808 -502.941)" fill="none" stroke="#000" stroke-width="0.4"/>
    <path id="path10669" d="M518.9,1012.172l-.165-2.088-.164-2.088-.165-2.088-.165-2.088-.165-2.088-.165-2.088-.165-2.088-.165-2.087-.165-2.088-.165-2.088-.165-2.088-.165-2.088-.165-2.088-.069-.662-.046-.166-.055-.142-.062-.12-.069-.1-.075-.079-.08-.06-.084-.043-.087-.026-.09-.014h-.091l-.091.014-.091.025-.09.035-.087.045-.086.053-.083.06-.081.065-.079.072-.077.076-.074.081-.071.083-.069.086-.066.088-.063.089-.06.089-.246.612-.81,2.181-.81,2.182-.81,2.181-.81,2.182-.81,2.182-.81,2.181-.81,2.182-.81,2.182-.81,2.181-.81,2.182-.81,2.181-.81,2.182-.81,2.181" transform="translate(-485.235 -511.245)" fill="none" stroke="#000" stroke-width="0.4"/>
    <path id="path10671" d="M508.153,1009.01a23.869,23.869,0,0,1,2.706,7.39h-6.828a23.87,23.87,0,0,1,2.706-7.39" transform="translate(-485.224 -501.341)" fill="#333" stroke="#000" stroke-width="0.4"/>
    <path id="path10673" d="M504.748,1009.01h4.833" transform="translate(-484.944 -501.341)" fill="none" stroke="#000" stroke-width="0.4"/>
    <path id="path10675" d="M494.691,1008.33a1.445,1.445,0,0,0,.3.951h4.834a1.451,1.451,0,0,0,.223-.412" transform="translate(-488.868 -501.607)" fill="none" stroke="#000" stroke-width="0.4"/>
    <path id="path10677" d="M498.488,1008.33a1.445,1.445,0,0,0,.3.951" transform="translate(-487.387 -501.607)" fill="none" stroke="#000" stroke-width="0.4"/>
    <path id="path10679" d="M494.142,795.3h25.92" transform="translate(-489.082 -584.71)" fill="none" stroke="#000" stroke-width="0.4"/>
    <g id="g10701" transform="translate(13.618 403.006)">
      <path id="path10681" d="M185.126,941.9h-5.377l-.2.149v4.784h1.489v-1.794l.142-.127h3.946c1,0,1.463-.268,1.463-.956v-1.1c0-.689-.467-.957-1.464-.957m0,1.768c0,.324-.214.391-.682.391H181.2l-.159-.154v-1.025l.142-.13h3.265c.467,0,.681.067.681.392v.526Z" transform="translate(-178.766 -930.529)" fill="#005288"/>
      <path id="polyline10683" d="M14.326,3l1.281,1.877-.071.182H12.7l-.723.89H16.2l.292.178.655.9h1.7L15.113,2.038" transform="translate(-11.08 19.242)" fill="#005288"/>
      <g id="g10689" transform="translate(0.936 43.209)">
        <path id="polyline10685" d="M26.277,5.579V4.252l.153-.132h2.85V3.274H24.764V6.551h6.663V5.709H26.437" transform="translate(-24.764 -1.617)" fill="#005288"/>
        <rect id="rect10687" width="6.733" height="0.93" transform="translate(0 0)" fill="#005288"/>
      </g>
      <path id="path10691" d="M181.2,957.649h5.424c-.084-.69-.512-.881-1.6-.881h-3.885c-1.225,0-1.616.239-1.616,1.166v2.6c0,.928.391,1.167,1.616,1.167h3.885c1.1,0,1.523-.207,1.552-.922H181.2l-.16-.15V957.75" transform="translate(-178.774 -924.727)" fill="#005288"/>
      <path id="path10693" d="M185.1,935.641h-3.946l-.116-.128v-.844l.116-.089h5.32l.073-.178c-.181-.466-.65-.683-1.522-.683h-3.7c-1.224,0-1.616.239-1.616,1.166v.545c0,.928.391,1.167,1.616,1.167h3.937l.124.109v.882l-.1.138h-4.5v0H179.6s-.135.068-.13.1c.1.648.542.832,1.6.832H185.1c1.224,0,1.627-.239,1.627-1.167v-.679c0-.927-.4-1.165-1.627-1.165" transform="translate(-178.795 -933.719)" fill="#005288"/>
      <path id="path10695" d="M181.442,973.03h-2.215l-.12.229,2.46,1.793c.466-.27.973-.543,1.524-.813" transform="translate(-178.938 -918.383)" fill="#005288"/>
      <path id="path10697" d="M182.214,975.739l2.162,1.576h2.242l.093-.209-3.228-2.363q-.643.472-1.268,1" transform="translate(-177.726 -917.714)" fill="#005288"/>
      <path id="path10699" d="M181.159,978.6h-2l-.169-.265a28.067,28.067,0,0,1,15.683-6.889,25.066,25.066,0,0,0-13.51,7.155" transform="translate(-178.986 -919.001)" fill="#a7a9ac"/>
    </g>
    <g id="g10765" transform="translate(8.984 176.251)">
      <g id="g10739" transform="translate(2.616 18.209)">
        <rect id="rect10703" width="12.773" height="7.21" fill="#b22234"/>
        <path id="path10705" d="M0,.6H12.773m0,1.109H0M0,2.817H12.773m0,1.109H0M0,5.036H12.773m0,1.109H0" transform="translate(0 0.233)" stroke="#fff" stroke-width="0.385"/>
        <rect id="rect10707" width="5.109" height="3.883" fill="#3c3b6e"/>
        <g id="g10737" transform="translate(0.229 0.166)">
          <g id="g10729">
            <g id="g10725">
              <g id="g10721">
                <g id="g10717">
                  <path id="path10709" d="M.361.12l.122.4L.165.273H.558L.24.521Z" transform="translate(-0.165 -0.12)" fill="#fff"/>
                  <path id="use10711" d="M.361.12l.122.4L.165.273H.558L.24.521Z" transform="translate(-0.165 0.657)" fill="#fff"/>
                  <path id="use10713" d="M.361.12l.122.4L.165.273H.558L.24.521Z" transform="translate(-0.165 1.433)" fill="#fff"/>
                  <path id="use10715" d="M.361.12l.122.4L.165.273H.558L.24.521Z" transform="translate(-0.165 2.21)" fill="#fff"/>
                </g>
                <path id="use10719" d="M.361.12l.122.4L.165.273H.558L.24.521Z" transform="translate(-0.165 2.986)" fill="#fff"/>
              </g>
              <g id="use10723" transform="translate(0.426 0.388)">
                <path id="s" d="M.361.12l.122.4L.165.273H.558L.24.521Z" transform="translate(-0.165 -0.12)" fill="#fff"/>
                <path id="use11040" d="M.361.12l.122.4L.165.273H.558L.24.521Z" transform="translate(-0.165 0.657)" fill="#fff"/>
                <path id="use11042" d="M.361.12l.122.4L.165.273H.558L.24.521Z" transform="translate(-0.165 1.433)" fill="#fff"/>
                <path id="use11044" d="M.361.12l.122.4L.165.273H.558L.24.521Z" transform="translate(-0.165 2.21)" fill="#fff"/>
              </g>
            </g>
            <g id="use10727" transform="translate(0.852)">
              <g id="s5" transform="translate(0)">
                <g id="s4">
                  <path id="s-2" data-name="s" d="M.361.12l.122.4L.165.273H.558L.24.521Z" transform="translate(-0.165 -0.12)" fill="#fff"/>
                  <path id="use11040-2" data-name="use11040" d="M.361.12l.122.4L.165.273H.558L.24.521Z" transform="translate(-0.165 0.657)" fill="#fff"/>
                  <path id="use11042-2" data-name="use11042" d="M.361.12l.122.4L.165.273H.558L.24.521Z" transform="translate(-0.165 1.433)" fill="#fff"/>
                  <path id="use11044-2" data-name="use11044" d="M.361.12l.122.4L.165.273H.558L.24.521Z" transform="translate(-0.165 2.21)" fill="#fff"/>
                </g>
                <path id="use11046" d="M.361.12l.122.4L.165.273H.558L.24.521Z" transform="translate(-0.165 2.986)" fill="#fff"/>
              </g>
              <g id="use11048" transform="translate(0.426 0.388)">
                <path id="s-3" data-name="s" d="M.361.12l.122.4L.165.273H.558L.24.521Z" transform="translate(-0.165 -0.12)" fill="#fff"/>
                <path id="use11040-3" data-name="use11040" d="M.361.12l.122.4L.165.273H.558L.24.521Z" transform="translate(-0.165 0.657)" fill="#fff"/>
                <path id="use11042-3" data-name="use11042" d="M.361.12l.122.4L.165.273H.558L.24.521Z" transform="translate(-0.165 1.433)" fill="#fff"/>
                <path id="use11044-3" data-name="use11044" d="M.361.12l.122.4L.165.273H.558L.24.521Z" transform="translate(-0.165 2.21)" fill="#fff"/>
              </g>
            </g>
          </g>
          <g id="use10731" transform="translate(1.703)">
            <g id="s9" transform="translate(0)">
              <g id="s5-2" data-name="s5">
                <g id="s4-2" data-name="s4">
                  <path id="s-4" data-name="s" d="M.361.12l.122.4L.165.273H.558L.24.521Z" transform="translate(-0.165 -0.12)" fill="#fff"/>
                  <path id="use11040-4" data-name="use11040" d="M.361.12l.122.4L.165.273H.558L.24.521Z" transform="translate(-0.165 0.657)" fill="#fff"/>
                  <path id="use11042-4" data-name="use11042" d="M.361.12l.122.4L.165.273H.558L.24.521Z" transform="translate(-0.165 1.433)" fill="#fff"/>
                  <path id="use11044-4" data-name="use11044" d="M.361.12l.122.4L.165.273H.558L.24.521Z" transform="translate(-0.165 2.21)" fill="#fff"/>
                </g>
                <path id="use11046-2" data-name="use11046" d="M.361.12l.122.4L.165.273H.558L.24.521Z" transform="translate(-0.165 2.986)" fill="#fff"/>
              </g>
              <g id="use11048-2" data-name="use11048" transform="translate(0.426 0.388)">
                <path id="s-5" data-name="s" d="M.361.12l.122.4L.165.273H.558L.24.521Z" transform="translate(-0.165 -0.12)" fill="#fff"/>
                <path id="use11040-5" data-name="use11040" d="M.361.12l.122.4L.165.273H.558L.24.521Z" transform="translate(-0.165 0.657)" fill="#fff"/>
                <path id="use11042-5" data-name="use11042" d="M.361.12l.122.4L.165.273H.558L.24.521Z" transform="translate(-0.165 1.433)" fill="#fff"/>
                <path id="use11044-5" data-name="use11044" d="M.361.12l.122.4L.165.273H.558L.24.521Z" transform="translate(-0.165 2.21)" fill="#fff"/>
              </g>
            </g>
            <g id="use11050" transform="translate(0.852)">
              <g id="s5-3" data-name="s5" transform="translate(0)">
                <g id="s4-3" data-name="s4">
                  <path id="s-6" data-name="s" d="M.361.12l.122.4L.165.273H.558L.24.521Z" transform="translate(-0.165 -0.12)" fill="#fff"/>
                  <path id="use11040-6" data-name="use11040" d="M.361.12l.122.4L.165.273H.558L.24.521Z" transform="translate(-0.165 0.657)" fill="#fff"/>
                  <path id="use11042-6" data-name="use11042" d="M.361.12l.122.4L.165.273H.558L.24.521Z" transform="translate(-0.165 1.433)" fill="#fff"/>
                  <path id="use11044-6" data-name="use11044" d="M.361.12l.122.4L.165.273H.558L.24.521Z" transform="translate(-0.165 2.21)" fill="#fff"/>
                </g>
                <path id="use11046-3" data-name="use11046" d="M.361.12l.122.4L.165.273H.558L.24.521Z" transform="translate(-0.165 2.986)" fill="#fff"/>
              </g>
              <g id="use11048-3" data-name="use11048" transform="translate(0.426 0.388)">
                <path id="s-7" data-name="s" d="M.361.12l.122.4L.165.273H.558L.24.521Z" transform="translate(-0.165 -0.12)" fill="#fff"/>
                <path id="use11040-7" data-name="use11040" d="M.361.12l.122.4L.165.273H.558L.24.521Z" transform="translate(-0.165 0.657)" fill="#fff"/>
                <path id="use11042-7" data-name="use11042" d="M.361.12l.122.4L.165.273H.558L.24.521Z" transform="translate(-0.165 1.433)" fill="#fff"/>
                <path id="use11044-7" data-name="use11044" d="M.361.12l.122.4L.165.273H.558L.24.521Z" transform="translate(-0.165 2.21)" fill="#fff"/>
              </g>
            </g>
          </g>
          <g id="use10733" transform="translate(3.406)">
            <g id="s5-4" data-name="s5" transform="translate(0)">
              <g id="s4-4" data-name="s4">
                <path id="s-8" data-name="s" d="M.361.12l.122.4L.165.273H.558L.24.521Z" transform="translate(-0.165 -0.12)" fill="#fff"/>
                <path id="use11040-8" data-name="use11040" d="M.361.12l.122.4L.165.273H.558L.24.521Z" transform="translate(-0.165 0.657)" fill="#fff"/>
                <path id="use11042-8" data-name="use11042" d="M.361.12l.122.4L.165.273H.558L.24.521Z" transform="translate(-0.165 1.433)" fill="#fff"/>
                <path id="use11044-8" data-name="use11044" d="M.361.12l.122.4L.165.273H.558L.24.521Z" transform="translate(-0.165 2.21)" fill="#fff"/>
              </g>
              <path id="use11046-4" data-name="use11046" d="M.361.12l.122.4L.165.273H.558L.24.521Z" transform="translate(-0.165 2.986)" fill="#fff"/>
            </g>
            <g id="use11048-4" data-name="use11048" transform="translate(0.426 0.388)">
              <path id="s-9" data-name="s" d="M.361.12l.122.4L.165.273H.558L.24.521Z" transform="translate(-0.165 -0.12)" fill="#fff"/>
              <path id="use11040-9" data-name="use11040" d="M.361.12l.122.4L.165.273H.558L.24.521Z" transform="translate(-0.165 0.657)" fill="#fff"/>
              <path id="use11042-9" data-name="use11042" d="M.361.12l.122.4L.165.273H.558L.24.521Z" transform="translate(-0.165 1.433)" fill="#fff"/>
              <path id="use11044-9" data-name="use11044" d="M.361.12l.122.4L.165.273H.558L.24.521Z" transform="translate(-0.165 2.21)" fill="#fff"/>
            </g>
          </g>
          <g id="use10735" transform="translate(4.258)">
            <g id="s4-5" data-name="s4" transform="translate(0)">
              <path id="s-10" data-name="s" d="M.361.12l.122.4L.165.273H.558L.24.521Z" transform="translate(-0.165 -0.12)" fill="#fff"/>
              <path id="use11040-10" data-name="use11040" d="M.361.12l.122.4L.165.273H.558L.24.521Z" transform="translate(-0.165 0.657)" fill="#fff"/>
              <path id="use11042-10" data-name="use11042" d="M.361.12l.122.4L.165.273H.558L.24.521Z" transform="translate(-0.165 1.433)" fill="#fff"/>
              <path id="use11044-10" data-name="use11044" d="M.361.12l.122.4L.165.273H.558L.24.521Z" transform="translate(-0.165 2.21)" fill="#fff"/>
            </g>
            <path id="use11046-5" data-name="use11046" d="M.361.12l.122.4L.165.273H.558L.24.521Z" transform="translate(-0.165 2.986)" fill="#fff"/>
          </g>
        </g>
      </g>
      <g id="g10763" transform="translate(0 0)">
        <g id="g10745" transform="translate(0.203)">
          <path id="path10741" d="M-34.551,13.92a12.417,12.417,0,0,1,1.308-.629c-5.1-2.685-5.388-4.7-6.436-6.827.807,2.46,1.481,4.915,5.128,7.457Z" transform="translate(39.678 -6.463)" fill="#a80126" fill-rule="evenodd"/>
          <path id="path10743" d="M-37.9,8.928a15.87,15.87,0,0,0,4.876,3.137c1.231-.657,5.3-1.014,5.214-.087a2.168,2.168,0,0,0-1.925-.069,5.712,5.712,0,0,1,1.126-.007.891.891,0,0,1-.263.2,2.99,2.99,0,0,1,.9.321c.168-.016.278-.012.329.04a1.1,1.1,0,0,0-.479.414c1.131.032,2.336.021,2.463,1.214.357-1.057-.281-1.606-1.525-1.847a6.041,6.041,0,0,0-.681-1.021c-3.4-.19-6.8-.421-10.034-2.294Z" transform="translate(40.371 -5.502)" fill="#a80126" fill-rule="evenodd"/>
        </g>
        <path id="path10747" d="M651.1,652.893v-2.059h1.378a.477.477,0,0,1-.217.192H651.4v.542h.77a.343.343,0,0,1-.174.153h-.6v.734A.929.929,0,0,1,651.1,652.893Z" transform="translate(-651.1 -641.244)" fill-rule="evenodd"/>
        <path id="path10749" d="M654.11,651.065v1.506h.391v-1.418a1.054,1.054,0,0,0-1.589,0v1.418h.354v-.832h.279a.319.319,0,0,0,.137-.12h-.41v-.548a.629.629,0,0,1,.838-.006Z" transform="translate(-650.393 -641.26)" fill-rule="evenodd"/>
        <path id="path10751" d="M657.158,652.594H655.57v-1.736h.4v1.593h1.4C657.306,652.5,657.276,652.576,657.158,652.594Z" transform="translate(-649.356 -641.234)" fill-rule="evenodd"/>
        <path id="path10753" d="M658.583,650.834v.341c-.638.865.449,1.9,1.672,1.142l.092-.019c-.758.856-3.537.161-1.765-1.464Z" transform="translate(-648.407 -641.243)" fill-rule="evenodd"/>
        <path id="path10755" d="M657.816,651.1v.628c.61-1.1,1.456-1.646,4.045-.917C659.377,649.834,658.455,650.345,657.816,651.1Z" transform="translate(-648.479 -641.463)" fill-rule="evenodd"/>
        <path id="path10757" d="M610.595,123.9a1,1,0,0,0-1.036,1.011,1.036,1.036,0,0,0,2.072,0A.97.97,0,0,0,610.595,123.9Zm0,.137c.308,0,.617.285.619.874.006,1.178-1.219,1.152-1.227,0C609.977,124.333,610.282,124.038,610.59,124.034Z" transform="translate(-596.434 -114.443)" fill-rule="evenodd"/>
        <path id="path10759" d="M663.509,651.054v1.564H663.2v-1.642l.31-.15,0,.071a1.165,1.165,0,0,1,.9.328v1.408h-.3v-1.383c-.111-.184-.234-.23-.6-.234Z" transform="translate(-646.379 -641.246)" fill-rule="evenodd"/>
        <path id="path10761" d="M607.274,126.147c-3.194.015-2.367,2.576-.6,2.525a1.621,1.621,0,0,0,1.53-.7c-.345,1.727-1.517,1.727-2.928,1.865a.833.833,0,0,0-.335.328c2.4-.048,4.405-.475,4.347-2.334C609.246,126.531,608.375,126.142,607.274,126.147Zm-.048.31a.852.852,0,1,1-1.052.829.962.962,0,0,1,1.052-.829Z" transform="translate(-598.236 -113.566)" fill-rule="evenodd"/>
      </g>
    </g>
    <g id="g10855" transform="translate(4.604 200.724)">
      <g id="g10809" transform="translate(19.462 0)">
        <path id="path10767" d="M281.78,803.977l.043-8.905-1.477-2.172.043-2.346-1.173-2.216-.391-1.26-.956-.348-.956.087-.565.174-.521,1.39-.3,1.521-.043,1.3v1.39l.13,1-1.129,1.26v8.992l.869.174Z" transform="translate(-274.482 -786.731)" fill="#fff" stroke="#040404" stroke-linecap="round" stroke-linejoin="round" stroke-width="0.2" fill-rule="evenodd"/>
        <path id="path10769" d="M275.112,793.353v8.939h6.427v-8.9l-1.3-2.248H277.17Z" transform="translate(-274.236 -785.01)" fill="none" stroke="#040404" stroke-linecap="square" stroke-linejoin="round" stroke-width="0.2" fill-rule="evenodd"/>
        <path id="path10771" d="M279.951,803.425V790.248l-1.075-2.15a2.792,2.792,0,0,0-3.256.43l.154,4.024" transform="translate(-274.038 -786.328)" fill="none" stroke="#040404" stroke-linecap="square" stroke-linejoin="round" stroke-width="0.2" fill-rule="evenodd"/>
        <path id="path10773" d="M276.692,791.185v11.046" transform="translate(-273.62 -784.993)" fill="none" stroke="#040404" stroke-linecap="square" stroke-linejoin="round" stroke-width="0.2" fill-rule="evenodd"/>
        <path id="path10775" d="M277.443,791.172l-1.044-.031-1.9,2.058v8.993l.874.086" transform="translate(-274.477 -785.01)" fill="none" stroke="#040404" stroke-linecap="square" stroke-linejoin="round" stroke-width="0.2" fill-rule="evenodd"/>
        <path id="path10777" d="M276.894,792.171l-.031-2.212-1.2-1.536" transform="translate(-274.02 -786.071)" fill="none" stroke="#040404" stroke-linecap="square" stroke-linejoin="round" stroke-width="0.2" fill-rule="evenodd"/>
        <path id="path10779" d="M279.072,788.474l-.553-1.352a3.138,3.138,0,0,0-2.457-.154,12.025,12.025,0,0,0-.706,6.573" transform="translate(-274.202 -786.705)" fill="none" stroke="#040404" stroke-linecap="square" stroke-linejoin="round" stroke-width="0.2" fill-rule="evenodd"/>
        <path id="path10781" d="M279.528,789.507a3.771,3.771,0,0,0-2.98-.031" transform="translate(-273.676 -785.773)" fill="none" stroke="#040404" stroke-linecap="round" stroke-linejoin="round" stroke-width="0.2" fill-rule="evenodd"/>
        <path id="path10783" d="M277.313,799.811l-2.182-2.4" transform="translate(-274.229 -782.565)" fill="#fff" stroke="#040404" stroke-linecap="round" stroke-linejoin="round" stroke-width="0.2" fill-rule="evenodd"/>
        <path id="path10785" d="M279.271,800.606l-4.149-5.235" transform="translate(-274.232 -783.36)" fill="#fff" stroke="#040404" stroke-linecap="round" stroke-linejoin="round" stroke-width="0.2" fill-rule="evenodd"/>
        <path id="path10787" d="M275.122,793.527l6.1,7.754" transform="translate(-274.232 -784.079)" fill="#fff" stroke="#040404" stroke-linecap="round" stroke-linejoin="round" stroke-width="0.2" fill-rule="evenodd"/>
        <path id="path10789" d="M275.56,792.277l5.756,7.363" transform="translate(-274.061 -784.567)" fill="#fff" stroke="#040404" stroke-linecap="round" stroke-linejoin="round" stroke-width="0.2" fill-rule="evenodd"/>
        <path id="path10791" d="M276.388,791.387l4.648,6.082" transform="translate(-273.738 -784.914)" fill="#fff" stroke="#040404" stroke-linecap="round" stroke-linejoin="round" stroke-width="0.2" fill-rule="evenodd"/>
        <path id="path10793" d="M277.685,791.168l2.835,3.638" transform="translate(-273.232 -785)" fill="#fff" stroke="#040404" stroke-linecap="round" stroke-linejoin="round" stroke-width="0.2" fill-rule="evenodd"/>
        <path id="path10795" d="M277.38,800.43l3.269-4.637" transform="translate(-273.351 -783.195)" fill="#fff" stroke="#040404" stroke-linecap="round" stroke-linejoin="round" stroke-width="0.2" fill-rule="evenodd"/>
        <path id="path10797" d="M280.047,797.6l-1.347,2.129" transform="translate(-272.836 -782.489)" fill="#fff" stroke="#040404" stroke-linecap="round" stroke-linejoin="round" stroke-width="0.2" fill-rule="evenodd"/>
        <path id="path10799" d="M275.832,801.1l5.377-7.023" transform="translate(-273.955 -783.866)" fill="#fff" stroke="#040404" stroke-linecap="round" stroke-linejoin="round" stroke-width="0.2" fill-rule="evenodd"/>
        <path id="path10801" d="M275.138,800.362l6.169-7.819" transform="translate(-274.226 -784.463)" fill="#fff" stroke="#040404" stroke-linecap="round" stroke-linejoin="round" stroke-width="0.2" fill-rule="evenodd"/>
        <path id="path10803" d="M275.138,797.979l5.387-6.342" transform="translate(-274.226 -784.817)" fill="#fff" stroke="#040404" stroke-linecap="round" stroke-linejoin="round" stroke-width="0.2" fill-rule="evenodd"/>
        <path id="path10805" d="M275.107,795.631l3.91-4.431" transform="translate(-274.238 -784.987)" fill="#fff" stroke="#040404" stroke-linecap="round" stroke-linejoin="round" stroke-width="0.2" fill-rule="evenodd"/>
        <path id="path10807" d="M274.489,792.6l.852.177" transform="translate(-274.479 -784.44)" fill="#ccc" stroke="#040404" stroke-linecap="round" stroke-linejoin="round" stroke-width="0.2" fill-rule="evenodd"/>
      </g>
      <g id="g10853" transform="translate(7.342 17.29) rotate(180)">
        <path id="path10811" d="M7.3.043l.043,8.905L5.865,11.121l.043,2.346L4.735,15.682l-.391,1.26-.956.348L2.433,17.2l-.565-.174-.521-1.39-.3-1.52L1,12.815v-1.39l.13-1L0,9.166V.174L.869,0Z" fill="#fff" stroke="#040404" stroke-linecap="round" stroke-linejoin="round" stroke-width="0.2" fill-rule="evenodd"/>
        <path id="path10813" d="M0,8.939V0H6.427V8.9L5.13,11.15H2.058Z" transform="translate(0.876 0.008)" fill="none" stroke="#040404" stroke-linecap="square" stroke-linejoin="round" stroke-width="0.2" fill-rule="evenodd"/>
        <path id="path10815" d="M4.331,0V13.178l-1.075,2.15A2.792,2.792,0,0,1,0,14.9l.154-4.024" transform="translate(1.583 0.192)" fill="none" stroke="#040404" stroke-linecap="square" stroke-linejoin="round" stroke-width="0.2" fill-rule="evenodd"/>
        <path id="path10817" d="M0,11.046V0" transform="translate(3.072 0.052)" fill="none" stroke="#040404" stroke-linecap="square" stroke-linejoin="round" stroke-width="0.2" fill-rule="evenodd"/>
        <path id="path10819" d="M2.949,11.106,1.9,11.136,0,9.078V.086L.874,0" transform="translate(0.016 0.022)" fill="none" stroke="#040404" stroke-linecap="square" stroke-linejoin="round" stroke-width="0.2" fill-rule="evenodd"/>
        <path id="path10821" d="M1.229,0,1.2,2.212,0,3.748" transform="translate(1.645 11.189)" fill="none" stroke="#040404" stroke-linecap="square" stroke-linejoin="round" stroke-width="0.2" fill-rule="evenodd"/>
        <path id="path10823" d="M3.873,5.068,3.321,6.42a3.138,3.138,0,0,1-2.457.154A12.025,12.025,0,0,1,.157,0" transform="translate(0.996 10.453)" fill="none" stroke="#040404" stroke-linecap="square" stroke-linejoin="round" stroke-width="0.2" fill-rule="evenodd"/>
        <path id="path10825" d="M2.98,0A3.771,3.771,0,0,1,0,.031" transform="translate(2.873 13.555)" fill="none" stroke="#040404" stroke-linecap="round" stroke-linejoin="round" stroke-width="0.2" fill-rule="evenodd"/>
        <path id="path10827" d="M2.182,0,0,2.4" transform="translate(0.901 0.043)" fill="#fff" stroke="#040404" stroke-linecap="round" stroke-linejoin="round" stroke-width="0.2" fill-rule="evenodd"/>
        <path id="path10829" d="M4.149,0,0,5.235" transform="translate(0.891 0.043)" fill="#fff" stroke="#040404" stroke-linecap="round" stroke-linejoin="round" stroke-width="0.2" fill-rule="evenodd"/>
        <path id="path10831" d="M0,7.754,6.1,0" transform="translate(0.89 0.088)" fill="#fff" stroke="#040404" stroke-linecap="round" stroke-linejoin="round" stroke-width="0.2" fill-rule="evenodd"/>
        <path id="path10833" d="M0,7.363,5.756,0" transform="translate(1.499 2.217)" fill="#fff" stroke="#040404" stroke-linecap="round" stroke-linejoin="round" stroke-width="0.2" fill-rule="evenodd"/>
        <path id="path10835" d="M0,6.082,4.648,0" transform="translate(2.65 4.735)" fill="#fff" stroke="#040404" stroke-linecap="round" stroke-linejoin="round" stroke-width="0.2" fill-rule="evenodd"/>
        <path id="path10837" d="M0,3.638,2.835,0" transform="translate(4.453 7.483)" fill="#fff" stroke="#040404" stroke-linecap="round" stroke-linejoin="round" stroke-width="0.2" fill-rule="evenodd"/>
        <path id="path10839" d="M0,0,3.269,4.637" transform="translate(4.029 0.055)" fill="#fff" stroke="#040404" stroke-linecap="round" stroke-linejoin="round" stroke-width="0.2" fill-rule="evenodd"/>
        <path id="path10841" d="M1.347,2.129,0,0" transform="translate(5.864 0.045)" fill="#fff" stroke="#040404" stroke-linecap="round" stroke-linejoin="round" stroke-width="0.2" fill-rule="evenodd"/>
        <path id="path10843" d="M0,0,5.377,7.023" transform="translate(1.877 0.059)" fill="#fff" stroke="#040404" stroke-linecap="round" stroke-linejoin="round" stroke-width="0.2" fill-rule="evenodd"/>
        <path id="path10845" d="M0,0,6.169,7.819" transform="translate(0.912 1.391)" fill="#fff" stroke="#040404" stroke-linecap="round" stroke-linejoin="round" stroke-width="0.2" fill-rule="evenodd"/>
        <path id="path10847" d="M0,0,5.387,6.342" transform="translate(0.912 4.128)" fill="#fff" stroke="#040404" stroke-linecap="round" stroke-linejoin="round" stroke-width="0.2" fill-rule="evenodd"/>
        <path id="path10849" d="M0,0,3.91,4.431" transform="translate(0.869 6.646)" fill="#fff" stroke="#040404" stroke-linecap="round" stroke-linejoin="round" stroke-width="0.2" fill-rule="evenodd"/>
        <path id="path10851" d="M0,.177.852,0" transform="translate(0.01 8.951)" fill="#ccc" stroke="#040404" stroke-linecap="round" stroke-linejoin="round" stroke-width="0.2" fill-rule="evenodd"/>
      </g>
    </g>
  </g>
</svg>
