<svg xmlns="http://www.w3.org/2000/svg" xmlns:xlink="http://www.w3.org/1999/xlink" width="36.439" height="516.619" viewBox="0 0 36.439 516.619">
  <defs>
    <linearGradient id="linear-gradient" x1="-4.687" y1="0.502" x2="-3.687" y2="0.502" gradientUnits="objectBoundingBox">
      <stop offset="0" stop-color="#f6f6f6"/>
      <stop offset="0.5" stop-color="#fff"/>
      <stop offset="1" stop-color="#f6f6f6"/>
    </linearGradient>
    <linearGradient id="linear-gradient-2" x1="-4.687" y1="6.649" x2="-3.687" y2="6.649" gradientUnits="objectBoundingBox">
      <stop offset="0" stop-color="#101010"/>
      <stop offset="0.5" stop-color="#282828"/>
      <stop offset="1" stop-color="#101010"/>
    </linearGradient>
    <linearGradient id="linear-gradient-3" x1="-4.687" y1="0.5" x2="-3.687" y2="0.5" xlink:href="#linear-gradient-2"/>
    <linearGradient id="linear-gradient-4" x1="-4.71" y1="0.498" x2="-3.71" y2="0.498" xlink:href="#linear-gradient-2"/>
    <linearGradient id="linear-gradient-5" x1="-0.017" y1="0.5" x2="1.017" y2="0.5" gradientUnits="objectBoundingBox">
      <stop offset="0" stop-color="#181818"/>
      <stop offset="1" stop-color="#3c3c3c"/>
    </linearGradient>
    <linearGradient id="linear-gradient-6" x1="0.164" y1="0.026" x2="0.503" y2="0.923" gradientUnits="objectBoundingBox">
      <stop offset="0" stop-color="#080808"/>
      <stop offset="1" stop-color="#141414"/>
    </linearGradient>
    <linearGradient id="linear-gradient-8" x1="0.164" y1="0.974" x2="0.503" y2="0.077" xlink:href="#linear-gradient-6"/>
    <linearGradient id="linear-gradient-9" x1="-0.273" y1="11.099" x2="0.838" y2="11.099" gradientUnits="objectBoundingBox">
      <stop offset="0" stop-color="#e6e6e6"/>
      <stop offset="1" stop-color="#f9f9f9"/>
    </linearGradient>
    <linearGradient id="linear-gradient-10" x1="-0.285" y1="98.967" x2="0.837" y2="98.967" xlink:href="#linear-gradient-9"/>
    <linearGradient id="linear-gradient-11" x1="-0.341" y1="-10.105" x2="1.035" y2="-10.105" xlink:href="#linear-gradient-9"/>
    <linearGradient id="linear-gradient-12" x1="-0.354" y1="-98.026" x2="1.035" y2="-98.026" xlink:href="#linear-gradient-9"/>
  </defs>
  <g id="g12972" transform="translate(0.199 0.2)">
    <rect id="rect7000" width="25.95" height="405.912" transform="translate(5.031 94.679)" fill="url(#linear-gradient)"/>
    <rect id="rect7661" width="25.949" height="49.627" transform="translate(5.031 160.912)" fill="url(#linear-gradient-2)"/>
    <rect id="rect7565" width="25.95" height="19.611" transform="translate(5.031 481.066)" fill="url(#linear-gradient-3)"/>
    <path id="path6976" d="M679.689,1008.869a1.208,1.208,0,0,1-.11-.318v-.036h4.713l.017.081c.035.163.035.2,0,.265l-.036.061h-4.547l-.034-.061h0Z" transform="translate(-673.455 -501.534)" fill="#f7f7f7"/>
    <path id="path6978" d="M683.479,1008.842a1.553,1.553,0,0,1-.109-.313c0-.014,1.01-.014,2.428-.014h2.428l-.01.042a1.369,1.369,0,0,1-.1.282l-.041.082h-4.552l-.045-.089Z" transform="translate(-671.977 -501.534)" fill="#f7f7f7"/>
    <path id="path6980" d="M687.158,1009.023s.016-.054.036-.1a2.245,2.245,0,0,0,.1-.356l.01-.05h1.219c1.148,0,1.219,0,1.226.026s.012.058.018.1a2.038,2.038,0,0,0,.063.229c.029.088.052.162.052.165h-1.359c-.748,0-1.359,0-1.359-.014Z" transform="translate(-670.499 -501.535)" fill="#f7f7f7"/>
    <path id="path6982" d="M689.522,1008.842a1.557,1.557,0,0,1-.11-.313c0-.014,1.01-.014,2.427-.014,1.809,0,2.427,0,2.427.018a1.375,1.375,0,0,1-.1.305l-.043.085h-4.552l-.044-.089Z" transform="translate(-669.62 -501.534)" fill="#f7f7f7"/>
    <path id="path6984" d="M693.312,1008.884c-.047-.076-.05-.1-.024-.231.014-.064.024-.121.024-.125s1.065-.014,2.366-.014h2.365l-.01.042a1.686,1.686,0,0,1-.107.3l-.038.074h-4.546l-.031-.05Z" transform="translate(-668.114 -501.535)" fill="#f7f7f7"/>
    <path id="path4668-8" d="M678.825,1003.89l25.81.043.014,4.551-.97,2.434-23.865-.074-.969-2.436Z" transform="translate(-673.75 -503.339)" fill="url(#linear-gradient-4)"/>
    <g id="g7034" transform="translate(9.915 507.652)">
      <g id="g7036" transform="translate(0 0)">
        <path id="path7038" d="M449.745,1030.551c-.267-.662-.62-1.432-.972-2.122l-.137-.268.057-.106c.1-.184.326-.583.463-.812l.049-.08h1.349l.053.088c.118.2.42.727.492.864l.025.048-.071.137c-.384.737-.768,1.573-1.076,2.343l-.052.129h-.09l-.089-.22h0Z" transform="translate(-448.637 -1026.94)" fill="#333" stroke="rgba(255,255,255,0)" stroke-linecap="round" stroke-linejoin="round" stroke-width="0.4"/>
        <path id="path7040" d="M459.551,1030.391c-.267-.662-.62-1.432-.972-2.122l-.137-.268.057-.106c.1-.184.326-.583.463-.812l.049-.081h1.349l.053.088c.118.2.42.727.492.864l.025.047-.071.138c-.383.737-.768,1.573-1.076,2.343l-.052.129h-.09l-.089-.22h0Z" transform="translate(-444.811 -1027.002)" fill="#333" stroke="rgba(255,255,255,0)" stroke-linecap="round" stroke-linejoin="round" stroke-width="0.4"/>
      </g>
      <path id="path7042" d="M453.793,1029.6c.111-.217.318-.6.46-.858l.258-.463-.3-.539-.3-.539h-.523c-.446,0-.523-.015-.523-.057s-.043-.054-.226-.046c-.214.015-.23.018-.3.141l-.075.129.391.752c.215.414.505,1,.644,1.311a4.811,4.811,0,0,0,.276.561,2.528,2.528,0,0,0,.225-.394Z" transform="translate(-447.224 -1026.965)" fill="#333" stroke="rgba(255,255,255,0)" stroke-linecap="round" stroke-linejoin="round" stroke-width="0.4"/>
      <path id="path7044" d="M455.831,1029.583c-.111-.217-.318-.6-.46-.858l-.258-.463.3-.539.3-.539h.523c.446,0,.523-.015.523-.057s.043-.054.226-.046c.214.015.23.018.3.141l.075.129-.391.752c-.215.414-.505,1-.644,1.311a4.792,4.792,0,0,1-.276.561,2.533,2.533,0,0,1-.225-.394Z" transform="translate(-446.11 -1026.973)" fill="#333" stroke="rgba(255,255,255,0)" stroke-linecap="round" stroke-linejoin="round" stroke-width="0.4"/>
      <path id="path7046" d="M452.12,1035.474c0-.018.115-.53.131-.586.241-3.127.491-2.478,1.479-4.375a20.8,20.8,0,0,1,1.046-2.115l.19-.336v-.871h.933v.883l.2.353c.209.369.787,1.5.921,1.81l.078.178a29.724,29.724,0,0,1,1.566,4.717c.032.146.058.285.058.31,0,.046-.005.046-3.3.046-1.816,0-3.3,0-3.3-.015Z" transform="translate(-447.278 -1026.928)" fill="#333" stroke="rgba(255,255,255,0)" stroke-linecap="round" stroke-linejoin="round" stroke-width="0.4"/>
    </g>
    <path id="path7054" d="M678.814,759.61h25.92" transform="translate(-673.754 -598.634)" fill="none" stroke="#000" stroke-width="0.4"/>
    <path id="path7060" d="M692.065,1009.01H690.65" transform="translate(-669.136 -501.341)" fill="none" stroke="#000" stroke-width="0.4"/>
    <path id="path7062" d="M680.76,1014.33h6.827" transform="translate(-672.995 -499.266)" fill="none" stroke="#000" stroke-width="0.4"/>
    <path id="path7064" d="M682.707,1009.01h1.415" transform="translate(-672.235 -501.341)" fill="none" stroke="#000" stroke-width="0.4"/>
    <path id="path7066" d="M684.338,1010.163q-.29-.583-.612-1.15" transform="translate(-671.838 -501.34)" fill="none" stroke="#000" stroke-width="0.4"/>
    <path id="path7068" d="M682.879,1009.01q-.322.566-.612,1.149" transform="translate(-672.407 -501.341)" fill="none" stroke="#000" stroke-width="0.4"/>
    <path id="path7070" d="M686.089,1009.01h1.062" transform="translate(-670.916 -501.341)" fill="none" stroke="#000" stroke-width="0.4"/>
    <path id="path7072" d="M687.772,1010.272q-.294-.6-.621-1.183" transform="translate(-670.501 -501.31)" fill="none" stroke="#000" stroke-width="0.4"/>
    <path id="path7074" d="M686.18,1009.01q-.166.292-.324.589" transform="translate(-671.007 -501.341)" fill="none" stroke="#000" stroke-width="0.4"/>
    <path id="path7076" d="M697.429,1014.33H690.6" transform="translate(-669.155 -499.266)" fill="none" stroke="#000" stroke-width="0.4"/>
    <path id="path7078" d="M693.963,1009.01h-1.415" transform="translate(-668.396 -501.341)" fill="none" stroke="#000" stroke-width="0.4"/>
    <path id="path7080" d="M692.721,1009.01q-.322.566-.612,1.149" transform="translate(-668.567 -501.341)" fill="none" stroke="#000" stroke-width="0.4"/>
    <path id="path7082" d="M694.179,1010.163q-.29-.583-.612-1.149" transform="translate(-667.999 -501.34)" fill="none" stroke="#000" stroke-width="0.4"/>
    <path id="path7084" d="M690.482,1009.01H689.42" transform="translate(-669.616 -501.341)" fill="none" stroke="#000" stroke-width="0.4"/>
    <path id="path7086" d="M686.853,1009.277a1.446,1.446,0,0,0,.3-.951" transform="translate(-670.618 -501.608)" fill="none" stroke="#000" stroke-width="0.4"/>
    <path id="path7088" d="M683.376,1009.01h4.833" transform="translate(-671.974 -501.341)" fill="none" stroke="#000" stroke-width="0.4"/>
    <path id="path7090" d="M689.2,1008.33a1.445,1.445,0,0,0,.3.951" transform="translate(-669.701 -501.607)" fill="none" stroke="#000" stroke-width="0.4"/>
    <path id="path7092" d="M692.9,1009.277a1.446,1.446,0,0,0,.3-.951" transform="translate(-668.26 -501.608)" fill="none" stroke="#000" stroke-width="0.4"/>
    <path id="path7094" d="M687.151,1009.09h2.741" transform="translate(-670.502 -501.31)" fill="none" stroke="#000" stroke-width="0.4"/>
    <path id="path7096" d="M686.344,1009.01c.024.037.049.073.076.108" transform="translate(-670.816 -501.341)" fill="none" stroke="#000" stroke-width="0.4"/>
    <path id="path7098" d="M689.875,1009.12c.027-.035.052-.071.076-.108" transform="translate(-669.439 -501.34)" fill="none" stroke="#000" stroke-width="0.4"/>
    <path id="path7100" d="M686.4,1009.09h4.833" transform="translate(-670.795 -501.31)" fill="none" stroke="#000" stroke-width="0.4"/>
    <path id="path7102" d="M689.347,1009.09q-.327.583-.621,1.183" transform="translate(-669.887 -501.31)" fill="none" stroke="#000" stroke-width="0.4"/>
    <path id="path7104" d="M689.347,1009.09q-.327.583-.621,1.183" transform="translate(-669.887 -501.31)" fill="none" stroke="#000" stroke-width="0.4"/>
    <path id="path7106" d="M690.523,1009.537q-.141-.264-.289-.524" transform="translate(-669.299 -501.34)" fill="none" stroke="#000" stroke-width="0.4"/>
    <path id="path7108" d="M697.46,711.986v336.406" transform="translate(-666.48 -617.213)" fill="none" stroke="#000" stroke-width="0.401"/>
    <path id="path7110" d="M685.952,1014.33q-.137.574-.246,1.155h6.827q-.109-.58-.246-1.155" transform="translate(-671.065 -499.266)" fill="none" stroke="#000" stroke-width="0.4"/>
    <path id="path7112" d="M686.8,1012.51a23.9,23.9,0,0,1,1.18-2.375v-1.047" transform="translate(-670.637 -501.311)" fill="none" stroke="#000" stroke-width="0.4"/>
    <path id="path7114" d="M688.671,1009.09v1.047a23.839,23.839,0,0,1,1.143,2.289" transform="translate(-669.909 -501.31)" fill="none" stroke="#000" stroke-width="0.4"/>
    <path id="path7116" d="M684.915,1013.376a23.872,23.872,0,0,0-1.932-4.368h-1.415a23.865,23.865,0,0,0-2.706,7.391h6.828" transform="translate(-673.735 -501.342)" fill="#333" stroke="#000" stroke-width="0.4"/>
    <path id="path7118" d="M693.057,1008.862a1.445,1.445,0,0,0,.223.412h4.833a1.445,1.445,0,0,0,.3-.951" transform="translate(-668.197 -501.61)" fill="none" stroke="#000" stroke-width="0.4"/>
    <path id="path7120" d="M692.5,1016.4h6.827a23.868,23.868,0,0,0-2.706-7.391h-1.415a23.859,23.859,0,0,0-1.932,4.368" transform="translate(-668.415 -501.34)" fill="#333" stroke="#000" stroke-width="0.4"/>
    <path id="path7122" d="M685.366,1009.01a23.869,23.869,0,0,0-2.706,7.39h6.828a23.869,23.869,0,0,0-2.706-7.39Z" transform="translate(-672.254 -501.341)" fill="#333" stroke="#000" stroke-width="0.4"/>
    <path id="path7138" d="M678.814,1048.392V711.986" transform="translate(-673.754 -617.213)" fill="none" stroke="#000" stroke-width="0.401"/>
    <path id="path7144" d="M704.734,998.507v11.551a4.169,4.169,0,0,1-.68,2.1H679.494a4.169,4.169,0,0,1-.68-2.1V998.507" transform="translate(-673.754 -505.438)" fill="none" stroke="#000" stroke-width="0.4"/>
    <path id="path7171" d="M692.825,1009.01a23.873,23.873,0,0,1,2.706,7.39H688.7a23.868,23.868,0,0,1,2.706-7.39" transform="translate(-669.896 -501.341)" fill="#333" stroke="#000" stroke-width="0.4"/>
    <path id="path7173" d="M689.42,1009.01h4.833" transform="translate(-669.616 -501.341)" fill="none" stroke="#000" stroke-width="0.4"/>
    <path id="path7175" d="M679.363,1008.33a1.445,1.445,0,0,0,.3.951H684.5a1.447,1.447,0,0,0,.223-.412" transform="translate(-673.54 -501.607)" fill="none" stroke="#000" stroke-width="0.4"/>
    <path id="path7177" d="M683.161,1008.33a1.444,1.444,0,0,0,.3.951" transform="translate(-672.059 -501.607)" fill="none" stroke="#000" stroke-width="0.4"/>
    <path id="path7052" d="M678.814,795.3h25.92" transform="translate(-673.754 -584.71)" fill="none" stroke="#000" stroke-width="0.4"/>
    <g id="g9568" transform="translate(13.618 319.599)">
      <path id="path9570" d="M185.126,941.9h-5.377l-.2.149v4.784h1.489v-1.794l.142-.127h3.946c1,0,1.463-.268,1.463-.956v-1.1c0-.689-.467-.957-1.464-.957m0,1.768c0,.324-.214.391-.682.391H181.2l-.159-.154v-1.025l.142-.13h3.265c.467,0,.681.067.681.392v.526Z" transform="translate(-178.766 -930.529)" fill="#005288"/>
      <path id="polyline9572" d="M14.326,3l1.281,1.877-.071.182H12.7l-.723.89H16.2l.292.178.655.9h1.7L15.113,2.038" transform="translate(-11.08 19.242)" fill="#005288"/>
      <g id="g9574" transform="translate(0.936 43.209)">
        <path id="polyline9576" d="M26.277,5.579V4.252l.153-.132h2.85V3.274H24.764V6.551h6.663V5.709H26.437" transform="translate(-24.764 -1.617)" fill="#005288"/>
        <rect id="rect9578" width="6.733" height="0.93" transform="translate(0 0)" fill="#005288"/>
      </g>
      <path id="path9580" d="M181.2,957.649h5.424c-.084-.69-.512-.881-1.6-.881h-3.885c-1.225,0-1.616.239-1.616,1.166v2.6c0,.928.391,1.167,1.616,1.167h3.885c1.1,0,1.523-.207,1.552-.922H181.2l-.16-.15V957.75" transform="translate(-178.774 -924.727)" fill="#005288"/>
      <path id="path9582" d="M185.1,935.641h-3.946l-.116-.128v-.844l.116-.089h5.32l.073-.178c-.181-.466-.65-.683-1.522-.683h-3.7c-1.224,0-1.616.239-1.616,1.166v.545c0,.928.391,1.167,1.616,1.167h3.937l.124.109v.882l-.1.138h-4.5v0H179.6s-.135.068-.13.1c.1.648.542.832,1.6.832H185.1c1.224,0,1.627-.239,1.627-1.167v-.679c0-.927-.4-1.165-1.627-1.165" transform="translate(-178.795 -933.719)" fill="#005288"/>
      <path id="path9584" d="M181.442,973.03h-2.215l-.12.229,2.46,1.793c.466-.27.973-.543,1.524-.813" transform="translate(-178.938 -918.383)" fill="#005288"/>
      <path id="path9586" d="M182.214,975.739l2.162,1.576h2.242l.093-.209-3.228-2.363q-.643.472-1.268,1" transform="translate(-177.726 -917.714)" fill="#005288"/>
      <path id="path9588" d="M181.159,978.6h-2l-.169-.265a28.067,28.067,0,0,1,15.683-6.889,25.066,25.066,0,0,0-13.51,7.155" transform="translate(-178.986 -919.001)" fill="#a7a9ac"/>
    </g>
    <g id="g12454" transform="translate(8.984 223.515)">
      <g id="g12456" transform="translate(2.616 18.209)">
        <rect id="rect12458" width="12.773" height="7.21" fill="#b22234"/>
        <path id="path12460" d="M0,.6H12.773m0,1.109H0M0,2.817H12.773m0,1.109H0M0,5.036H12.773m0,1.109H0" transform="translate(0 0.233)" stroke="#fff" stroke-width="0.385"/>
        <rect id="rect12462" width="5.109" height="3.883" fill="#3c3b6e"/>
        <g id="g12464" transform="translate(0.229 0.166)">
          <g id="g12466">
            <g id="g12468">
              <g id="g12470">
                <g id="g12472">
                  <path id="path12474" d="M.361.12l.122.4L.165.273H.558L.24.521Z" transform="translate(-0.165 -0.12)" fill="#fff"/>
                  <path id="use12476" d="M.361.12l.122.4L.165.273H.558L.24.521Z" transform="translate(-0.165 0.657)" fill="#fff"/>
                  <path id="use12478" d="M.361.12l.122.4L.165.273H.558L.24.521Z" transform="translate(-0.165 1.433)" fill="#fff"/>
                  <path id="use12480" d="M.361.12l.122.4L.165.273H.558L.24.521Z" transform="translate(-0.165 2.21)" fill="#fff"/>
                </g>
                <path id="use12482" d="M.361.12l.122.4L.165.273H.558L.24.521Z" transform="translate(-0.165 2.986)" fill="#fff"/>
              </g>
              <g id="use12484" transform="translate(0.426 0.388)">
                <path id="s" d="M.361.12l.122.4L.165.273H.558L.24.521Z" transform="translate(-0.165 -0.12)" fill="#fff"/>
                <path id="use11040" d="M.361.12l.122.4L.165.273H.558L.24.521Z" transform="translate(-0.165 0.657)" fill="#fff"/>
                <path id="use11042" d="M.361.12l.122.4L.165.273H.558L.24.521Z" transform="translate(-0.165 1.433)" fill="#fff"/>
                <path id="use11044" d="M.361.12l.122.4L.165.273H.558L.24.521Z" transform="translate(-0.165 2.21)" fill="#fff"/>
              </g>
            </g>
            <g id="use12486" transform="translate(0.852)">
              <g id="s5" transform="translate(0)">
                <g id="s4">
                  <path id="s-2" data-name="s" d="M.361.12l.122.4L.165.273H.558L.24.521Z" transform="translate(-0.165 -0.12)" fill="#fff"/>
                  <path id="use11040-2" data-name="use11040" d="M.361.12l.122.4L.165.273H.558L.24.521Z" transform="translate(-0.165 0.657)" fill="#fff"/>
                  <path id="use11042-2" data-name="use11042" d="M.361.12l.122.4L.165.273H.558L.24.521Z" transform="translate(-0.165 1.433)" fill="#fff"/>
                  <path id="use11044-2" data-name="use11044" d="M.361.12l.122.4L.165.273H.558L.24.521Z" transform="translate(-0.165 2.21)" fill="#fff"/>
                </g>
                <path id="use11046" d="M.361.12l.122.4L.165.273H.558L.24.521Z" transform="translate(-0.165 2.986)" fill="#fff"/>
              </g>
              <g id="use11048" transform="translate(0.426 0.388)">
                <path id="s-3" data-name="s" d="M.361.12l.122.4L.165.273H.558L.24.521Z" transform="translate(-0.165 -0.12)" fill="#fff"/>
                <path id="use11040-3" data-name="use11040" d="M.361.12l.122.4L.165.273H.558L.24.521Z" transform="translate(-0.165 0.657)" fill="#fff"/>
                <path id="use11042-3" data-name="use11042" d="M.361.12l.122.4L.165.273H.558L.24.521Z" transform="translate(-0.165 1.433)" fill="#fff"/>
                <path id="use11044-3" data-name="use11044" d="M.361.12l.122.4L.165.273H.558L.24.521Z" transform="translate(-0.165 2.21)" fill="#fff"/>
              </g>
            </g>
          </g>
          <g id="use12488" transform="translate(1.703)">
            <g id="s9" transform="translate(0)">
              <g id="s5-2" data-name="s5">
                <g id="s4-2" data-name="s4">
                  <path id="s-4" data-name="s" d="M.361.12l.122.4L.165.273H.558L.24.521Z" transform="translate(-0.165 -0.12)" fill="#fff"/>
                  <path id="use11040-4" data-name="use11040" d="M.361.12l.122.4L.165.273H.558L.24.521Z" transform="translate(-0.165 0.657)" fill="#fff"/>
                  <path id="use11042-4" data-name="use11042" d="M.361.12l.122.4L.165.273H.558L.24.521Z" transform="translate(-0.165 1.433)" fill="#fff"/>
                  <path id="use11044-4" data-name="use11044" d="M.361.12l.122.4L.165.273H.558L.24.521Z" transform="translate(-0.165 2.21)" fill="#fff"/>
                </g>
                <path id="use11046-2" data-name="use11046" d="M.361.12l.122.4L.165.273H.558L.24.521Z" transform="translate(-0.165 2.986)" fill="#fff"/>
              </g>
              <g id="use11048-2" data-name="use11048" transform="translate(0.426 0.388)">
                <path id="s-5" data-name="s" d="M.361.12l.122.4L.165.273H.558L.24.521Z" transform="translate(-0.165 -0.12)" fill="#fff"/>
                <path id="use11040-5" data-name="use11040" d="M.361.12l.122.4L.165.273H.558L.24.521Z" transform="translate(-0.165 0.657)" fill="#fff"/>
                <path id="use11042-5" data-name="use11042" d="M.361.12l.122.4L.165.273H.558L.24.521Z" transform="translate(-0.165 1.433)" fill="#fff"/>
                <path id="use11044-5" data-name="use11044" d="M.361.12l.122.4L.165.273H.558L.24.521Z" transform="translate(-0.165 2.21)" fill="#fff"/>
              </g>
            </g>
            <g id="use11050" transform="translate(0.852)">
              <g id="s5-3" data-name="s5" transform="translate(0)">
                <g id="s4-3" data-name="s4">
                  <path id="s-6" data-name="s" d="M.361.12l.122.4L.165.273H.558L.24.521Z" transform="translate(-0.165 -0.12)" fill="#fff"/>
                  <path id="use11040-6" data-name="use11040" d="M.361.12l.122.4L.165.273H.558L.24.521Z" transform="translate(-0.165 0.657)" fill="#fff"/>
                  <path id="use11042-6" data-name="use11042" d="M.361.12l.122.4L.165.273H.558L.24.521Z" transform="translate(-0.165 1.433)" fill="#fff"/>
                  <path id="use11044-6" data-name="use11044" d="M.361.12l.122.4L.165.273H.558L.24.521Z" transform="translate(-0.165 2.21)" fill="#fff"/>
                </g>
                <path id="use11046-3" data-name="use11046" d="M.361.12l.122.4L.165.273H.558L.24.521Z" transform="translate(-0.165 2.986)" fill="#fff"/>
              </g>
              <g id="use11048-3" data-name="use11048" transform="translate(0.426 0.388)">
                <path id="s-7" data-name="s" d="M.361.12l.122.4L.165.273H.558L.24.521Z" transform="translate(-0.165 -0.12)" fill="#fff"/>
                <path id="use11040-7" data-name="use11040" d="M.361.12l.122.4L.165.273H.558L.24.521Z" transform="translate(-0.165 0.657)" fill="#fff"/>
                <path id="use11042-7" data-name="use11042" d="M.361.12l.122.4L.165.273H.558L.24.521Z" transform="translate(-0.165 1.433)" fill="#fff"/>
                <path id="use11044-7" data-name="use11044" d="M.361.12l.122.4L.165.273H.558L.24.521Z" transform="translate(-0.165 2.21)" fill="#fff"/>
              </g>
            </g>
          </g>
          <g id="use12490" transform="translate(3.406)">
            <g id="s5-4" data-name="s5" transform="translate(0)">
              <g id="s4-4" data-name="s4">
                <path id="s-8" data-name="s" d="M.361.12l.122.4L.165.273H.558L.24.521Z" transform="translate(-0.165 -0.12)" fill="#fff"/>
                <path id="use11040-8" data-name="use11040" d="M.361.12l.122.4L.165.273H.558L.24.521Z" transform="translate(-0.165 0.657)" fill="#fff"/>
                <path id="use11042-8" data-name="use11042" d="M.361.12l.122.4L.165.273H.558L.24.521Z" transform="translate(-0.165 1.433)" fill="#fff"/>
                <path id="use11044-8" data-name="use11044" d="M.361.12l.122.4L.165.273H.558L.24.521Z" transform="translate(-0.165 2.21)" fill="#fff"/>
              </g>
              <path id="use11046-4" data-name="use11046" d="M.361.12l.122.4L.165.273H.558L.24.521Z" transform="translate(-0.165 2.986)" fill="#fff"/>
            </g>
            <g id="use11048-4" data-name="use11048" transform="translate(0.426 0.388)">
              <path id="s-9" data-name="s" d="M.361.12l.122.4L.165.273H.558L.24.521Z" transform="translate(-0.165 -0.12)" fill="#fff"/>
              <path id="use11040-9" data-name="use11040" d="M.361.12l.122.4L.165.273H.558L.24.521Z" transform="translate(-0.165 0.657)" fill="#fff"/>
              <path id="use11042-9" data-name="use11042" d="M.361.12l.122.4L.165.273H.558L.24.521Z" transform="translate(-0.165 1.433)" fill="#fff"/>
              <path id="use11044-9" data-name="use11044" d="M.361.12l.122.4L.165.273H.558L.24.521Z" transform="translate(-0.165 2.21)" fill="#fff"/>
            </g>
          </g>
          <g id="use12492" transform="translate(4.258)">
            <g id="s4-5" data-name="s4" transform="translate(0)">
              <path id="s-10" data-name="s" d="M.361.12l.122.4L.165.273H.558L.24.521Z" transform="translate(-0.165 -0.12)" fill="#fff"/>
              <path id="use11040-10" data-name="use11040" d="M.361.12l.122.4L.165.273H.558L.24.521Z" transform="translate(-0.165 0.657)" fill="#fff"/>
              <path id="use11042-10" data-name="use11042" d="M.361.12l.122.4L.165.273H.558L.24.521Z" transform="translate(-0.165 1.433)" fill="#fff"/>
              <path id="use11044-10" data-name="use11044" d="M.361.12l.122.4L.165.273H.558L.24.521Z" transform="translate(-0.165 2.21)" fill="#fff"/>
            </g>
            <path id="use11046-5" data-name="use11046" d="M.361.12l.122.4L.165.273H.558L.24.521Z" transform="translate(-0.165 2.986)" fill="#fff"/>
          </g>
        </g>
      </g>
      <g id="g12494" transform="translate(0 0)">
        <g id="g12496" transform="translate(0.203)">
          <path id="path12498" d="M-34.551,13.92a12.417,12.417,0,0,1,1.308-.629c-5.1-2.685-5.388-4.7-6.436-6.827.807,2.46,1.481,4.915,5.128,7.457Z" transform="translate(39.678 -6.463)" fill="#a80126" fill-rule="evenodd"/>
          <path id="path12500" d="M-37.9,8.928a15.87,15.87,0,0,0,4.876,3.137c1.231-.657,5.3-1.014,5.214-.087a2.168,2.168,0,0,0-1.925-.069,5.712,5.712,0,0,1,1.126-.007.891.891,0,0,1-.263.2,2.99,2.99,0,0,1,.9.321c.168-.016.278-.012.329.04a1.1,1.1,0,0,0-.479.414c1.131.032,2.336.021,2.463,1.214.357-1.057-.281-1.606-1.525-1.847a6.041,6.041,0,0,0-.681-1.021c-3.4-.19-6.8-.421-10.034-2.294Z" transform="translate(40.371 -5.502)" fill="#a80126" fill-rule="evenodd"/>
        </g>
        <path id="path12502" d="M651.1,652.893v-2.059h1.378a.477.477,0,0,1-.217.192H651.4v.542h.77a.343.343,0,0,1-.174.153h-.6v.734A.929.929,0,0,1,651.1,652.893Z" transform="translate(-651.1 -641.244)" fill-rule="evenodd"/>
        <path id="path12504" d="M654.11,651.065v1.506h.391v-1.418a1.054,1.054,0,0,0-1.589,0v1.418h.354v-.832h.279a.319.319,0,0,0,.137-.12h-.41v-.548a.629.629,0,0,1,.838-.006Z" transform="translate(-650.393 -641.26)" fill-rule="evenodd"/>
        <path id="path12506" d="M657.158,652.594H655.57v-1.736h.4v1.593h1.4C657.306,652.5,657.276,652.576,657.158,652.594Z" transform="translate(-649.356 -641.234)" fill-rule="evenodd"/>
        <path id="path12508" d="M658.583,650.834v.341c-.638.865.449,1.9,1.672,1.142l.092-.019c-.758.856-3.537.161-1.765-1.464Z" transform="translate(-648.407 -641.243)" fill-rule="evenodd"/>
        <path id="path12510" d="M657.816,651.1v.628c.61-1.1,1.456-1.646,4.045-.917C659.377,649.834,658.455,650.345,657.816,651.1Z" transform="translate(-648.479 -641.463)" fill-rule="evenodd"/>
        <path id="path12512" d="M610.595,123.9a1,1,0,0,0-1.036,1.011,1.036,1.036,0,0,0,2.072,0A.97.97,0,0,0,610.595,123.9Zm0,.137c.308,0,.617.285.619.874.006,1.178-1.219,1.152-1.227,0C609.977,124.333,610.282,124.038,610.59,124.034Z" transform="translate(-596.434 -114.443)" fill-rule="evenodd"/>
        <path id="path12514" d="M663.509,651.054v1.564H663.2v-1.642l.31-.15,0,.071a1.165,1.165,0,0,1,.9.328v1.408h-.3v-1.383c-.111-.184-.234-.23-.6-.234Z" transform="translate(-646.379 -641.246)" fill-rule="evenodd"/>
        <path id="path12516" d="M607.274,126.147c-3.194.015-2.367,2.576-.6,2.525a1.621,1.621,0,0,0,1.53-.7c-.345,1.727-1.517,1.727-2.928,1.865a.833.833,0,0,0-.335.328c2.4-.048,4.405-.475,4.347-2.334C609.246,126.531,608.375,126.142,607.274,126.147Zm-.048.31a.852.852,0,1,1-1.052.829.962.962,0,0,1,1.052-.829Z" transform="translate(-598.236 -113.566)" fill-rule="evenodd"/>
      </g>
    </g>
    <path id="path9116" d="M697.762,795.651l1.782,3.072v29.612l-.737,4.792v245.222l-1.349,5.126v-46.569l-.7-2.259v-4l.655-2.443v-22.144l-.766-2.86v-5.741l.633-2.954v-153l-.608-3.388v-42.4Z" transform="translate(-666.796 -584.574)" fill="#101010" stroke="#000" stroke-linecap="round" stroke-linejoin="round" stroke-width="0.4" fill-rule="evenodd"/>
    <path id="path7050" d="M678.814,1003.94h25.92" transform="translate(-673.754 -503.319)" fill="none" stroke="#000" stroke-width="0.4"/>
    <path id="path7659" d="M678.814,989.937h25.92" transform="translate(-673.754 -508.782)" fill="none" stroke="#000" stroke-width="0.4"/>
    <g id="g8452" transform="translate(1.775 425.24)">
      <rect id="rect6974" width="0.662" height="0.63" transform="translate(2.49 75.924)" fill="#101010"/>
      <path id="path7026" d="M595.5,949.713l-.082.006-.084.014-.084.022-.084.03-.084.041-.087.046-.087.057-.087.065-.09.073-.09.084-.092.092-.092.106-.095.117-.1.128-.1.138-.1.152-.1.166-.1.177-.1.19-.106.2-.106.212-.106.22-.106.225-.1.231-.1.236-.1.236-.1.242-.1.239-.092.239-.087.236-.084.234-.079.234-.076.231-.071.231-.062.231-.06.231-.054.234-.049.234-.035.2-.019.049-.041.106-.038.106-.073.209-.068.2-.065.2-.057.2-.057.193-.054.19-.052.19-.049.188-.049.19-.046.193-.043.2-.043.2-.043.206-.019.106-.022.106-.022.111-.019.111-.022.117-.019.117-.022.119-.019.122-.019.128-.022.128-.008.068,0,.016,0,.008v.014l0,.041-.019.625-.084,2.509-.337,10.027-.668,20.053-.671,20.053-.334,10.027-.006.155,0,.079v.014h0l0,.017.006.032.014.065.024.128.03.131.03.131.032.13.038.131.038.131.046.131.046.128.054.128.06.128.062.128.071.128.076.125.084.122.09.122.1.123.052.06.054.06.057.057.057.06.06.057.063.06.065.057.068.057.071.054.071.057.073.054.079.054.079.054.081.054.084.051.09.054.09.051.046.022h.09l.011-.014.014-.014.011-.017.011-.017.011-.02.008-.025h0l0-.014,0-.022.005-.043.019-.177.043-.358.041-.361.041-.364.041-.366.041-.372.041-.372.041-.375.041-.38.041-.38.041-.383.081-.768.081-.777.081-.779.081-.782.168-1.566.081-.779.087-.776.084-.768.043-.383.043-.383.043-.377.046-.377.043-.372.043-.372.046-.367.046-.364.046-.361.046-.358.046-.356.046-.348.049-.348.046-.339.049-.337.049-.334.052-.326.049-.323.049-.315.052-.312.052-.3.052-.3.065-.2.109-.214.152-.225.187-.223.223-.212.252-.19.274-.157.3-.117.312-.062h.326l.334.073.337.155.562,1.469.589,1.621.587,1.621.589,1.621.586,1.621.589,1.621.586,1.621.589,1.621.586,1.624.589,1.621.586,1.621.589,1.621.149.394.027.049.03.046.033.04.035.04.038.035.038.032.038.031.043.026.041.022.043.022.043.019.046.014.046.014.044.014h.421l.073-.035.073-.068.071-.1.068-.131.065-.157.06-.177.057-.2.052-.209.046-.22.041-.225.033-.228-.266-2.533-.624-5.305-.625-5.3-.624-5.305-.624-5.3-.622-5.305-.624-5.3-.625-5.305-.624-5.3-.622-5.305-.625-5.3L598,964.171l-.407-3.592-.006-.347,0-.35,0-.347,0-.348,0-.35,0-.348,0-.35,0-.348,0-.347,0-.35,0-.347-.014-.437-.049-.679-.052-.614-.052-.557-.052-.5-.057-.451-.054-.4-.057-.364-.057-.323-.06-.291-.06-.261-.062-.239-.063-.217-.062-.2-.065-.185-.062-.168-.068-.155-.065-.141-.068-.127-.071-.117-.068-.1-.073-.092-.071-.081-.073-.073-.073-.062-.076-.054-.076-.043-.076-.038-.079-.027-.079-.019-.079-.011Z" transform="translate(-588.951 -949.713)" fill="url(#linear-gradient-5)"/>
      <path id="path8389" d="M591.065,1013.556l.956-8.732.239-2.737.847-6.429.13-.891.456-.739.586-.521.586-.261.608-.065.413.065.369.282,7.081,19.635.413.369.478.086-.022-.325L593.52,984.559l-.521-.586-.565-.369-.586.152-.239.717-2.237,27.672.543.7.543.5Z" transform="translate(-588.787 -936.492)" fill-rule="evenodd" fill="url(#linear-gradient-6)"/>
      <path id="path7126" d="M595.625,955.077l-1.715-1.817" transform="translate(-587.016 -948.329)" fill="none" stroke="#000" stroke-width="0.4"/>
      <path id="path7128" d="M594.858,953.259l-3.378.011" transform="translate(-587.964 -948.33)" fill="none" stroke="#000" stroke-width="0.4"/>
      <path id="path7130" d="M591.391,993.033l.243-33.529" transform="translate(-587.998 -945.893)" fill="none" stroke="#000" stroke-width="0.4"/>
      <path id="path7132" d="M591.565,960.646l3-4.066" transform="translate(-587.931 -947.034)" fill="none" stroke="#000" stroke-width="0.4"/>
      <path id="path7134" d="M591.968,960.548l-1.435-3.717" transform="translate(-588.333 -946.936)" fill="none" stroke="#000" stroke-width="0.4"/>
      <path id="path7136" d="M593.726,957.875l.256-4.615" transform="translate(-587.088 -948.329)" fill="none" stroke="#000" stroke-linecap="round" stroke-width="0.4"/>
      <path id="path7140" d="M590.7,1004.25h.853" transform="translate(-588.268 -928.438)" fill="none" stroke="#000" stroke-width="0.4"/>
      <path id="path7142" d="M590.625,1004.91h.958" transform="translate(-588.297 -928.18)" fill="none" stroke="#000" stroke-width="0.4"/>
      <path id="path7150" d="M589.382,1012.172l.165-2.088.165-2.088.165-2.088.165-2.088.165-2.088.165-2.088.165-2.088.165-2.087.165-2.088.165-2.088.165-2.088.164-2.088.165-2.088.069-.662.046-.166.055-.142.062-.12.069-.1.075-.079.08-.06.084-.043.087-.026.09-.014h.091l.091.014.091.025.089.035.088.045.086.053.083.06.081.065.079.072.077.076.074.081.071.083.069.086.066.088.063.089.061.089.246.612.81,2.181.81,2.182.81,2.181.81,2.182.81,2.182.81,2.181.81,2.182.81,2.182.81,2.181.81,2.182.81,2.181.81,2.182.81,2.181" transform="translate(-588.782 -936.485)" fill="none" stroke="#000" stroke-width="0.4"/>
      <path id="path8391" d="M595.5,949.713l-.082.006-.084.014-.084.022-.084.03-.084.041-.087.046-.087.057-.087.065-.09.073-.09.084-.092.092-.092.106-.095.117-.1.128-.1.138-.1.152-.1.166-.1.177-.1.19-.106.2-.106.212-.106.22-.106.225-.1.231-.1.236-.1.236-.1.242-.1.239-.092.239-.087.236-.084.234-.079.234-.076.231-.071.231-.062.231-.06.231-.054.234-.049.234-.035.2-.019.049-.041.106-.038.106-.073.209-.068.2-.065.2-.057.2-.057.193-.054.19-.052.19-.049.188-.049.19-.046.193-.043.2-.043.2-.043.206-.019.106-.022.106-.022.111-.019.111-.022.117-.019.117-.022.119-.019.122-.019.128-.022.128-.008.068,0,.016,0,.008v.014l0,.041-.019.625-.084,2.509-.337,10.027-.668,20.053-.671,20.053-.334,10.027-.006.155,0,.079v.014h0l0,.017.006.032.014.065.024.128.03.131.03.131.032.13.038.131.038.131.046.131.046.128.054.128.06.128.062.128.071.128.076.125.084.122.09.122.1.123.052.06.054.06.057.057.057.06.06.057.063.06.065.057.068.057.071.054.071.057.073.054.079.054.079.054.081.054.084.051.09.054.09.051.046.022h.09l.011-.014.014-.014.011-.017.011-.017.011-.02.008-.025h0l0-.014,0-.022.005-.043.019-.177.043-.358.041-.361.041-.364.041-.366.041-.372.041-.372.041-.375.041-.38.041-.38.041-.383.081-.768.081-.777.081-.779.081-.782.168-1.566.081-.779.087-.776.084-.768.043-.383.043-.383.043-.377.046-.377.043-.372.043-.372.046-.367.046-.364.046-.361.046-.358.046-.356.046-.348.049-.348.046-.339.049-.337.049-.334.052-.326.049-.323.049-.315.052-.312.052-.3.052-.3.065-.2.109-.214.152-.225.187-.223.223-.212.252-.19.274-.157.3-.117.312-.062h.326l.334.073.337.155.562,1.469.589,1.621.587,1.621.589,1.621.586,1.621.589,1.621.586,1.621.589,1.621.586,1.624.589,1.621.586,1.621.589,1.621.149.394.027.049.03.046.033.04.035.04.038.035.038.032.038.031.043.026.041.022.043.022.043.019.046.014.046.014.044.014h.421l.073-.035.073-.068.071-.1.068-.131.065-.157.06-.177.057-.2.052-.209.046-.22.041-.225.033-.228-.266-2.533-.624-5.305-.625-5.3-.624-5.305-.624-5.3-.622-5.305-.624-5.3-.625-5.305-.624-5.3-.622-5.305-.625-5.3L598,964.171l-.407-3.592-.006-.347,0-.35,0-.347,0-.348,0-.35,0-.348,0-.35,0-.348,0-.347,0-.35,0-.347-.014-.437-.049-.679-.052-.614-.052-.557-.052-.5-.057-.451-.054-.4-.057-.364-.057-.323-.06-.291-.06-.261-.062-.239-.063-.217-.062-.2-.065-.185-.062-.168-.068-.155-.065-.141-.068-.127-.071-.117-.068-.1-.073-.092-.071-.081-.073-.073-.073-.062-.076-.054-.076-.043-.076-.038-.079-.027-.079-.019-.079-.011Z" transform="translate(-588.951 -949.713)" fill="none" stroke="#000" stroke-width="0.4"/>
    </g>
    <g id="g8480" transform="translate(34.266 502.368) rotate(180)">
      <rect id="rect8454" width="0.662" height="0.63" transform="translate(2.49 0.574)" fill="#101010"/>
      <path id="path8456" d="M6.552,77.084l-.081-.006-.084-.014L6.3,77.042l-.084-.03-.084-.041-.087-.046-.087-.057L5.874,76.8l-.09-.073-.09-.084L5.6,76.554l-.092-.106-.1-.117-.1-.128-.1-.138-.1-.152-.1-.166-.1-.176-.1-.19-.106-.2L4.6,74.968l-.106-.22-.106-.225-.1-.231-.1-.236-.1-.236-.1-.242-.1-.239L3.8,73.1l-.087-.236-.084-.234L3.546,72.4l-.076-.231L3.4,71.935,3.337,71.7l-.06-.231-.054-.234-.049-.234-.035-.2-.019-.049-.041-.106-.038-.106-.073-.209-.068-.2-.065-.2-.057-.2-.057-.193-.054-.19-.052-.19-.049-.187-.049-.19-.046-.193-.043-.2-.043-.2-.043-.206-.019-.106L2.3,67.779l-.022-.111-.019-.111-.022-.117-.019-.117L2.2,67.2l-.019-.122-.019-.128-.022-.128-.008-.068,0-.016,0-.008v-.014l0-.041L2.1,66.054l-.084-2.509L1.681,53.519,1.013,33.465.342,13.412.008,3.385,0,3.23l0-.079V3.137H0l0-.017.006-.032.014-.065L.047,2.9l.03-.131.03-.131L.139,2.5l.038-.131.038-.131.046-.131.046-.128.054-.128.06-.128L.484,1.6l.071-.128L.63,1.347l.084-.122L.8,1.1.9.98.954.92,1.008.86,1.065.8l.057-.06.06-.057.062-.06L1.309.57,1.377.513,1.448.458,1.518.4,1.592.347,1.67.293,1.749.239,1.83.185,1.915.133,2,.079l.09-.051L2.14.005h.09l.011.014.014.014L2.266.05l.011.017.011.019L2.3.111h0l0,.014,0,.022L2.311.19,2.33.367l.043.358.041.361.041.364.041.367.041.372.041.372.041.375.041.38L2.7,3.7l.041.383.081.768.081.776.081.779.081.782L3.234,8.75l.081.779.087.776.084.768.043.383.043.383.043.377.046.377.043.372.043.372.046.367.046.364.046.361.046.358.046.356.046.348.049.348.046.339.049.337.049.334.052.326.049.323.049.315.052.312.052.3.052.3.065.2.109.215.152.225.187.223.223.212.253.19.274.157.3.117.312.062h.326l.334-.073.337-.155.562-1.469.589-1.621.586-1.621.589-1.621.586-1.621.589-1.621.586-1.621.589-1.621.586-1.624.589-1.621.586-1.621L14.422.8,14.572.4,14.6.356l.03-.046.033-.04L14.7.229l.038-.035.038-.032L14.81.132l.043-.026.041-.022.043-.022.043-.019.046-.014.046-.014L15.117,0h.421l.073.035L15.684.1l.071.1.068.131.065.157.06.176.057.2.052.209.046.22.041.225.033.228-.266,2.533-.624,5.305-.624,5.3-.624,5.305-.624,5.3L12.79,30.8l-.624,5.3-.624,5.305-.624,5.3-.622,5.305-.624,5.3-.624,5.305-.407,3.592-.006.347,0,.35,0,.347,0,.348,0,.35,0,.348,0,.35,0,.348,0,.347,0,.35,0,.347-.014.437-.049.679-.052.614-.052.557-.052.5-.057.451-.054.4-.057.364-.057.323-.06.29-.06.261-.062.239-.062.217-.062.2-.065.185-.062.168-.068.155-.065.141-.068.128-.071.117-.068.1-.073.092-.071.081-.073.073L7.1,76.89l-.076.054-.076.043-.076.038-.079.027-.079.019-.079.011Z" transform="translate(0 0.044)" fill="url(#linear-gradient-5)"/>
      <path id="path8458" d="M1.694.064,2.65,8.8l.239,2.737.847,6.429.13.891.456.739.586.521.586.261.608.065.413-.065.369-.282L13.966.456l.413-.369L14.857,0l-.022.325L4.149,29.061l-.521.586-.565.369-.586-.152-.239-.717L0,1.476l.543-.7.543-.5Z" transform="translate(0.585)" fill-rule="evenodd" fill="url(#linear-gradient-8)"/>
      <path id="path8460" d="M1.716,0,0,1.817" transform="translate(6.894 70.38)" fill="none" stroke="#000" stroke-width="0.4"/>
      <path id="path8462" d="M3.378.011,0,0" transform="translate(3.516 72.188)" fill="none" stroke="#000" stroke-width="0.4"/>
      <path id="path8464" d="M0,0,.243,33.529" transform="translate(3.393 29.988)" fill="none" stroke="#000" stroke-width="0.4"/>
      <path id="path8466" d="M0,0,3,4.066" transform="translate(3.634 63.516)" fill="none" stroke="#000" stroke-width="0.4"/>
      <path id="path8468" d="M1.435,0,0,3.717" transform="translate(2.199 63.516)" fill="none" stroke="#000" stroke-width="0.4"/>
      <path id="path8470" d="M0,0,.256,4.616" transform="translate(6.638 67.582)" fill="none" stroke="#000" stroke-linecap="round" stroke-width="0.4"/>
      <path id="path8472" d="M0,0H.853" transform="translate(2.432 1.316)" fill="none" stroke="#000" stroke-width="0.4"/>
      <path id="path8474" d="M0,0H.958" transform="translate(2.328 0.398)" fill="none" stroke="#000" stroke-width="0.4"/>
      <path id="path8476" d="M0,1.381.165,3.469.329,5.557.494,7.644.658,9.732.823,11.82l.165,2.088.165,2.088.165,2.088.165,2.088.165,2.088.165,2.088.165,2.088L2.14,28.52l.069.662.046.166.055.142.062.12.069.1.075.079.08.06.084.043.087.026.09.014h.091l.091-.014.091-.025.089-.035.088-.044.086-.053.083-.06.081-.065.079-.072.077-.076.074-.081.071-.083.069-.086.066-.088.063-.089.061-.089.246-.612.81-2.182L5.984,24l.81-2.182.81-2.182.81-2.182.81-2.181.81-2.182.81-2.182.81-2.181.81-2.182.81-2.181.81-2.182L14.9,0" transform="translate(0.6 0.059)" fill="none" stroke="#000" stroke-width="0.4"/>
      <path id="path8478" d="M6.552,77.084l-.081-.006-.084-.014L6.3,77.042l-.084-.03-.084-.041-.087-.046-.087-.057L5.874,76.8l-.09-.073-.09-.084L5.6,76.554l-.092-.106-.1-.117-.1-.128-.1-.138-.1-.152-.1-.166-.1-.176-.1-.19-.106-.2L4.6,74.968l-.106-.22-.106-.225-.1-.231-.1-.236-.1-.236-.1-.242-.1-.239L3.8,73.1l-.087-.236-.084-.234L3.546,72.4l-.076-.231L3.4,71.935,3.337,71.7l-.06-.231-.054-.234-.049-.234-.035-.2-.019-.049-.041-.106-.038-.106-.073-.209-.068-.2-.065-.2-.057-.2-.057-.193-.054-.19-.052-.19-.049-.187-.049-.19-.046-.193-.043-.2-.043-.2-.043-.206-.019-.106L2.3,67.779l-.022-.111-.019-.111-.022-.117-.019-.117L2.2,67.2l-.019-.122-.019-.128-.022-.128-.008-.068,0-.016,0-.008v-.014l0-.041L2.1,66.054l-.084-2.509L1.681,53.519,1.013,33.465.342,13.412.008,3.385,0,3.23l0-.079V3.137H0l0-.017.006-.032.014-.065L.047,2.9l.03-.131.03-.131L.139,2.5l.038-.131.038-.131.046-.131.046-.128.054-.128.06-.128L.484,1.6l.071-.128L.63,1.347l.084-.122L.8,1.1.9.98.954.92,1.008.86,1.065.8l.057-.06.06-.057.062-.06L1.309.57,1.377.513,1.448.458,1.518.4,1.592.347,1.67.293,1.749.239,1.83.185,1.915.133,2,.079l.09-.051L2.14.005h.09l.011.014.014.014L2.266.05l.011.017.011.019L2.3.111h0l0,.014,0,.022L2.311.19,2.33.367l.043.358.041.361.041.364.041.367.041.372.041.372.041.375.041.38L2.7,3.7l.041.383.081.768.081.776.081.779.081.782L3.234,8.75l.081.779.087.776.084.768.043.383.043.383.043.377.046.377.043.372.043.372.046.367.046.364.046.361.046.358.046.356.046.348.049.348.046.339.049.337.049.334.052.326.049.323.049.315.052.312.052.3.052.3.065.2.109.215.152.225.187.223.223.212.253.19.274.157.3.117.312.062h.326l.334-.073.337-.155.562-1.469.589-1.621.586-1.621.589-1.621.586-1.621.589-1.621.586-1.621.589-1.621.586-1.624.589-1.621.586-1.621L14.422.8,14.572.4,14.6.356l.03-.046.033-.04L14.7.229l.038-.035.038-.032L14.81.132l.043-.026.041-.022.043-.022.043-.019.046-.014.046-.014L15.117,0h.421l.073.035L15.684.1l.071.1.068.131.065.157.06.176.057.2.052.209.046.22.041.225.033.228-.266,2.533-.624,5.305-.624,5.3-.624,5.305-.624,5.3L12.79,30.8l-.624,5.3-.624,5.305-.624,5.3-.622,5.305-.624,5.3-.624,5.305-.407,3.592-.006.347,0,.35,0,.347,0,.348,0,.35,0,.348,0,.35,0,.348,0,.347,0,.35,0,.347-.014.437-.049.679-.052.614-.052.557-.052.5-.057.451-.054.4-.057.364-.057.323-.06.29-.06.261-.062.239-.062.217-.062.2-.065.185-.062.168-.068.155-.065.141-.068.128-.071.117-.068.1-.073.092-.071.081-.073.073L7.1,76.89l-.076.054-.076.043-.076.038-.079.027-.079.019-.079.011Z" transform="translate(0 0.044)" fill="none" stroke="#000" stroke-width="0.4"/>
    </g>
    <g id="g8572" transform="translate(0 0)">
      <g id="g7006" transform="translate(0.169 0.241)">
        <g id="g7008" transform="translate(0 0)">
          <path id="path7010" d="M224.073,192.435c-.09-1.385-.121-13.688-.07-27.338.1-26.974.087-26.633,1.563-33.532a40.02,40.02,0,0,1,10.336-19.89c2.151-2.307,3.873-3.458,5.182-3.464l.553,0v86.746h-17.4l-.164-2.519Z" transform="translate(-223.978 -108.208)" fill="url(#linear-gradient-9)"/>
          <path id="path7012" d="M228.877,179.5c-.132-.169-1.045-1.8-2.03-3.625s-2.006-3.677-2.269-4.116l-.478-.8h17.488v8.847h-6.236C230.655,179.811,229.057,179.735,228.877,179.5Z" transform="translate(-223.93 -83.726)" fill="url(#linear-gradient-10)"/>
        </g>
        <g id="g7014" transform="translate(35.771 96.085) rotate(180)">
          <path id="path7016" d="M.095,2.519C0,3.9-.027,16.206.025,29.857c.1,26.974.087,26.633,1.563,33.532a40.021,40.021,0,0,0,10.336,19.89c2.151,2.307,3.873,3.458,5.182,3.464l.553,0V0H.259L.095,2.519Z" transform="translate(0 9.339)" fill="url(#linear-gradient-11)"/>
          <path id="path7018" d="M4.776.307c-.132.169-1.045,1.8-2.03,3.625S.74,7.609.478,8.048L0,8.847H17.488V0H11.251C6.554,0,4.956.076,4.776.307Z" transform="translate(0.172)" fill="url(#linear-gradient-12)"/>
        </g>
      </g>
      <path id="path7048" d="M492.642,731.219h25.92" transform="translate(-487.582 -634.732)" fill="none" stroke="#000" stroke-width="0.4"/>
      <path id="path7056" d="M489,724.544h36.039" transform="translate(-489.002 -637.336)" fill="none" stroke="#000" stroke-width="0.4"/>
      <path id="path7058" d="M494.062,758.3l-.541-.992-.541-.992-.541-.992-.541-.992-.541-.992-.541-.992-.541-.992-.541-.992-.541-.992-.19-3.982V700.562l.021-4.158.069-.736.07-.736.072-.736.075-.737.078-.736.083-.737.088-.737.094-.737.1-.737.108-.737.116-.737.124-.737.133-.736.142-.734.151-.732.161-.73.171-.727.181-.724.191-.72.2-.716.213-.712.225-.707.236-.7.248-.7.261-.69.273-.683.287-.676.3-.668.313-.661.326-.654.339-.647.352-.641.365-.634.377-.628.39-.623.4-.617.414-.612.427-.607.439-.6.451-.6.463-.595.474-.591.486-.587.5-.584.509-.582.52-.578.533-.569.549-.547.568-.513.591-.467.616-.409.645-.339.677-.257.712-.164.751-.091h.786l.752.091.712.163.677.256.645.338.616.409.591.467.569.513.549.547.533.569.52.579.508.581.5.584.486.588.474.591.462.595.45.6.439.6.427.607.414.612.4.617.39.623.377.628.365.634.352.64.34.647.327.654.314.661.3.668.288.675.275.683.263.689.25.7.238.7.226.707.215.712.2.716.192.72.181.724.171.727.161.73.151.732.141.734.131.736.122.737.113.737.1.738.1.738.088.738.081.738.076.737.071.737.067.737.064.737.062.737.061.737.018,4.158v44.822l-.19,3.982-.541.992-.541.992-.541.992-.541.992-.541.992-.541.992-.541.992-.541.992-.541.992" transform="translate(-489.002 -661.809)" fill="none" stroke="#000" stroke-width="0.4"/>
      <path id="path7124" d="M501.965,758.3V661.81" transform="translate(-483.945 -661.809)" fill="none" stroke="#000" stroke-width="0.4"/>
    </g>
    <g id="g5116" transform="translate(3.913 202.607)">
      <g id="g4962" transform="translate(19.054 0)">
        <path id="path4347" d="M695.968,789.992l1.137.532.31,1.246-.8,1.03-1.491.077-.847-.941.213-1.164.605-.7Z" transform="translate(-690.69 -789.389)" fill="#1a1a1a" fill-rule="evenodd"/>
        <path id="path4343" d="M694.513,792.182l-.732-.092-1.8,2.214-.028,1.292-.225,1.076.281,1.169-.253,1.292.169,1.076-.2.953.281.953-.253,1.138.113.769-.084,1.138.9.277-.028-11.01Z" transform="translate(-691.684 -788.571)" fill="#474747" fill-rule="evenodd"/>
        <path id="path4345" d="M692.4,805.867l8.158-.043V794.775l-2.388-3.61-.961,1.348-1.26.081-.514-.492-.767-.372-.4.913-1.87,2.131Z" transform="translate(-691.423 -788.932)" fill="#999" fill-rule="evenodd"/>
        <path id="path4275" d="M692.435,794.806v10.933h8.048L692.436,794.8l1.81-2.261.531-1.387" transform="translate(-691.408 -788.935)" fill="none" stroke="#000" stroke-linecap="round" stroke-linejoin="round" stroke-width="0.383" fill-rule="evenodd"/>
        <path id="path4277" d="M692.44,795.6l6.3,8.373" transform="translate(-691.406 -787.201)" fill="none" stroke="#000" stroke-linecap="round" stroke-linejoin="round" stroke-width="0.383" fill-rule="evenodd"/>
        <path id="path4279" d="M697.078,803.343l-4.643-6.12" transform="translate(-691.408 -786.569)" fill="none" stroke="#000" stroke-linecap="round" stroke-linejoin="round" stroke-width="0.383" fill-rule="evenodd"/>
        <path id="path4281" d="M695.558,802.673l-3.123-3.814" transform="translate(-691.408 -785.93)" fill="none" stroke="#000" stroke-linecap="round" stroke-linejoin="round" stroke-width="0.383" fill-rule="evenodd"/>
        <path id="path4283" d="M693.9,802.165l-1.463-1.845" transform="translate(-691.408 -785.36)" fill="none" stroke="#000" stroke-linecap="round" stroke-linejoin="round" stroke-width="0.383" fill-rule="evenodd"/>
        <path id="path4285" d="M698.669,805.385V794.4l-1.586-2.4" transform="translate(-689.595 -788.604)" fill="none" stroke="#000" stroke-linecap="round" stroke-linejoin="round" stroke-width="0.383" fill-rule="evenodd"/>
        <path id="path4287" d="M692.453,804.723l8-10.961" transform="translate(-691.401 -787.918)" fill="none" stroke="#000" stroke-linecap="round" stroke-linejoin="round" stroke-width="0.383" fill-rule="evenodd"/>
        <path id="path4289" d="M700,795.6l-6.3,8.373" transform="translate(-690.914 -787.201)" fill="none" stroke="#000" stroke-linecap="round" stroke-linejoin="round" stroke-width="0.383" fill-rule="evenodd"/>
        <path id="path4291" d="M694.854,803.343l4.643-6.12" transform="translate(-690.464 -786.569)" fill="none" stroke="#000" stroke-linecap="round" stroke-linejoin="round" stroke-width="0.383" fill-rule="evenodd"/>
        <path id="path4293" d="M695.985,802.667l3.1-3.792" transform="translate(-690.023 -785.924)" fill="none" stroke="#000" stroke-linecap="round" stroke-linejoin="round" stroke-width="0.383" fill-rule="evenodd"/>
        <path id="path4295" d="M695.558,802.673l-3.123-3.814" transform="translate(-691.408 -785.93)" fill="none" stroke="#000" stroke-linecap="round" stroke-linejoin="round" stroke-width="0.383" fill-rule="evenodd"/>
        <path id="path4297" d="M697.159,802.165l1.463-1.845" transform="translate(-689.565 -785.36)" fill="none" stroke="#000" stroke-linecap="round" stroke-linejoin="round" stroke-width="0.383" fill-rule="evenodd"/>
        <path id="path4299" d="M692.453,802.977l7.243-10.091" transform="translate(-691.401 -788.26)" fill="none" stroke="#000" stroke-linecap="round" stroke-linejoin="round" stroke-width="0.383" fill-rule="evenodd"/>
        <path id="path4301" d="M692.424,800.931l5.721-8.153" transform="translate(-691.412 -788.303)" fill="none" stroke="#000" stroke-linecap="round" stroke-linejoin="round" stroke-width="0.383" fill-rule="evenodd"/>
        <path id="path4303" d="M700.223,802.889l-7.133-9.917" transform="translate(-691.153 -788.227)" fill="none" stroke="#000" stroke-linecap="round" stroke-linejoin="round" stroke-width="0.383" fill-rule="evenodd"/>
        <path id="path4305" d="M699.774,800.763l-5.536-7.889" transform="translate(-690.704 -788.265)" fill="none" stroke="#000" stroke-linecap="round" stroke-linejoin="round" stroke-width="0.383" fill-rule="evenodd"/>
        <path id="path4307" d="M692.415,799.2l4.083-5.823,1.729-2.106" transform="translate(-691.416 -788.889)" fill="none" stroke="#000" stroke-linecap="round" stroke-linejoin="round" stroke-width="0.383" fill-rule="evenodd"/>
        <path id="path4309" d="M699.86,799.256l-4.014-5.867-1.74-2.247" transform="translate(-690.756 -788.941)" fill="none" stroke="#000" stroke-linecap="round" stroke-linejoin="round" stroke-width="0.383" fill-rule="evenodd"/>
        <path id="path4311" d="M692.435,796.361l2.5-3.475" transform="translate(-691.408 -788.26)" fill="none" stroke="#000" stroke-linecap="round" stroke-linejoin="round" stroke-width="0.383" fill-rule="evenodd"/>
        <path id="path4313" d="M698.851,796.372l-2.307-3.591" transform="translate(-689.805 -788.301)" fill="none" stroke="#000" stroke-linecap="round" stroke-linejoin="round" stroke-width="0.383" fill-rule="evenodd"/>
        <path id="path4317" d="M697.337,792.375l-.331-.023-.457,1.023.123-1.08-.035-1.036Z" transform="translate(-689.803 -788.895)" fill="#474747" stroke="#000" stroke-linecap="round" stroke-linejoin="round" stroke-width="0.383" fill-rule="evenodd"/>
        <path id="path4319" d="M693.733,792.534l.267.031.436.992-.148-1.223-.014-1.169Z" transform="translate(-690.901 -788.931)" fill="#474747" stroke="#000" stroke-linecap="round" stroke-linejoin="round" stroke-width="0.383" fill-rule="evenodd"/>
        <path id="path4321" d="M695.463,791.234v.99l-.174.016-.338.326.587.783.726-.707-.313-.375-.174-.027-.005-1.011Z" transform="translate(-690.427 -788.907)" fill="#474747" stroke="#000" stroke-linecap="round" stroke-linejoin="round" stroke-width="0.383" fill-rule="evenodd"/>
        <path id="path4323" d="M695.219,792.229l-1.035.109" transform="translate(-690.725 -788.516)" fill="none" stroke="#000" stroke-linecap="round" stroke-linejoin="round" stroke-width="0.383" fill-rule="evenodd"/>
        <path id="path4325" d="M695.909,792.229l.975.1" transform="translate(-690.053 -788.516)" fill="none" stroke="#000" stroke-linecap="round" stroke-linejoin="round" stroke-width="0.383" fill-rule="evenodd"/>
        <path id="path4327" d="M694.58,792.139l-.788-.062a2.1,2.1,0,0,1-.323.615,2.792,2.792,0,0,1-.718.384,1.341,1.341,0,0,1-.127.6,3.024,3.024,0,0,1-.732.569,4.912,4.912,0,0,1,.155,1.138,5.274,5.274,0,0,1-.352,1.138,4.319,4.319,0,0,1,.338,1.184,3.764,3.764,0,0,1-.323,1.107,6.392,6.392,0,0,1,.267,1.261,4.7,4.7,0,0,1-.225,1.092,4.064,4.064,0,0,1,.281,1.123,3.331,3.331,0,0,1-.338,1,3.67,3.67,0,0,1,.267.984,2.741,2.741,0,0,1-.267.846l1,.292" transform="translate(-691.696 -788.576)" fill="none" stroke="#000" stroke-linecap="round" stroke-linejoin="round" stroke-width="0.383" fill-rule="evenodd"/>
        <path id="path4329" d="M691.848,793.638l.746.169" transform="translate(-691.637 -787.967)" fill="none" stroke="#000" stroke-linecap="round" stroke-linejoin="round" stroke-width="0.383" fill-rule="evenodd"/>
        <path id="path4331" d="M693.111,793.011l-.1,2.153" transform="translate(-691.183 -788.211)" fill="none" stroke="#000" stroke-linecap="round" stroke-linejoin="round" stroke-width="0.383" fill-rule="evenodd"/>
        <path id="path4333" d="M694.256,792.948l-.1,2.022" transform="translate(-690.736 -788.236)" fill="none" stroke="#000" stroke-linecap="round" stroke-linejoin="round" stroke-width="0.383" fill-rule="evenodd"/>
        <path id="path4335" d="M696.538,792.855l-.02,2.153" transform="translate(-689.815 -788.272)" fill="none" stroke="#000" stroke-linecap="round" stroke-linejoin="round" stroke-width="0.383" fill-rule="evenodd"/>
        <path id="path4337" d="M697.663,792.933v2.175" transform="translate(-689.368 -788.242)" fill="none" stroke="#000" stroke-linecap="round" stroke-linejoin="round" stroke-width="0.383" fill-rule="evenodd"/>
        <path id="path4923" d="M693.84,791.857l.673-.022.109-.782.456-.651.825-.239.586-.087-.673-.5H694.8l-.7.565-.261.934Z" transform="translate(-690.86 -789.551)" fill="#4d4d4d" fill-rule="evenodd"/>
        <path id="path4341" d="M696.8,790.247a5.747,5.747,0,0,0-.9-.584,2.075,2.075,0,0,0-.844-.092,1.369,1.369,0,0,0-.7.277,1.442,1.442,0,0,0-.366.615,3.274,3.274,0,0,0-.141.8c-.027.255-.028.769-.028.769l.647.584" transform="translate(-690.871 -789.558)" fill="none" stroke="#000" stroke-linecap="round" stroke-linejoin="round" stroke-width="0.383" fill-rule="evenodd"/>
        <path id="path4339" d="M694.318,791.58a2.648,2.648,0,0,1,.113-.707,1.574,1.574,0,0,1,.591-.738,1.626,1.626,0,0,1,.76-.123,1.974,1.974,0,0,1,.76.062,1.306,1.306,0,0,1,.591.431,1.341,1.341,0,0,1,.169.492c.061.252.113.769.113.769" transform="translate(-690.673 -789.385)" fill="none" stroke="#000" stroke-linecap="round" stroke-linejoin="round" stroke-width="0.383" fill-rule="evenodd"/>
      </g>
      <g id="g5038" transform="translate(9.131 16.935) rotate(180)">
        <path id="path4964" d="M1.694,2.884l1.137-.532.309-1.246-.8-1.03L.847,0,0,.941.213,2.1l.605.7Z" transform="translate(3.584 13.448)" fill="#1a1a1a" fill-rule="evenodd"/>
        <path id="path4966" d="M2.786,13.256l-.732.092-1.8-2.214L.225,9.842,0,8.765.281,7.6.028,6.3.2,5.228,0,4.275l.281-.953L.028,2.184l.113-.769L.056.277.957,0,.928,11.01Z" transform="translate(0.043 0.069)" fill="#474747" fill-rule="evenodd"/>
        <path id="path4968" d="M0,0,8.158.043V11.092L5.77,14.7,4.81,13.354l-1.26-.081-.514.492-.767.371-.4-.913L0,11.091Z" transform="translate(0.973)" fill="#999" fill-rule="evenodd"/>
        <path id="path4970" d="M0,10.933V0H8.048L0,10.934,1.811,13.2l.531,1.387" transform="translate(1.027 0.13)" fill="none" stroke="#000" stroke-linecap="round" stroke-linejoin="round" stroke-width="0.383" fill-rule="evenodd"/>
        <path id="path4972" d="M0,8.373,6.3,0" transform="translate(1.034 0.161)" fill="none" stroke="#000" stroke-linecap="round" stroke-linejoin="round" stroke-width="0.383" fill-rule="evenodd"/>
        <path id="path4974" d="M4.643,0,0,6.12" transform="translate(1.027 0.161)" fill="none" stroke="#000" stroke-linecap="round" stroke-linejoin="round" stroke-width="0.383" fill-rule="evenodd"/>
        <path id="path4976" d="M3.123,0,0,3.814" transform="translate(1.027 0.192)" fill="none" stroke="#000" stroke-linecap="round" stroke-linejoin="round" stroke-width="0.383" fill-rule="evenodd"/>
        <path id="path4978" d="M1.463,0,0,1.845" transform="translate(1.028 0.131)" fill="none" stroke="#000" stroke-linecap="round" stroke-linejoin="round" stroke-width="0.383" fill-rule="evenodd"/>
        <path id="path4980" d="M1.586,0V10.98L0,13.379" transform="translate(7.488 0.154)" fill="none" stroke="#000" stroke-linecap="round" stroke-linejoin="round" stroke-width="0.383" fill-rule="evenodd"/>
        <path id="path4982" d="M0,0,8,10.961" transform="translate(1.052 0.131)" fill="none" stroke="#000" stroke-linecap="round" stroke-linejoin="round" stroke-width="0.383" fill-rule="evenodd"/>
        <path id="path4984" d="M6.3,8.373,0,0" transform="translate(2.785 0.161)" fill="none" stroke="#000" stroke-linecap="round" stroke-linejoin="round" stroke-width="0.383" fill-rule="evenodd"/>
        <path id="path4986" d="M0,0,4.643,6.12" transform="translate(4.39 0.161)" fill="none" stroke="#000" stroke-linecap="round" stroke-linejoin="round" stroke-width="0.383" fill-rule="evenodd"/>
        <path id="path4988" d="M0,0,3.1,3.792" transform="translate(5.962 0.192)" fill="none" stroke="#000" stroke-linecap="round" stroke-linejoin="round" stroke-width="0.383" fill-rule="evenodd"/>
        <path id="path4990" d="M3.123,0,0,3.814" transform="translate(1.027 0.192)" fill="none" stroke="#000" stroke-linecap="round" stroke-linejoin="round" stroke-width="0.383" fill-rule="evenodd"/>
        <path id="path4992" d="M0,0,1.463,1.845" transform="translate(7.594 0.131)" fill="none" stroke="#000" stroke-linecap="round" stroke-linejoin="round" stroke-width="0.383" fill-rule="evenodd"/>
        <path id="path4994" d="M0,0,7.243,10.091" transform="translate(1.052 2.219)" fill="none" stroke="#000" stroke-linecap="round" stroke-linejoin="round" stroke-width="0.383" fill-rule="evenodd"/>
        <path id="path4996" d="M0,0,5.721,8.153" transform="translate(1.012 4.306)" fill="none" stroke="#000" stroke-linecap="round" stroke-linejoin="round" stroke-width="0.383" fill-rule="evenodd"/>
        <path id="path4998" d="M7.133,0,0,9.917" transform="translate(1.937 2.273)" fill="none" stroke="#000" stroke-linecap="round" stroke-linejoin="round" stroke-width="0.383" fill-rule="evenodd"/>
        <path id="path5000" d="M5.536,0,0,7.889" transform="translate(3.535 4.437)" fill="none" stroke="#000" stroke-linecap="round" stroke-linejoin="round" stroke-width="0.383" fill-rule="evenodd"/>
        <path id="path5002" d="M0,0,4.083,5.823l1.73,2.106" transform="translate(0.999 6.62)" fill="none" stroke="#000" stroke-linecap="round" stroke-linejoin="round" stroke-width="0.383" fill-rule="evenodd"/>
        <path id="path5004" d="M5.754,0,1.74,5.867,0,8.114" transform="translate(3.35 6.62)" fill="none" stroke="#000" stroke-linecap="round" stroke-linejoin="round" stroke-width="0.383" fill-rule="evenodd"/>
        <path id="path5006" d="M0,0,2.5,3.475" transform="translate(1.027 8.834)" fill="none" stroke="#000" stroke-linecap="round" stroke-linejoin="round" stroke-width="0.383" fill-rule="evenodd"/>
        <path id="path5008" d="M2.307,0,0,3.591" transform="translate(6.739 8.865)" fill="none" stroke="#000" stroke-linecap="round" stroke-linejoin="round" stroke-width="0.383" fill-rule="evenodd"/>
        <path id="path5010" d="M.788,1l-.331.023L0,0,.123,1.08.088,2.116Z" transform="translate(6.746 12.455)" fill="#474747" stroke="#000" stroke-linecap="round" stroke-linejoin="round" stroke-width="0.383" fill-rule="evenodd"/>
        <path id="path5012" d="M0,1.023.267.992.7,0,.556,1.223.542,2.391Z" transform="translate(2.831 12.31)" fill="#474747" stroke="#000" stroke-linecap="round" stroke-linejoin="round" stroke-width="0.383" fill-rule="evenodd"/>
        <path id="path5014" d="M.512,2.115v-.99L.338,1.109,0,.783.587,0l.726.707L1,1.082l-.174.027L.82,2.12Z" transform="translate(4.524 12.494)" fill="#474747" stroke="#000" stroke-linecap="round" stroke-linejoin="round" stroke-width="0.383" fill-rule="evenodd"/>
        <path id="path5016" d="M1.035.109,0,0" transform="translate(3.459 13.114)" fill="none" stroke="#000" stroke-linecap="round" stroke-linejoin="round" stroke-width="0.383" fill-rule="evenodd"/>
        <path id="path5018" d="M0,.1.975,0" transform="translate(5.856 13.125)" fill="none" stroke="#000" stroke-linecap="round" stroke-linejoin="round" stroke-width="0.383" fill-rule="evenodd"/>
        <path id="path5020" d="M2.884,13.271l-.788.062a2.1,2.1,0,0,0-.324-.615,2.791,2.791,0,0,0-.718-.384,1.34,1.34,0,0,0-.127-.6A3.027,3.027,0,0,0,.2,11.164a4.913,4.913,0,0,0,.155-1.138A5.275,5.275,0,0,0,0,8.888,4.322,4.322,0,0,0,.338,7.7,3.765,3.765,0,0,0,.014,6.6,6.394,6.394,0,0,0,.281,5.336,4.7,4.7,0,0,0,.056,4.244,4.069,4.069,0,0,0,.338,3.122a3.33,3.33,0,0,0-.338-1,3.668,3.668,0,0,0,.267-.984A2.742,2.742,0,0,0,0,.292L1,0" transform="translate(0 0.1)" fill="none" stroke="#000" stroke-linecap="round" stroke-linejoin="round" stroke-width="0.383" fill-rule="evenodd"/>
        <path id="path5022" d="M0,.169.746,0" transform="translate(0.211 11.095)" fill="none" stroke="#000" stroke-linecap="round" stroke-linejoin="round" stroke-width="0.383" fill-rule="evenodd"/>
        <path id="path5024" d="M.1,2.153,0,0" transform="translate(1.829 9.983)" fill="none" stroke="#000" stroke-linecap="round" stroke-linejoin="round" stroke-width="0.383" fill-rule="evenodd"/>
        <path id="path5026" d="M.1,2.022,0,0" transform="translate(3.42 10.201)" fill="none" stroke="#000" stroke-linecap="round" stroke-linejoin="round" stroke-width="0.383" fill-rule="evenodd"/>
        <path id="path5028" d="M.02,2.153,0,0" transform="translate(6.703 10.2)" fill="none" stroke="#000" stroke-linecap="round" stroke-linejoin="round" stroke-width="0.383" fill-rule="evenodd"/>
        <path id="path5030" d="M0,2.175V0" transform="translate(8.295 10.069)" fill="none" stroke="#000" stroke-linecap="round" stroke-linejoin="round" stroke-width="0.383" fill-rule="evenodd"/>
        <path id="path5032" d="M0,0,.673.022.782.8l.456.652.825.239.586.087-.673.5H.956l-.7-.565L0,.782Z" transform="translate(2.98 14.629)" fill="#4d4d4d" fill-rule="evenodd"/>
        <path id="path5034" d="M2.985,2.369a5.744,5.744,0,0,1-.9.584,2.074,2.074,0,0,1-.844.092,1.369,1.369,0,0,1-.7-.277,1.442,1.442,0,0,1-.366-.615,3.28,3.28,0,0,1-.141-.8C0,1.1,0,.584,0,.584L.647,0" transform="translate(2.94 13.878)" fill="none" stroke="#000" stroke-linecap="round" stroke-linejoin="round" stroke-width="0.383" fill-rule="evenodd"/>
        <path id="path5036" d="M0,.185A2.646,2.646,0,0,0,.113.892,1.574,1.574,0,0,0,.7,1.63a1.627,1.627,0,0,0,.76.123,1.975,1.975,0,0,0,.76-.062,1.307,1.307,0,0,0,.591-.431A1.338,1.338,0,0,0,2.983.769C3.044.517,3.1,0,3.1,0" transform="translate(3.645 14.555)" fill="none" stroke="#000" stroke-linecap="round" stroke-linejoin="round" stroke-width="0.383" fill-rule="evenodd"/>
      </g>
    </g>
  </g>
</svg>
