<svg xmlns="http://www.w3.org/2000/svg" xmlns:xlink="http://www.w3.org/1999/xlink" width="12.198" height="148.219" viewBox="0 0 12.198 148.219">
  <defs>
    <linearGradient id="linear-gradient" x1="0.675" y1="-2.249" x2="1.619" y2="-2.249" gradientUnits="objectBoundingBox">
      <stop offset="0"/>
      <stop offset="1" stop-opacity="0"/>
    </linearGradient>
    <linearGradient id="linear-gradient-2" x1="89.663" y1="3.25" x2="90.621" y2="3.25" xlink:href="#linear-gradient"/>
  </defs>
  <g id="g24546" transform="translate(0.166 0.2)">
    <rect id="rect4678" width="11.788" height="102.094" transform="translate(0 26.649)" fill="#f7f7f7"/>
    <g id="g4369-6-6-9-5" transform="translate(0.376 26.931)">
      <rect id="rect3545-0-1-5-0" width="5.661" height="101.471" opacity="0.034" transform="translate(0 0.019)" stroke="rgba(255,255,255,0)" stroke-linecap="round" stroke-linejoin="round" stroke-width="0.4" fill="#fff"/>
      <rect id="rect3545-9-2-3-1-3" width="5.578" height="101.438" opacity="0.034" transform="translate(11.154 101.438) rotate(180)" stroke="rgba(255,255,255,0)" stroke-linecap="round" stroke-linejoin="round" stroke-width="0.4" fill="#fff"/>
    </g>
    <rect id="rect10914" width="11.811" height="22.454" transform="translate(0.043 38.358)" fill="#4d4d4d"/>
    <path id="path153" d="M94.993,928.154h11.8" transform="translate(-94.959 -901.447)" fill="none" stroke="#000" stroke-width="0.4"/>
    <path id="path155" d="M94.993,952.636h11.8" transform="translate(-94.959 -891.85)" fill="none" stroke="#000" stroke-width="0.4"/>
    <path id="path157" d="M94.993,936.493h11.8" transform="translate(-94.959 -898.178)" fill="none" stroke="#000" stroke-width="0.4"/>
    <path id="path159" d="M99.231,908.968v23.58" transform="translate(-93.298 -908.967)" fill="none" stroke="#000" stroke-width="0.4"/>
    <path id="path169" d="M103.6,1018.142h-6.81l.175-.966.267-1.049.315-1.037.361-1.022.407-1,.451-.982.139-.477-.1-.136-.094-.141-.089-.146-.085-.151-.081-.156-.076-.161-.072-.166-.068-.171-.064-.176-.059-.181-.055-.187-.051-.191-.047-.2-.043-.2-.039-.207-.035-.213-.031-.219-.027-.224-.023-.229-.019-.235-.016-.241.1-.122h4.669l.125.1-.015.241-.019.235-.023.23-.027.225-.031.219-.035.213-.039.208-.043.2-.047.2-.051.192-.055.187-.059.182-.063.176-.067.172-.072.166-.076.161-.08.156-.085.151-.089.147-.094.142-.1.136.09.4.455.98.411,1,.365,1.02.319,1.036.271,1.048.223,1.057Z" transform="translate(-94.253 -870.323)" fill="#333" stroke="#000" stroke-width="0.4"/>
    <path id="path171" d="M95.492,932.547H105.9V921.858l-1.041-5.129-3.1-7.04a1.145,1.145,0,0,0-2.127,0l-3.1,7.04-1.041,5.129Z" transform="translate(-94.764 -908.967)" fill="none" stroke="#000" stroke-width="0.4"/>
    <path id="path211" d="M106.1,925.907l.694,3.128v101.932l-4.711,4.144a2.079,2.079,0,0,1-2.377,0l-4.711-4.144V929.035l.694-3.128" transform="translate(-94.959 -902.327)" fill="none" stroke="#000" stroke-width="0.4"/>
    <path id="path517" d="M106.791,1001.38h-11.8" transform="translate(-94.959 -872.743)" fill="none" stroke="#000" stroke-width="0.4"/>
    <path id="path845" d="M99.231,1004.63v4.077" transform="translate(-93.298 -871.468)" fill="none" stroke="#000" stroke-width="0.4"/>
    <path id="path847" d="M94.993,1001.38l3.555,8.594" transform="translate(-94.959 -872.743)" fill="none" stroke="#000" stroke-width="0.4"/>
    <path id="path849" d="M104.47,1001.38l-3.555,8.594" transform="translate(-92.638 -872.743)" fill="none" stroke="#000" stroke-width="0.4"/>
    <path id="path7168" d="M99.447,920.7c0-6.292.029-11.439.065-11.438.236.01.555.629,1.956,3.8l1.571,3.552.507,2.436.507,2.436,0,5.329,0,5.329H99.446V920.7Z" transform="translate(-93.214 -908.851)" fill="#f2f2f2"/>
    <path id="path7170" d="M95.7,926.925v-5.256l.5-2.476.5-2.476,1.568-3.567c.863-1.962,1.611-3.613,1.662-3.669a.783.783,0,0,1,.375-.224c.032,0,.046,3.488.046,11.462v11.462H95.7v-5.256Z" transform="translate(-94.683 -908.854)" fill="#f2f2f2"/>
    <path id="path7180" d="M95.252,928.625c0-.042.124-.624.273-1.294l.27-1.218,4.99-.011,4.99-.011.023.1c.086.362.544,2.448.544,2.476s-2.5.036-5.546.036c-5.254,0-5.546,0-5.544-.076Z" transform="translate(-94.858 -902.255)" fill="#f2f2f2"/>
    <path id="path12008" d="M100.107,1005.657c-.38-.141-.349-.115-2.65-2.206l-2.178-1.979,2.728-.02c1.5-.014,3.948-.014,5.44,0l2.713.02-2.218,2.015a21.436,21.436,0,0,1-2.521,2.137,2.163,2.163,0,0,1-1.313.032Z" transform="translate(-94.847 -872.719)" fill="#efefef"/>
    <g id="g4369-6-6-9" transform="translate(0.273 26.932)">
      <rect id="rect3545-0-1-5" width="5.713" height="101.456" fill="url(#linear-gradient)" transform="translate(0 0.019)" stroke-linecap="round" stroke-linejoin="round" stroke-width="0.4" opacity="0.034" stroke="rgba(255,255,255,0)"/>
      <rect id="rect3545-9-2-3-1" width="5.629" height="101.423" fill="url(#linear-gradient-2)" transform="translate(11.256 101.423) rotate(180)" stroke-linecap="round" stroke-linejoin="round" stroke-width="0.4" opacity="0.034" stroke="rgba(255,255,255,0)"/>
    </g>
    <g id="g13172" transform="translate(3.329 76.209)">
      <path id="path13174" d="M95.612,490.574H92.831l-.1.077v2.474h.77V492.2l.073-.066h2.041c.515,0,.757-.139.757-.494v-.568c0-.356-.242-.5-.757-.5m0,.915c0,.168-.111.2-.352.2H93.58l-.082-.08v-.53l.073-.067H95.26c.242,0,.352.034.352.2v.272Z" transform="translate(-92.323 -484.695)" fill="#005288"/>
      <path id="polyline13176" d="M7.4,1.552l.662.971-.037.094H6.561l-.374.46H8.368l.151.092.339.467h.881L7.807,1.053" transform="translate(-5.721 9.953)" fill="#005288"/>
      <g id="g13178" transform="translate(0.484 22.345)">
        <path id="polyline13180" d="M13.572,2.883V2.2l.079-.068h1.474V1.691H12.789V3.385h3.446V2.95h-2.58" transform="translate(-12.789 -0.834)" fill="#005288"/>
        <rect id="rect13182" width="3.482" height="0.481" transform="translate(0 0)" fill="#005288"/>
      </g>
      <path id="path13184" d="M93.583,498.71h2.805c-.043-.357-.265-.456-.826-.456H93.553c-.634,0-.836.124-.836.6V500.2c0,.48.2.6.836.6h2.009c.57,0,.788-.107.8-.477H93.583l-.083-.078v-1.49" transform="translate(-92.327 -481.685)" fill="#005288"/>
      <path id="path13186" d="M95.6,487.345H93.557l-.06-.066v-.437l.06-.046h2.751l.038-.092c-.094-.241-.336-.354-.787-.354H93.647c-.633,0-.836.124-.836.6v.282c0,.48.2.6.836.6h2.036l.064.056v.456l-.052.071H93.366v0h-.61s-.07.035-.067.051c.052.335.281.43.828.43H95.6c.633,0,.842-.124.842-.6v-.351c0-.479-.208-.6-.842-.6" transform="translate(-92.338 -486.351)" fill="#005288"/>
      <path id="path13188" d="M93.708,506.653H92.562l-.062.118,1.272.927c.241-.139.5-.281.788-.42" transform="translate(-92.412 -478.392)" fill="#005288"/>
      <path id="path13190" d="M94.1,508.053l1.118.815h1.159l.048-.108-1.67-1.222q-.333.244-.656.515" transform="translate(-91.783 -478.045)" fill="#005288"/>
      <path id="path13192" d="M93.561,509.534H92.525l-.088-.137a14.515,14.515,0,0,1,8.11-3.563,12.964,12.964,0,0,0-6.986,3.7" transform="translate(-92.437 -478.713)" fill="#005288"/>
    </g>
  </g>
</svg>
