<svg xmlns="http://www.w3.org/2000/svg" xmlns:xlink="http://www.w3.org/1999/xlink" width="36.793" height="477.936" viewBox="0 0 36.793 477.936">
  <defs>
    <linearGradient id="linear-gradient" x1="-2.116" y1="0.502" x2="-1.116" y2="0.502" gradientUnits="objectBoundingBox">
      <stop offset="0" stop-color="#f6f6f6"/>
      <stop offset="0.5" stop-color="#fff"/>
      <stop offset="1" stop-color="#f6f6f6"/>
    </linearGradient>
    <linearGradient id="linear-gradient-2" x1="-2.116" y1="6.649" x2="-1.116" y2="6.649" gradientUnits="objectBoundingBox">
      <stop offset="0" stop-color="#101010"/>
      <stop offset="0.5" stop-color="#282828"/>
      <stop offset="1" stop-color="#101010"/>
    </linearGradient>
    <linearGradient id="linear-gradient-3" x1="-2.116" y1="0.5" x2="-1.116" y2="0.5" xlink:href="#linear-gradient-2"/>
    <linearGradient id="linear-gradient-4" x1="-2.126" y1="0.498" x2="-1.126" y2="0.498" xlink:href="#linear-gradient-2"/>
    <linearGradient id="linear-gradient-5" x1="-0.017" y1="0.5" x2="1.017" y2="0.5" gradientUnits="objectBoundingBox">
      <stop offset="0" stop-color="#181818"/>
      <stop offset="1" stop-color="#3c3c3c"/>
    </linearGradient>
    <linearGradient id="linear-gradient-6" x1="0.164" y1="0.026" x2="0.503" y2="0.923" gradientUnits="objectBoundingBox">
      <stop offset="0" stop-color="#080808"/>
      <stop offset="1" stop-color="#141414"/>
    </linearGradient>
    <linearGradient id="linear-gradient-8" x1="0.164" y1="0.974" x2="0.503" y2="0.077" xlink:href="#linear-gradient-6"/>
    <linearGradient id="linear-gradient-9" x1="-0.01" y1="0.5" x2="1.01" y2="0.5" gradientUnits="objectBoundingBox">
      <stop offset="0" stop-color="#d2d2d2"/>
      <stop offset="0.502" stop-color="#fff"/>
      <stop offset="1" stop-color="#d2d2d2"/>
    </linearGradient>
    <linearGradient id="linear-gradient-10" x1="0.031" y1="0.553" x2="0.435" y2="0.647" gradientUnits="objectBoundingBox">
      <stop offset="0" stop-color="#d2d2d2"/>
      <stop offset="1" stop-color="#e6e6e6"/>
    </linearGradient>
    <linearGradient id="linear-gradient-11" y1="0.5" x2="1" y2="0.5" gradientUnits="objectBoundingBox">
      <stop offset="0" stop-color="#e6e6e6"/>
      <stop offset="1" stop-color="#fafafa"/>
    </linearGradient>
    <linearGradient id="linear-gradient-12" x1="0.031" y1="0.447" x2="0.435" y2="0.353" xlink:href="#linear-gradient-10"/>
    <linearGradient id="linear-gradient-14" x1="-1.699" y1="0.5" x2="-0.678" y2="0.5" gradientUnits="objectBoundingBox">
      <stop offset="0" stop-color="#505050"/>
      <stop offset="0.51" stop-color="#606060"/>
      <stop offset="1" stop-color="#505050"/>
    </linearGradient>
    <linearGradient id="linear-gradient-15" x1="5.507" y1="0.5" x2="6.564" y2="0.462" gradientUnits="objectBoundingBox">
      <stop offset="0" stop-color="#e6e6e6"/>
      <stop offset="1" stop-color="#fff"/>
    </linearGradient>
    <linearGradient id="linear-gradient-16" x1="-0.05" y1="0.5" x2="1.006" y2="0.462" xlink:href="#linear-gradient-15"/>
    <linearGradient id="linear-gradient-17" x1="-2.116" y1="8.951" x2="-1.116" y2="8.951" xlink:href="#linear-gradient"/>
    <linearGradient id="linear-gradient-18" x1="-2.994" y1="0.5" x2="-1.993" y2="0.5" gradientUnits="objectBoundingBox">
      <stop offset="0" stop-color="#f0f0f0"/>
      <stop offset="0.498" stop-color="#fff"/>
      <stop offset="1" stop-color="#f0f0f0"/>
    </linearGradient>
    <radialGradient id="radial-gradient" cx="0.5" cy="0.5" r="0.338" gradientTransform="translate(-0.486 -0.346) scale(1.891 1.697)" gradientUnits="objectBoundingBox">
      <stop offset="0" stop-color="#423138"/>
      <stop offset="1" stop-color="#251c1f"/>
    </radialGradient>
    <radialGradient id="radial-gradient-2" cx="0.5" cy="0.5" r="0.338" gradientTransform="matrix(1.891, 0, 0, -1.697, -748.113, -33.981)" xlink:href="#radial-gradient"/>
    <linearGradient id="linear-gradient-19" x1="0.493" y1="0.004" x2="0.08" y2="0.683" gradientUnits="objectBoundingBox">
      <stop offset="0" stop-color="#505050"/>
      <stop offset="1" stop-color="#787878"/>
    </linearGradient>
    <linearGradient id="linear-gradient-20" x1="0.344" y1="0.14" x2="0.879" y2="0.934" gradientUnits="objectBoundingBox">
      <stop offset="0" stop-color="#828282"/>
      <stop offset="1" stop-color="#646464"/>
    </linearGradient>
    <linearGradient id="linear-gradient-21" x1="0.493" y1="0.996" x2="0.08" y2="0.317" xlink:href="#linear-gradient-19"/>
    <linearGradient id="linear-gradient-22" x1="0.344" y1="0.86" x2="0.879" y2="0.066" xlink:href="#linear-gradient-20"/>
    <linearGradient id="linear-gradient-23" x1="-11.415" y1="0.535" x2="-10.25" y2="0.5" gradientUnits="objectBoundingBox">
      <stop offset="0" stop-color="#f0f0f0" stop-opacity="0"/>
      <stop offset="1" stop-color="#e6e6e6"/>
    </linearGradient>
    <linearGradient id="linear-gradient-24" x1="-13.668" y1="0.036" x2="-13.54" y2="0.83" gradientUnits="objectBoundingBox">
      <stop offset="0" stop-color="#fafafa"/>
      <stop offset="1" stop-color="#e6e6e6"/>
    </linearGradient>
    <linearGradient id="linear-gradient-25" x1="0.548" y1="0.893" x2="0.601" y2="-0.013" gradientUnits="objectBoundingBox">
      <stop offset="0" stop-color="#787878"/>
      <stop offset="1" stop-opacity="0"/>
    </linearGradient>
  </defs>
  <g id="g5506" transform="translate(0.2 0.2)">
    <g id="g9628" transform="translate(1.965 55.995)">
      <g id="g12905">
        <rect id="rect10411" width="25.95" height="405.912" transform="translate(3.256)" fill="url(#linear-gradient)"/>
        <rect id="rect10413" width="25.949" height="49.627" transform="translate(3.256 66.233)" fill="url(#linear-gradient-2)"/>
        <rect id="rect10415" width="25.95" height="19.611" transform="translate(3.256 386.388)" fill="url(#linear-gradient-3)"/>
        <path id="path10418" d="M631.689,1008.869a1.208,1.208,0,0,1-.11-.318v-.036h4.713l.017.081c.035.163.035.2,0,.265l-.036.061h-4.547l-.034-.061h0Z" transform="translate(-627.23 -596.213)" fill="#f7f7f7"/>
        <path id="path10420" d="M635.479,1008.842a1.561,1.561,0,0,1-.11-.313c0-.014,1.01-.014,2.428-.014h2.428l-.01.042a1.369,1.369,0,0,1-.1.282l-.041.082h-4.552l-.045-.089Z" transform="translate(-625.752 -596.213)" fill="#f7f7f7"/>
        <path id="path10422" d="M639.158,1009.023s.016-.054.036-.1a2.233,2.233,0,0,0,.1-.356l.01-.05h1.219c1.148,0,1.219,0,1.226.026s.013.058.018.1a2.008,2.008,0,0,0,.063.229c.029.088.052.162.052.165h-1.359c-.747,0-1.359,0-1.359-.014Z" transform="translate(-624.274 -596.214)" fill="#f7f7f7"/>
        <path id="path10424" d="M641.522,1008.842a1.568,1.568,0,0,1-.109-.313c0-.014,1.01-.014,2.427-.014,1.809,0,2.427,0,2.427.018a1.373,1.373,0,0,1-.1.305l-.043.085h-4.552l-.045-.089Z" transform="translate(-623.394 -596.213)" fill="#f7f7f7"/>
        <path id="path10426" d="M645.312,1008.884c-.047-.076-.05-.1-.024-.231.014-.064.024-.121.024-.125s1.064-.014,2.365-.014h2.366l-.01.042a1.686,1.686,0,0,1-.107.3l-.038.074h-4.546l-.031-.05Z" transform="translate(-621.888 -596.213)" fill="#f7f7f7"/>
        <path id="path10428" d="M630.825,1003.89l25.81.043.014,4.551-.97,2.434-23.865-.074-.969-2.436Z" transform="translate(-627.524 -598.017)" fill="url(#linear-gradient-4)"/>
        <g id="g10442" transform="translate(8.14 412.973)">
          <g id="g10434" transform="translate(0 0)">
            <path id="path10430" d="M449.745,1030.551c-.267-.662-.62-1.432-.972-2.122l-.137-.268.057-.106c.1-.184.326-.583.463-.812l.049-.08h1.349l.053.088c.118.2.42.727.492.864l.025.048-.071.137c-.384.737-.768,1.573-1.076,2.343l-.052.129h-.09l-.089-.22h0Z" transform="translate(-448.637 -1026.94)" fill="#333" stroke="rgba(255,255,255,0)" stroke-linecap="round" stroke-linejoin="round" stroke-width="0.4"/>
            <path id="path10432" d="M459.551,1030.391c-.267-.662-.62-1.432-.972-2.122l-.137-.268.057-.106c.1-.184.326-.583.463-.812l.049-.081h1.349l.053.088c.118.2.42.727.492.864l.025.047-.071.138c-.383.737-.768,1.573-1.076,2.343l-.052.129h-.09l-.089-.22h0Z" transform="translate(-444.811 -1027.002)" fill="#333" stroke="rgba(255,255,255,0)" stroke-linecap="round" stroke-linejoin="round" stroke-width="0.4"/>
          </g>
          <path id="path10436" d="M453.793,1029.6c.111-.217.318-.6.46-.858l.258-.463-.3-.539-.3-.539h-.523c-.446,0-.523-.015-.523-.057s-.043-.054-.226-.046c-.214.015-.23.018-.3.141l-.075.129.391.752c.215.414.505,1,.644,1.311a4.811,4.811,0,0,0,.276.561,2.528,2.528,0,0,0,.225-.394Z" transform="translate(-447.224 -1026.965)" fill="#333" stroke="rgba(255,255,255,0)" stroke-linecap="round" stroke-linejoin="round" stroke-width="0.4"/>
          <path id="path10438" d="M455.831,1029.583c-.111-.217-.318-.6-.46-.858l-.258-.463.3-.539.3-.539h.523c.446,0,.523-.015.523-.057s.043-.054.226-.046c.214.015.23.018.3.141l.075.129-.391.752c-.215.414-.505,1-.644,1.311a4.792,4.792,0,0,1-.276.561,2.533,2.533,0,0,1-.225-.394Z" transform="translate(-446.11 -1026.973)" fill="#333" stroke="rgba(255,255,255,0)" stroke-linecap="round" stroke-linejoin="round" stroke-width="0.4"/>
          <path id="path10440" d="M452.12,1035.474c0-.018.115-.53.131-.586.241-3.127.491-2.478,1.479-4.375a20.8,20.8,0,0,1,1.046-2.115l.19-.336v-.871h.933v.883l.2.353c.209.369.787,1.5.921,1.81l.078.178a29.724,29.724,0,0,1,1.566,4.717c.032.146.058.285.058.31,0,.046-.005.046-3.3.046-1.816,0-3.3,0-3.3-.015Z" transform="translate(-447.278 -1026.928)" fill="#333" stroke="rgba(255,255,255,0)" stroke-linecap="round" stroke-linejoin="round" stroke-width="0.4"/>
        </g>
        <path id="path10444" d="M630.814,759.61h25.921" transform="translate(-627.529 -693.313)" fill="none" stroke="#000" stroke-width="0.4"/>
        <path id="path10446" d="M644.065,1009.01H642.65" transform="translate(-622.911 -596.02)" fill="none" stroke="#000" stroke-width="0.4"/>
        <path id="path10448" d="M632.76,1014.33h6.828" transform="translate(-626.769 -593.944)" fill="none" stroke="#000" stroke-width="0.4"/>
        <path id="path10450" d="M634.707,1009.01h1.415" transform="translate(-626.01 -596.02)" fill="none" stroke="#000" stroke-width="0.4"/>
        <path id="path10452" d="M636.338,1010.163q-.29-.583-.612-1.149" transform="translate(-625.612 -596.019)" fill="none" stroke="#000" stroke-width="0.4"/>
        <path id="path10454" d="M634.879,1009.01q-.322.566-.612,1.149" transform="translate(-626.182 -596.02)" fill="none" stroke="#000" stroke-width="0.4"/>
        <path id="path10456" d="M638.089,1009.01h1.062" transform="translate(-624.691 -596.02)" fill="none" stroke="#000" stroke-width="0.4"/>
        <path id="path10458" d="M639.772,1010.272q-.294-.6-.621-1.183" transform="translate(-624.276 -595.989)" fill="none" stroke="#000" stroke-width="0.4"/>
        <path id="path10460" d="M638.18,1009.01q-.166.292-.323.589" transform="translate(-624.781 -596.02)" fill="none" stroke="#000" stroke-width="0.4"/>
        <path id="path10462" d="M649.429,1014.33H642.6" transform="translate(-622.93 -593.944)" fill="none" stroke="#000" stroke-width="0.4"/>
        <path id="path10464" d="M645.963,1009.01h-1.415" transform="translate(-622.171 -596.02)" fill="none" stroke="#000" stroke-width="0.4"/>
        <path id="path10466" d="M644.721,1009.01q-.322.566-.612,1.149" transform="translate(-622.342 -596.02)" fill="none" stroke="#000" stroke-width="0.4"/>
        <path id="path10468" d="M646.179,1010.163q-.29-.583-.612-1.15" transform="translate(-621.773 -596.019)" fill="none" stroke="#000" stroke-width="0.4"/>
        <path id="path10470" d="M642.482,1009.01H641.42" transform="translate(-623.391 -596.02)" fill="none" stroke="#000" stroke-width="0.4"/>
        <path id="path10472" d="M638.853,1009.277a1.446,1.446,0,0,0,.3-.951" transform="translate(-624.393 -596.287)" fill="none" stroke="#000" stroke-width="0.4"/>
        <path id="path10474" d="M635.376,1009.01h4.833" transform="translate(-625.749 -596.02)" fill="none" stroke="#000" stroke-width="0.4"/>
        <path id="path10476" d="M641.2,1008.33a1.444,1.444,0,0,0,.3.951" transform="translate(-623.476 -596.285)" fill="none" stroke="#000" stroke-width="0.4"/>
        <path id="path10478" d="M644.9,1009.277a1.446,1.446,0,0,0,.3-.951" transform="translate(-622.035 -596.287)" fill="none" stroke="#000" stroke-width="0.4"/>
        <path id="path10480" d="M639.151,1009.09h2.741" transform="translate(-624.276 -595.989)" fill="none" stroke="#000" stroke-width="0.4"/>
        <path id="path10482" d="M638.344,1009.01c.024.037.049.073.076.108" transform="translate(-624.591 -596.02)" fill="none" stroke="#000" stroke-width="0.4"/>
        <path id="path10484" d="M641.875,1009.12c.027-.035.052-.071.076-.108" transform="translate(-623.214 -596.019)" fill="none" stroke="#000" stroke-width="0.4"/>
        <path id="path10486" d="M638.4,1009.09h4.833" transform="translate(-624.57 -595.989)" fill="none" stroke="#000" stroke-width="0.4"/>
        <path id="path10488" d="M641.347,1009.09q-.327.583-.621,1.183" transform="translate(-623.662 -595.989)" fill="none" stroke="#000" stroke-width="0.4"/>
        <path id="path10490" d="M641.347,1009.09q-.327.583-.621,1.183" transform="translate(-623.662 -595.989)" fill="none" stroke="#000" stroke-width="0.4"/>
        <path id="path10492" d="M642.523,1009.537q-.141-.264-.289-.524" transform="translate(-623.073 -596.018)" fill="none" stroke="#000" stroke-width="0.4"/>
        <path id="path10494" d="M649.46,711.986v336.406" transform="translate(-620.255 -711.892)" fill="none" stroke="#000" stroke-width="0.401"/>
        <path id="path10496" d="M637.952,1014.33q-.137.574-.246,1.155h6.827q-.109-.58-.246-1.155" transform="translate(-624.84 -593.945)" fill="none" stroke="#000" stroke-width="0.4"/>
        <path id="path10498" d="M638.8,1012.51a23.872,23.872,0,0,1,1.18-2.376v-1.047" transform="translate(-624.412 -595.989)" fill="none" stroke="#000" stroke-width="0.4"/>
        <path id="path10500" d="M640.671,1009.09v1.047a23.9,23.9,0,0,1,1.143,2.289" transform="translate(-623.683 -595.989)" fill="none" stroke="#000" stroke-width="0.4"/>
        <path id="path10502" d="M636.915,1013.376a23.877,23.877,0,0,0-1.932-4.368h-1.415a23.862,23.862,0,0,0-2.707,7.391h6.828" transform="translate(-627.51 -596.02)" fill="#333" stroke="#000" stroke-width="0.4"/>
        <path id="path10504" d="M645.057,1008.862a1.445,1.445,0,0,0,.223.412h4.833a1.444,1.444,0,0,0,.3-.951" transform="translate(-621.972 -596.288)" fill="none" stroke="#000" stroke-width="0.4"/>
        <path id="path10506" d="M644.5,1016.4h6.828a23.866,23.866,0,0,0-2.706-7.391h-1.415a23.864,23.864,0,0,0-1.932,4.368" transform="translate(-622.19 -596.018)" fill="#333" stroke="#000" stroke-width="0.4"/>
        <path id="path10508" d="M637.366,1009.01a23.871,23.871,0,0,0-2.706,7.39h6.828a23.868,23.868,0,0,0-2.706-7.39Z" transform="translate(-626.029 -596.02)" fill="#333" stroke="#000" stroke-width="0.4"/>
        <path id="path10510" d="M630.814,1048.392V711.986" transform="translate(-627.529 -711.892)" fill="none" stroke="#000" stroke-width="0.401"/>
        <path id="path10512" d="M656.734,998.507v11.551a4.168,4.168,0,0,1-.68,2.1H631.494a4.169,4.169,0,0,1-.68-2.1V998.507" transform="translate(-627.529 -600.117)" fill="none" stroke="#000" stroke-width="0.4"/>
        <path id="path10514" d="M644.825,1009.01a23.869,23.869,0,0,1,2.706,7.39H640.7a23.868,23.868,0,0,1,2.706-7.39" transform="translate(-623.671 -596.02)" fill="#333" stroke="#000" stroke-width="0.4"/>
        <path id="path10516" d="M641.42,1009.01h4.833" transform="translate(-623.391 -596.02)" fill="none" stroke="#000" stroke-width="0.4"/>
        <path id="path10518" d="M631.364,1008.33a1.444,1.444,0,0,0,.3.951H636.5a1.447,1.447,0,0,0,.223-.412" transform="translate(-627.315 -596.285)" fill="none" stroke="#000" stroke-width="0.4"/>
        <path id="path10520" d="M635.161,1008.33a1.443,1.443,0,0,0,.3.951" transform="translate(-625.834 -596.285)" fill="none" stroke="#000" stroke-width="0.4"/>
        <path id="path10522" d="M630.814,795.3h25.921" transform="translate(-627.529 -679.389)" fill="none" stroke="#000" stroke-width="0.4"/>
        <g id="g10544" transform="translate(11.843 224.921)">
          <path id="path10524" d="M185.126,941.9h-5.377l-.2.149v4.784h1.489v-1.794l.142-.127h3.946c1,0,1.463-.268,1.463-.956v-1.1c0-.689-.467-.957-1.464-.957m0,1.768c0,.324-.214.391-.682.391H181.2l-.159-.154v-1.025l.142-.13h3.265c.467,0,.681.067.681.392v.526Z" transform="translate(-178.766 -930.529)" fill="#005288"/>
          <path id="polyline10526" d="M14.326,3l1.281,1.877-.071.182H12.7l-.723.89H16.2l.292.178.655.9h1.7L15.113,2.038" transform="translate(-11.08 19.242)" fill="#005288"/>
          <g id="g10532" transform="translate(0.936 43.209)">
            <path id="polyline10528" d="M26.277,5.579V4.252l.153-.132h2.85V3.274H24.764V6.551h6.663V5.709H26.437" transform="translate(-24.764 -1.617)" fill="#005288"/>
            <rect id="rect10530" width="6.733" height="0.93" transform="translate(0 0)" fill="#005288"/>
          </g>
          <path id="path10534" d="M181.2,957.649h5.424c-.084-.69-.512-.881-1.6-.881h-3.885c-1.225,0-1.616.239-1.616,1.166v2.6c0,.928.391,1.167,1.616,1.167h3.885c1.1,0,1.523-.207,1.552-.922H181.2l-.16-.15V957.75" transform="translate(-178.774 -924.727)" fill="#005288"/>
          <path id="path10536" d="M185.1,935.641h-3.946l-.116-.128v-.844l.116-.089h5.32l.073-.178c-.181-.466-.65-.683-1.522-.683h-3.7c-1.224,0-1.616.239-1.616,1.166v.545c0,.928.391,1.167,1.616,1.167h3.937l.124.109v.882l-.1.138h-4.5v0H179.6s-.135.068-.13.1c.1.648.542.832,1.6.832H185.1c1.224,0,1.627-.239,1.627-1.167v-.679c0-.927-.4-1.165-1.627-1.165" transform="translate(-178.795 -933.719)" fill="#005288"/>
          <path id="path10538" d="M181.442,973.03h-2.215l-.12.229,2.46,1.793c.466-.27.973-.543,1.524-.813" transform="translate(-178.938 -918.383)" fill="#005288"/>
          <path id="path10540" d="M182.214,975.739l2.162,1.576h2.242l.093-.209-3.228-2.363q-.643.472-1.268,1" transform="translate(-177.726 -917.714)" fill="#005288"/>
          <path id="path10542" d="M181.159,978.6h-2l-.169-.265a28.067,28.067,0,0,1,15.683-6.889,25.066,25.066,0,0,0-13.51,7.155" transform="translate(-178.986 -919.001)" fill="#a7a9ac"/>
        </g>
        <g id="g7232" transform="translate(7.209 128.836)">
          <g id="g10582" transform="translate(2.616 18.209)">
            <rect id="rect10546" width="12.773" height="7.21" fill="#b22234"/>
            <path id="path10548" d="M0,.6H12.773m0,1.109H0M0,2.817H12.773m0,1.109H0M0,5.036H12.773m0,1.109H0" transform="translate(0 0.233)" stroke="#fff" stroke-width="0.385"/>
            <rect id="rect10550" width="5.109" height="3.883" fill="#3c3b6e"/>
            <g id="g10580" transform="translate(0.229 0.166)">
              <g id="g10572">
                <g id="g10568">
                  <g id="g10564">
                    <g id="g10560">
                      <path id="path10552" d="M.361.12l.122.4L.165.273H.558L.24.521Z" transform="translate(-0.165 -0.12)" fill="#fff"/>
                      <path id="use10554" d="M.361.12l.122.4L.165.273H.558L.24.521Z" transform="translate(-0.165 0.657)" fill="#fff"/>
                      <path id="use10556" d="M.361.12l.122.4L.165.273H.558L.24.521Z" transform="translate(-0.165 1.433)" fill="#fff"/>
                      <path id="use10558" d="M.361.12l.122.4L.165.273H.558L.24.521Z" transform="translate(-0.165 2.21)" fill="#fff"/>
                    </g>
                    <path id="use10562" d="M.361.12l.122.4L.165.273H.558L.24.521Z" transform="translate(-0.165 2.986)" fill="#fff"/>
                  </g>
                  <g id="use10566" transform="translate(0.426 0.388)">
                    <path id="s" d="M.361.12l.122.4L.165.273H.558L.24.521Z" transform="translate(-0.165 -0.12)" fill="#fff"/>
                    <path id="use11040" d="M.361.12l.122.4L.165.273H.558L.24.521Z" transform="translate(-0.165 0.657)" fill="#fff"/>
                    <path id="use11042" d="M.361.12l.122.4L.165.273H.558L.24.521Z" transform="translate(-0.165 1.433)" fill="#fff"/>
                    <path id="use11044" d="M.361.12l.122.4L.165.273H.558L.24.521Z" transform="translate(-0.165 2.21)" fill="#fff"/>
                  </g>
                </g>
                <g id="use10570" transform="translate(0.852)">
                  <g id="s5" transform="translate(0)">
                    <g id="s4">
                      <path id="s-2" data-name="s" d="M.361.12l.122.4L.165.273H.558L.24.521Z" transform="translate(-0.165 -0.12)" fill="#fff"/>
                      <path id="use11040-2" data-name="use11040" d="M.361.12l.122.4L.165.273H.558L.24.521Z" transform="translate(-0.165 0.657)" fill="#fff"/>
                      <path id="use11042-2" data-name="use11042" d="M.361.12l.122.4L.165.273H.558L.24.521Z" transform="translate(-0.165 1.433)" fill="#fff"/>
                      <path id="use11044-2" data-name="use11044" d="M.361.12l.122.4L.165.273H.558L.24.521Z" transform="translate(-0.165 2.21)" fill="#fff"/>
                    </g>
                    <path id="use11046" d="M.361.12l.122.4L.165.273H.558L.24.521Z" transform="translate(-0.165 2.986)" fill="#fff"/>
                  </g>
                  <g id="use11048" transform="translate(0.426 0.388)">
                    <path id="s-3" data-name="s" d="M.361.12l.122.4L.165.273H.558L.24.521Z" transform="translate(-0.165 -0.12)" fill="#fff"/>
                    <path id="use11040-3" data-name="use11040" d="M.361.12l.122.4L.165.273H.558L.24.521Z" transform="translate(-0.165 0.657)" fill="#fff"/>
                    <path id="use11042-3" data-name="use11042" d="M.361.12l.122.4L.165.273H.558L.24.521Z" transform="translate(-0.165 1.433)" fill="#fff"/>
                    <path id="use11044-3" data-name="use11044" d="M.361.12l.122.4L.165.273H.558L.24.521Z" transform="translate(-0.165 2.21)" fill="#fff"/>
                  </g>
                </g>
              </g>
              <g id="use10574" transform="translate(1.703)">
                <g id="s9" transform="translate(0)">
                  <g id="s5-2" data-name="s5">
                    <g id="s4-2" data-name="s4">
                      <path id="s-4" data-name="s" d="M.361.12l.122.4L.165.273H.558L.24.521Z" transform="translate(-0.165 -0.12)" fill="#fff"/>
                      <path id="use11040-4" data-name="use11040" d="M.361.12l.122.4L.165.273H.558L.24.521Z" transform="translate(-0.165 0.657)" fill="#fff"/>
                      <path id="use11042-4" data-name="use11042" d="M.361.12l.122.4L.165.273H.558L.24.521Z" transform="translate(-0.165 1.433)" fill="#fff"/>
                      <path id="use11044-4" data-name="use11044" d="M.361.12l.122.4L.165.273H.558L.24.521Z" transform="translate(-0.165 2.21)" fill="#fff"/>
                    </g>
                    <path id="use11046-2" data-name="use11046" d="M.361.12l.122.4L.165.273H.558L.24.521Z" transform="translate(-0.165 2.986)" fill="#fff"/>
                  </g>
                  <g id="use11048-2" data-name="use11048" transform="translate(0.426 0.388)">
                    <path id="s-5" data-name="s" d="M.361.12l.122.4L.165.273H.558L.24.521Z" transform="translate(-0.165 -0.12)" fill="#fff"/>
                    <path id="use11040-5" data-name="use11040" d="M.361.12l.122.4L.165.273H.558L.24.521Z" transform="translate(-0.165 0.657)" fill="#fff"/>
                    <path id="use11042-5" data-name="use11042" d="M.361.12l.122.4L.165.273H.558L.24.521Z" transform="translate(-0.165 1.433)" fill="#fff"/>
                    <path id="use11044-5" data-name="use11044" d="M.361.12l.122.4L.165.273H.558L.24.521Z" transform="translate(-0.165 2.21)" fill="#fff"/>
                  </g>
                </g>
                <g id="use11050" transform="translate(0.852)">
                  <g id="s5-3" data-name="s5" transform="translate(0)">
                    <g id="s4-3" data-name="s4">
                      <path id="s-6" data-name="s" d="M.361.12l.122.4L.165.273H.558L.24.521Z" transform="translate(-0.165 -0.12)" fill="#fff"/>
                      <path id="use11040-6" data-name="use11040" d="M.361.12l.122.4L.165.273H.558L.24.521Z" transform="translate(-0.165 0.657)" fill="#fff"/>
                      <path id="use11042-6" data-name="use11042" d="M.361.12l.122.4L.165.273H.558L.24.521Z" transform="translate(-0.165 1.433)" fill="#fff"/>
                      <path id="use11044-6" data-name="use11044" d="M.361.12l.122.4L.165.273H.558L.24.521Z" transform="translate(-0.165 2.21)" fill="#fff"/>
                    </g>
                    <path id="use11046-3" data-name="use11046" d="M.361.12l.122.4L.165.273H.558L.24.521Z" transform="translate(-0.165 2.986)" fill="#fff"/>
                  </g>
                  <g id="use11048-3" data-name="use11048" transform="translate(0.426 0.388)">
                    <path id="s-7" data-name="s" d="M.361.12l.122.4L.165.273H.558L.24.521Z" transform="translate(-0.165 -0.12)" fill="#fff"/>
                    <path id="use11040-7" data-name="use11040" d="M.361.12l.122.4L.165.273H.558L.24.521Z" transform="translate(-0.165 0.657)" fill="#fff"/>
                    <path id="use11042-7" data-name="use11042" d="M.361.12l.122.4L.165.273H.558L.24.521Z" transform="translate(-0.165 1.433)" fill="#fff"/>
                    <path id="use11044-7" data-name="use11044" d="M.361.12l.122.4L.165.273H.558L.24.521Z" transform="translate(-0.165 2.21)" fill="#fff"/>
                  </g>
                </g>
              </g>
              <g id="use10576" transform="translate(3.406)">
                <g id="s5-4" data-name="s5" transform="translate(0)">
                  <g id="s4-4" data-name="s4">
                    <path id="s-8" data-name="s" d="M.361.12l.122.4L.165.273H.558L.24.521Z" transform="translate(-0.165 -0.12)" fill="#fff"/>
                    <path id="use11040-8" data-name="use11040" d="M.361.12l.122.4L.165.273H.558L.24.521Z" transform="translate(-0.165 0.657)" fill="#fff"/>
                    <path id="use11042-8" data-name="use11042" d="M.361.12l.122.4L.165.273H.558L.24.521Z" transform="translate(-0.165 1.433)" fill="#fff"/>
                    <path id="use11044-8" data-name="use11044" d="M.361.12l.122.4L.165.273H.558L.24.521Z" transform="translate(-0.165 2.21)" fill="#fff"/>
                  </g>
                  <path id="use11046-4" data-name="use11046" d="M.361.12l.122.4L.165.273H.558L.24.521Z" transform="translate(-0.165 2.986)" fill="#fff"/>
                </g>
                <g id="use11048-4" data-name="use11048" transform="translate(0.426 0.388)">
                  <path id="s-9" data-name="s" d="M.361.12l.122.4L.165.273H.558L.24.521Z" transform="translate(-0.165 -0.12)" fill="#fff"/>
                  <path id="use11040-9" data-name="use11040" d="M.361.12l.122.4L.165.273H.558L.24.521Z" transform="translate(-0.165 0.657)" fill="#fff"/>
                  <path id="use11042-9" data-name="use11042" d="M.361.12l.122.4L.165.273H.558L.24.521Z" transform="translate(-0.165 1.433)" fill="#fff"/>
                  <path id="use11044-9" data-name="use11044" d="M.361.12l.122.4L.165.273H.558L.24.521Z" transform="translate(-0.165 2.21)" fill="#fff"/>
                </g>
              </g>
              <g id="use10578" transform="translate(4.258)">
                <g id="s4-5" data-name="s4" transform="translate(0)">
                  <path id="s-10" data-name="s" d="M.361.12l.122.4L.165.273H.558L.24.521Z" transform="translate(-0.165 -0.12)" fill="#fff"/>
                  <path id="use11040-10" data-name="use11040" d="M.361.12l.122.4L.165.273H.558L.24.521Z" transform="translate(-0.165 0.657)" fill="#fff"/>
                  <path id="use11042-10" data-name="use11042" d="M.361.12l.122.4L.165.273H.558L.24.521Z" transform="translate(-0.165 1.433)" fill="#fff"/>
                  <path id="use11044-10" data-name="use11044" d="M.361.12l.122.4L.165.273H.558L.24.521Z" transform="translate(-0.165 2.21)" fill="#fff"/>
                </g>
                <path id="use11046-5" data-name="use11046" d="M.361.12l.122.4L.165.273H.558L.24.521Z" transform="translate(-0.165 2.986)" fill="#fff"/>
              </g>
            </g>
          </g>
          <g id="g10606" transform="translate(0 0)">
            <g id="g10588" transform="translate(0.203)">
              <path id="path10584" d="M-34.551,13.92a12.417,12.417,0,0,1,1.308-.629c-5.1-2.685-5.388-4.7-6.436-6.827.807,2.46,1.481,4.915,5.128,7.457Z" transform="translate(39.678 -6.463)" fill="#a80126" fill-rule="evenodd"/>
              <path id="path10586" d="M-37.9,8.928a15.87,15.87,0,0,0,4.876,3.137c1.231-.657,5.3-1.014,5.214-.087a2.168,2.168,0,0,0-1.925-.069,5.712,5.712,0,0,1,1.126-.007.891.891,0,0,1-.263.2,2.99,2.99,0,0,1,.9.321c.168-.016.278-.012.329.04a1.1,1.1,0,0,0-.479.414c1.131.032,2.336.021,2.463,1.214.357-1.057-.281-1.606-1.525-1.847a6.041,6.041,0,0,0-.681-1.021c-3.4-.19-6.8-.421-10.034-2.294Z" transform="translate(40.371 -5.502)" fill="#a80126" fill-rule="evenodd"/>
            </g>
            <path id="path10590" d="M651.1,652.893v-2.059h1.378a.477.477,0,0,1-.217.192H651.4v.542h.77a.343.343,0,0,1-.174.153h-.6v.734A.929.929,0,0,1,651.1,652.893Z" transform="translate(-651.1 -641.244)" fill-rule="evenodd"/>
            <path id="path10592" d="M654.11,651.065v1.506h.391v-1.418a1.054,1.054,0,0,0-1.589,0v1.418h.354v-.832h.279a.319.319,0,0,0,.137-.12h-.41v-.548a.629.629,0,0,1,.838-.006Z" transform="translate(-650.393 -641.26)" fill-rule="evenodd"/>
            <path id="path10594" d="M657.158,652.594H655.57v-1.736h.4v1.593h1.4C657.306,652.5,657.276,652.576,657.158,652.594Z" transform="translate(-649.356 -641.234)" fill-rule="evenodd"/>
            <path id="path10596" d="M658.583,650.834v.341c-.638.865.449,1.9,1.672,1.142l.092-.019c-.758.856-3.537.161-1.765-1.464Z" transform="translate(-648.407 -641.243)" fill-rule="evenodd"/>
            <path id="path10598" d="M657.816,651.1v.628c.61-1.1,1.456-1.646,4.045-.917C659.377,649.834,658.455,650.345,657.816,651.1Z" transform="translate(-648.479 -641.463)" fill-rule="evenodd"/>
            <path id="path10600" d="M610.595,123.9a1,1,0,0,0-1.036,1.011,1.036,1.036,0,0,0,2.072,0A.97.97,0,0,0,610.595,123.9Zm0,.137c.308,0,.617.285.619.874.006,1.178-1.219,1.152-1.227,0C609.977,124.333,610.282,124.038,610.59,124.034Z" transform="translate(-596.434 -114.443)" fill-rule="evenodd"/>
            <path id="path10602" d="M663.509,651.054v1.564H663.2v-1.642l.31-.15,0,.071a1.165,1.165,0,0,1,.9.328v1.408h-.3v-1.383c-.111-.184-.234-.23-.6-.234Z" transform="translate(-646.379 -641.246)" fill-rule="evenodd"/>
            <path id="path10604" d="M607.274,126.147c-3.194.015-2.367,2.576-.6,2.525a1.621,1.621,0,0,0,1.53-.7c-.345,1.727-1.517,1.727-2.928,1.865a.833.833,0,0,0-.335.328c2.4-.048,4.405-.475,4.347-2.334C609.246,126.531,608.375,126.142,607.274,126.147Zm-.048.31a.852.852,0,1,1-1.052.829.962.962,0,0,1,1.052-.829Z" transform="translate(-598.236 -113.566)" fill-rule="evenodd"/>
          </g>
        </g>
        <path id="path10610" d="M649.762,795.651l1.782,3.072v29.612l-.737,4.792v245.222l-1.349,5.126v-46.569l-.695-2.259v-4l.655-2.443v-22.144l-.766-2.86v-5.741l.633-2.954v-153l-.608-3.388v-42.4Z" transform="translate(-620.57 -679.253)" fill="#101010" stroke="#000" stroke-linecap="round" stroke-linejoin="round" stroke-width="0.4" fill-rule="evenodd"/>
        <path id="path10612" d="M630.814,1003.94h25.921" transform="translate(-627.529 -597.998)" fill="none" stroke="#000" stroke-width="0.4"/>
        <path id="path10614" d="M630.814,989.937h25.921" transform="translate(-627.529 -603.46)" fill="none" stroke="#000" stroke-width="0.4"/>
        <g id="g10796" transform="translate(0 330.561)">
          <rect id="rect10770" width="0.662" height="0.63" transform="translate(2.49 75.924)" fill="#101010"/>
          <path id="path10772" d="M595.5,949.713l-.082.006-.084.014-.084.022-.084.03-.084.041-.087.046-.087.057-.087.065-.09.073-.09.084-.092.092-.092.106-.095.117-.1.128-.1.138-.1.152-.1.166-.1.177-.1.19-.106.2-.106.212-.106.22-.106.225-.1.231-.1.236-.1.236-.1.242-.1.239-.092.239-.087.236-.084.234-.079.234-.076.231-.071.231-.062.231-.06.231-.054.234-.049.234-.035.2-.019.049-.041.106-.038.106-.073.209-.068.2-.065.2-.057.2-.057.193-.054.19-.052.19-.049.188-.049.19-.046.193-.043.2-.043.2-.043.206-.019.106-.022.106-.022.111-.019.111-.022.117-.019.117-.022.119-.019.122-.019.128-.022.128-.008.068,0,.016,0,.008v.014l0,.041-.019.625-.084,2.509-.337,10.027-.668,20.053-.671,20.053-.334,10.027-.006.155,0,.079v.014h0l0,.017.006.032.014.065.024.128.03.131.03.131.032.13.038.131.038.131.046.131.046.128.054.128.06.128.062.128.071.128.076.125.084.122.09.122.1.123.052.06.054.06.057.057.057.06.06.057.063.06.065.057.068.057.071.054.071.057.073.054.079.054.079.054.081.054.084.051.09.054.09.051.046.022h.09l.011-.014.014-.014.011-.017.011-.017.011-.02.008-.025h0l0-.014,0-.022.005-.043.019-.177.043-.358.041-.361.041-.364.041-.366.041-.372.041-.372.041-.375.041-.38.041-.38.041-.383.081-.768.081-.777.081-.779.081-.782.168-1.566.081-.779.087-.776.084-.768.043-.383.043-.383.043-.377.046-.377.043-.372.043-.372.046-.367.046-.364.046-.361.046-.358.046-.356.046-.348.049-.348.046-.339.049-.337.049-.334.052-.326.049-.323.049-.315.052-.312.052-.3.052-.3.065-.2.109-.214.152-.225.187-.223.223-.212.252-.19.274-.157.3-.117.312-.062h.326l.334.073.337.155.562,1.469.589,1.621.587,1.621.589,1.621.586,1.621.589,1.621.586,1.621.589,1.621.586,1.624.589,1.621.586,1.621.589,1.621.149.394.027.049.03.046.033.04.035.04.038.035.038.032.038.031.043.026.041.022.043.022.043.019.046.014.046.014.044.014h.421l.073-.035.073-.068.071-.1.068-.131.065-.157.06-.177.057-.2.052-.209.046-.22.041-.225.033-.228-.266-2.533-.624-5.305-.625-5.3-.624-5.305-.624-5.3-.622-5.305-.624-5.3-.625-5.305-.624-5.3-.622-5.305-.625-5.3L598,964.171l-.407-3.592-.006-.347,0-.35,0-.347,0-.348,0-.35,0-.348,0-.35,0-.348,0-.347,0-.35,0-.347-.014-.437-.049-.679-.052-.614-.052-.557-.052-.5-.057-.451-.054-.4-.057-.364-.057-.323-.06-.291-.06-.261-.062-.239-.063-.217-.062-.2-.065-.185-.062-.168-.068-.155-.065-.141-.068-.127-.071-.117-.068-.1-.073-.092-.071-.081-.073-.073-.073-.062-.076-.054-.076-.043-.076-.038-.079-.027-.079-.019-.079-.011Z" transform="translate(-588.951 -949.713)" fill="url(#linear-gradient-5)"/>
          <path id="path10774" d="M591.065,1013.556l.956-8.732.239-2.737.847-6.429.13-.891.456-.739.586-.521.586-.261.608-.065.413.065.369.282,7.081,19.635.413.369.478.086-.022-.325L593.52,984.559l-.521-.586-.565-.369-.586.152-.239.717-2.237,27.672.543.7.543.5Z" transform="translate(-588.787 -936.492)" fill-rule="evenodd" fill="url(#linear-gradient-6)"/>
          <path id="path10776" d="M595.625,955.077l-1.715-1.817" transform="translate(-587.016 -948.329)" fill="none" stroke="#000" stroke-width="0.4"/>
          <path id="path10778" d="M594.858,953.259l-3.378.011" transform="translate(-587.964 -948.33)" fill="none" stroke="#000" stroke-width="0.4"/>
          <path id="path10780" d="M591.391,993.033l.243-33.529" transform="translate(-587.998 -945.893)" fill="none" stroke="#000" stroke-width="0.4"/>
          <path id="path10782" d="M591.565,960.646l3-4.066" transform="translate(-587.931 -947.034)" fill="none" stroke="#000" stroke-width="0.4"/>
          <path id="path10784" d="M591.968,960.548l-1.435-3.717" transform="translate(-588.333 -946.936)" fill="none" stroke="#000" stroke-width="0.4"/>
          <path id="path10786" d="M593.726,957.875l.256-4.615" transform="translate(-587.088 -948.329)" fill="none" stroke="#000" stroke-linecap="round" stroke-width="0.4"/>
          <path id="path10788" d="M590.7,1004.25h.853" transform="translate(-588.268 -928.438)" fill="none" stroke="#000" stroke-width="0.4"/>
          <path id="path10790" d="M590.625,1004.91h.958" transform="translate(-588.297 -928.18)" fill="none" stroke="#000" stroke-width="0.4"/>
          <path id="path10792" d="M589.382,1012.172l.165-2.088.165-2.088.165-2.088.165-2.088.165-2.088.165-2.088.165-2.088.165-2.087.165-2.088.165-2.088.165-2.088.164-2.088.165-2.088.069-.662.046-.166.055-.142.062-.12.069-.1.075-.079.08-.06.084-.043.087-.026.09-.014h.091l.091.014.091.025.089.035.088.045.086.053.083.06.081.065.079.072.077.076.074.081.071.083.069.086.066.088.063.089.061.089.246.612.81,2.181.81,2.182.81,2.181.81,2.182.81,2.182.81,2.181.81,2.182.81,2.182.81,2.181.81,2.182.81,2.181.81,2.182.81,2.181" transform="translate(-588.782 -936.485)" fill="none" stroke="#000" stroke-width="0.4"/>
          <path id="path10794" d="M595.5,949.713l-.082.006-.084.014-.084.022-.084.03-.084.041-.087.046-.087.057-.087.065-.09.073-.09.084-.092.092-.092.106-.095.117-.1.128-.1.138-.1.152-.1.166-.1.177-.1.19-.106.2-.106.212-.106.22-.106.225-.1.231-.1.236-.1.236-.1.242-.1.239-.092.239-.087.236-.084.234-.079.234-.076.231-.071.231-.062.231-.06.231-.054.234-.049.234-.035.2-.019.049-.041.106-.038.106-.073.209-.068.2-.065.2-.057.2-.057.193-.054.19-.052.19-.049.188-.049.19-.046.193-.043.2-.043.2-.043.206-.019.106-.022.106-.022.111-.019.111-.022.117-.019.117-.022.119-.019.122-.019.128-.022.128-.008.068,0,.016,0,.008v.014l0,.041-.019.625-.084,2.509-.337,10.027-.668,20.053-.671,20.053-.334,10.027-.006.155,0,.079v.014h0l0,.017.006.032.014.065.024.128.03.131.03.131.032.13.038.131.038.131.046.131.046.128.054.128.06.128.062.128.071.128.076.125.084.122.09.122.1.123.052.06.054.06.057.057.057.06.06.057.063.06.065.057.068.057.071.054.071.057.073.054.079.054.079.054.081.054.084.051.09.054.09.051.046.022h.09l.011-.014.014-.014.011-.017.011-.017.011-.02.008-.025h0l0-.014,0-.022.005-.043.019-.177.043-.358.041-.361.041-.364.041-.366.041-.372.041-.372.041-.375.041-.38.041-.38.041-.383.081-.768.081-.777.081-.779.081-.782.168-1.566.081-.779.087-.776.084-.768.043-.383.043-.383.043-.377.046-.377.043-.372.043-.372.046-.367.046-.364.046-.361.046-.358.046-.356.046-.348.049-.348.046-.339.049-.337.049-.334.052-.326.049-.323.049-.315.052-.312.052-.3.052-.3.065-.2.109-.214.152-.225.187-.223.223-.212.252-.19.274-.157.3-.117.312-.062h.326l.334.073.337.155.562,1.469.589,1.621.587,1.621.589,1.621.586,1.621.589,1.621.586,1.621.589,1.621.586,1.624.589,1.621.586,1.621.589,1.621.149.394.027.049.03.046.033.04.035.04.038.035.038.032.038.031.043.026.041.022.043.022.043.019.046.014.046.014.044.014h.421l.073-.035.073-.068.071-.1.068-.131.065-.157.06-.177.057-.2.052-.209.046-.22.041-.225.033-.228-.266-2.533-.624-5.305-.625-5.3-.624-5.305-.624-5.3-.622-5.305-.624-5.3-.625-5.305-.624-5.3-.622-5.305-.625-5.3L598,964.171l-.407-3.592-.006-.347,0-.35,0-.347,0-.348,0-.35,0-.348,0-.35,0-.348,0-.347,0-.35,0-.347-.014-.437-.049-.679-.052-.614-.052-.557-.052-.5-.057-.451-.054-.4-.057-.364-.057-.323-.06-.291-.06-.261-.062-.239-.063-.217-.062-.2-.065-.185-.062-.168-.068-.155-.065-.141-.068-.127-.071-.117-.068-.1-.073-.092-.071-.081-.073-.073-.073-.062-.076-.054-.076-.043-.076-.038-.079-.027-.079-.019-.079-.011Z" transform="translate(-588.951 -949.713)" fill="none" stroke="#000" stroke-width="0.4"/>
        </g>
        <g id="g10824" transform="translate(32.491 407.689) rotate(180)">
          <rect id="rect10798" width="0.662" height="0.63" transform="translate(2.49 0.574)" fill="#101010"/>
          <path id="path10800" d="M6.552,77.084l-.081-.006-.084-.014L6.3,77.042l-.084-.03-.084-.041-.087-.046-.087-.057L5.874,76.8l-.09-.073-.09-.084L5.6,76.554l-.092-.106-.1-.117-.1-.128-.1-.138-.1-.152-.1-.166-.1-.176-.1-.19-.106-.2L4.6,74.968l-.106-.22-.106-.225-.1-.231-.1-.236-.1-.236-.1-.242-.1-.239L3.8,73.1l-.087-.236-.084-.234L3.546,72.4l-.076-.231L3.4,71.935,3.337,71.7l-.06-.231-.054-.234-.049-.234-.035-.2-.019-.049-.041-.106-.038-.106-.073-.209-.068-.2-.065-.2-.057-.2-.057-.193-.054-.19-.052-.19-.049-.187-.049-.19-.046-.193-.043-.2-.043-.2-.043-.206-.019-.106L2.3,67.779l-.022-.111-.019-.111-.022-.117-.019-.117L2.2,67.2l-.019-.122-.019-.128-.022-.128-.008-.068,0-.016,0-.008v-.014l0-.041L2.1,66.054l-.084-2.509L1.681,53.519,1.013,33.465.342,13.412.008,3.385,0,3.23l0-.079V3.137H0l0-.017.006-.032.014-.065L.047,2.9l.03-.131.03-.131L.139,2.5l.038-.131.038-.131.046-.131.046-.128.054-.128.06-.128L.484,1.6l.071-.128L.63,1.347l.084-.122L.8,1.1.9.98.954.92,1.008.86,1.065.8l.057-.06.06-.057.062-.06L1.309.57,1.377.513,1.448.458,1.518.4,1.592.347,1.67.293,1.749.239,1.83.185,1.915.133,2,.079l.09-.051L2.14.005h.09l.011.014.014.014L2.266.05l.011.017.011.019L2.3.111h0l0,.014,0,.022L2.311.19,2.33.367l.043.358.041.361.041.364.041.367.041.372.041.372.041.375.041.38L2.7,3.7l.041.383.081.768.081.776.081.779.081.782L3.234,8.75l.081.779.087.776.084.768.043.383.043.383.043.377.046.377.043.372.043.372.046.367.046.364.046.361.046.358.046.356.046.348.049.348.046.339.049.337.049.334.052.326.049.323.049.315.052.312.052.3.052.3.065.2.109.215.152.225.187.223.223.212.253.19.274.157.3.117.312.062h.326l.334-.073.337-.155.562-1.469.589-1.621.586-1.621.589-1.621.586-1.621.589-1.621.586-1.621.589-1.621.586-1.624.589-1.621.586-1.621L14.422.8,14.572.4,14.6.356l.03-.046.033-.04L14.7.229l.038-.035.038-.032L14.81.132l.043-.026.041-.022.043-.022.043-.019.046-.014.046-.014L15.117,0h.421l.073.035L15.684.1l.071.1.068.131.065.157.06.176.057.2.052.209.046.22.041.225.033.228-.266,2.533-.624,5.305-.624,5.3-.624,5.305-.624,5.3L12.79,30.8l-.624,5.3-.624,5.305-.624,5.3-.622,5.305-.624,5.3-.624,5.305-.407,3.592-.006.347,0,.35,0,.347,0,.348,0,.35,0,.348,0,.35,0,.348,0,.347,0,.35,0,.347-.014.437-.049.679-.052.614-.052.557-.052.5-.057.451-.054.4-.057.364-.057.323-.06.29-.06.261-.062.239-.062.217-.062.2-.065.185-.062.168-.068.155-.065.141-.068.128-.071.117-.068.1-.073.092-.071.081-.073.073L7.1,76.89l-.076.054-.076.043-.076.038-.079.027-.079.019-.079.011Z" transform="translate(0 0.044)" fill="url(#linear-gradient-5)"/>
          <path id="path10802" d="M1.694.064,2.65,8.8l.239,2.737.847,6.429.13.891.456.739.586.521.586.261.608.065.413-.065.369-.282L13.966.456l.413-.369L14.857,0l-.022.325L4.149,29.061l-.521.586-.565.369-.586-.152-.239-.717L0,1.476l.543-.7.543-.5Z" transform="translate(0.585)" fill-rule="evenodd" fill="url(#linear-gradient-8)"/>
          <path id="path10804" d="M1.716,0,0,1.817" transform="translate(6.894 70.38)" fill="none" stroke="#000" stroke-width="0.4"/>
          <path id="path10806" d="M3.378.011,0,0" transform="translate(3.516 72.188)" fill="none" stroke="#000" stroke-width="0.4"/>
          <path id="path10808" d="M0,0,.243,33.529" transform="translate(3.393 29.988)" fill="none" stroke="#000" stroke-width="0.4"/>
          <path id="path10810" d="M0,0,3,4.066" transform="translate(3.634 63.516)" fill="none" stroke="#000" stroke-width="0.4"/>
          <path id="path10812" d="M1.435,0,0,3.717" transform="translate(2.199 63.516)" fill="none" stroke="#000" stroke-width="0.4"/>
          <path id="path10814" d="M0,0,.256,4.616" transform="translate(6.638 67.582)" fill="none" stroke="#000" stroke-linecap="round" stroke-width="0.4"/>
          <path id="path10816" d="M0,0H.853" transform="translate(2.432 1.316)" fill="none" stroke="#000" stroke-width="0.4"/>
          <path id="path10818" d="M0,0H.958" transform="translate(2.328 0.398)" fill="none" stroke="#000" stroke-width="0.4"/>
          <path id="path10820" d="M0,1.381.165,3.469.329,5.557.494,7.644.658,9.732.823,11.82l.165,2.088.165,2.088.165,2.088.165,2.088.165,2.088.165,2.088.165,2.088L2.14,28.52l.069.662.046.166.055.142.062.12.069.1.075.079.08.06.084.043.087.026.09.014h.091l.091-.014.091-.025.089-.035.088-.044.086-.053.083-.06.081-.065.079-.072.077-.076.074-.081.071-.083.069-.086.066-.088.063-.089.061-.089.246-.612.81-2.182L5.984,24l.81-2.182.81-2.182.81-2.182.81-2.181.81-2.182.81-2.182.81-2.181.81-2.182.81-2.181.81-2.182L14.9,0" transform="translate(0.6 0.059)" fill="none" stroke="#000" stroke-width="0.4"/>
          <path id="path10822" d="M6.552,77.084l-.081-.006-.084-.014L6.3,77.042l-.084-.03-.084-.041-.087-.046-.087-.057L5.874,76.8l-.09-.073-.09-.084L5.6,76.554l-.092-.106-.1-.117-.1-.128-.1-.138-.1-.152-.1-.166-.1-.176-.1-.19-.106-.2L4.6,74.968l-.106-.22-.106-.225-.1-.231-.1-.236-.1-.236-.1-.242-.1-.239L3.8,73.1l-.087-.236-.084-.234L3.546,72.4l-.076-.231L3.4,71.935,3.337,71.7l-.06-.231-.054-.234-.049-.234-.035-.2-.019-.049-.041-.106-.038-.106-.073-.209-.068-.2-.065-.2-.057-.2-.057-.193-.054-.19-.052-.19-.049-.187-.049-.19-.046-.193-.043-.2-.043-.2-.043-.206-.019-.106L2.3,67.779l-.022-.111-.019-.111-.022-.117-.019-.117L2.2,67.2l-.019-.122-.019-.128-.022-.128-.008-.068,0-.016,0-.008v-.014l0-.041L2.1,66.054l-.084-2.509L1.681,53.519,1.013,33.465.342,13.412.008,3.385,0,3.23l0-.079V3.137H0l0-.017.006-.032.014-.065L.047,2.9l.03-.131.03-.131L.139,2.5l.038-.131.038-.131.046-.131.046-.128.054-.128.06-.128L.484,1.6l.071-.128L.63,1.347l.084-.122L.8,1.1.9.98.954.92,1.008.86,1.065.8l.057-.06.06-.057.062-.06L1.309.57,1.377.513,1.448.458,1.518.4,1.592.347,1.67.293,1.749.239,1.83.185,1.915.133,2,.079l.09-.051L2.14.005h.09l.011.014.014.014L2.266.05l.011.017.011.019L2.3.111h0l0,.014,0,.022L2.311.19,2.33.367l.043.358.041.361.041.364.041.367.041.372.041.372.041.375.041.38L2.7,3.7l.041.383.081.768.081.776.081.779.081.782L3.234,8.75l.081.779.087.776.084.768.043.383.043.383.043.377.046.377.043.372.043.372.046.367.046.364.046.361.046.358.046.356.046.348.049.348.046.339.049.337.049.334.052.326.049.323.049.315.052.312.052.3.052.3.065.2.109.215.152.225.187.223.223.212.253.19.274.157.3.117.312.062h.326l.334-.073.337-.155.562-1.469.589-1.621.586-1.621.589-1.621.586-1.621.589-1.621.586-1.621.589-1.621.586-1.624.589-1.621.586-1.621L14.422.8,14.572.4,14.6.356l.03-.046.033-.04L14.7.229l.038-.035.038-.032L14.81.132l.043-.026.041-.022.043-.022.043-.019.046-.014.046-.014L15.117,0h.421l.073.035L15.684.1l.071.1.068.131.065.157.06.176.057.2.052.209.046.22.041.225.033.228-.266,2.533-.624,5.305-.624,5.3-.624,5.305-.624,5.3L12.79,30.8l-.624,5.3-.624,5.305-.624,5.3-.622,5.305-.624,5.3-.624,5.305-.407,3.592-.006.347,0,.35,0,.347,0,.348,0,.35,0,.348,0,.35,0,.348,0,.347,0,.35,0,.347-.014.437-.049.679-.052.614-.052.557-.052.5-.057.451-.054.4-.057.364-.057.323-.06.29-.06.261-.062.239-.062.217-.062.2-.065.185-.062.168-.068.155-.065.141-.068.128-.071.117-.068.1-.073.092-.071.081-.073.073L7.1,76.89l-.076.054-.076.043-.076.038-.079.027-.079.019-.079.011Z" transform="translate(0 0.044)" fill="none" stroke="#000" stroke-width="0.4"/>
        </g>
        <g id="g5270" transform="translate(2.139 107.929)">
          <g id="g5192" transform="translate(19.054 0)">
            <path id="path5118" d="M695.968,789.992l1.137.532.31,1.246-.8,1.03-1.491.077-.847-.941.213-1.164.605-.7Z" transform="translate(-690.69 -789.389)" fill="#1a1a1a" fill-rule="evenodd"/>
            <path id="path5120" d="M694.513,792.182l-.732-.092-1.8,2.214-.028,1.292-.225,1.076.281,1.169-.253,1.292.169,1.076-.2.953.281.953-.253,1.138.113.769-.084,1.138.9.277-.028-11.01Z" transform="translate(-691.684 -788.571)" fill="#474747" fill-rule="evenodd"/>
            <path id="path5122" d="M692.4,805.867l8.158-.043V794.775l-2.388-3.61-.961,1.348-1.26.081-.514-.492-.767-.372-.4.913-1.87,2.131Z" transform="translate(-691.423 -788.932)" fill="#999" fill-rule="evenodd"/>
            <path id="path5124" d="M692.435,794.806v10.933h8.048L692.436,794.8l1.81-2.261.531-1.387" transform="translate(-691.408 -788.935)" fill="none" stroke="#000" stroke-linecap="round" stroke-linejoin="round" stroke-width="0.383" fill-rule="evenodd"/>
            <path id="path5126" d="M692.44,795.6l6.3,8.373" transform="translate(-691.406 -787.201)" fill="none" stroke="#000" stroke-linecap="round" stroke-linejoin="round" stroke-width="0.383" fill-rule="evenodd"/>
            <path id="path5128" d="M697.078,803.343l-4.643-6.12" transform="translate(-691.408 -786.569)" fill="none" stroke="#000" stroke-linecap="round" stroke-linejoin="round" stroke-width="0.383" fill-rule="evenodd"/>
            <path id="path5130" d="M695.558,802.673l-3.123-3.814" transform="translate(-691.408 -785.93)" fill="none" stroke="#000" stroke-linecap="round" stroke-linejoin="round" stroke-width="0.383" fill-rule="evenodd"/>
            <path id="path5132" d="M693.9,802.165l-1.463-1.845" transform="translate(-691.408 -785.36)" fill="none" stroke="#000" stroke-linecap="round" stroke-linejoin="round" stroke-width="0.383" fill-rule="evenodd"/>
            <path id="path5134" d="M698.669,805.385V794.4l-1.586-2.4" transform="translate(-689.595 -788.604)" fill="none" stroke="#000" stroke-linecap="round" stroke-linejoin="round" stroke-width="0.383" fill-rule="evenodd"/>
            <path id="path5136" d="M692.453,804.723l8-10.961" transform="translate(-691.401 -787.918)" fill="none" stroke="#000" stroke-linecap="round" stroke-linejoin="round" stroke-width="0.383" fill-rule="evenodd"/>
            <path id="path5138" d="M700,795.6l-6.3,8.373" transform="translate(-690.914 -787.201)" fill="none" stroke="#000" stroke-linecap="round" stroke-linejoin="round" stroke-width="0.383" fill-rule="evenodd"/>
            <path id="path5140" d="M694.854,803.343l4.643-6.12" transform="translate(-690.464 -786.569)" fill="none" stroke="#000" stroke-linecap="round" stroke-linejoin="round" stroke-width="0.383" fill-rule="evenodd"/>
            <path id="path5142" d="M695.985,802.667l3.1-3.792" transform="translate(-690.023 -785.924)" fill="none" stroke="#000" stroke-linecap="round" stroke-linejoin="round" stroke-width="0.383" fill-rule="evenodd"/>
            <path id="path5144" d="M695.558,802.673l-3.123-3.814" transform="translate(-691.408 -785.93)" fill="none" stroke="#000" stroke-linecap="round" stroke-linejoin="round" stroke-width="0.383" fill-rule="evenodd"/>
            <path id="path5146" d="M697.159,802.165l1.463-1.845" transform="translate(-689.565 -785.36)" fill="none" stroke="#000" stroke-linecap="round" stroke-linejoin="round" stroke-width="0.383" fill-rule="evenodd"/>
            <path id="path5148" d="M692.453,802.977l7.243-10.091" transform="translate(-691.401 -788.26)" fill="none" stroke="#000" stroke-linecap="round" stroke-linejoin="round" stroke-width="0.383" fill-rule="evenodd"/>
            <path id="path5150" d="M692.424,800.931l5.721-8.153" transform="translate(-691.412 -788.303)" fill="none" stroke="#000" stroke-linecap="round" stroke-linejoin="round" stroke-width="0.383" fill-rule="evenodd"/>
            <path id="path5152" d="M700.223,802.889l-7.133-9.917" transform="translate(-691.153 -788.227)" fill="none" stroke="#000" stroke-linecap="round" stroke-linejoin="round" stroke-width="0.383" fill-rule="evenodd"/>
            <path id="path5154" d="M699.774,800.763l-5.536-7.889" transform="translate(-690.704 -788.265)" fill="none" stroke="#000" stroke-linecap="round" stroke-linejoin="round" stroke-width="0.383" fill-rule="evenodd"/>
            <path id="path5156" d="M692.415,799.2l4.083-5.823,1.729-2.106" transform="translate(-691.416 -788.889)" fill="none" stroke="#000" stroke-linecap="round" stroke-linejoin="round" stroke-width="0.383" fill-rule="evenodd"/>
            <path id="path5158" d="M699.86,799.256l-4.014-5.867-1.74-2.247" transform="translate(-690.756 -788.941)" fill="none" stroke="#000" stroke-linecap="round" stroke-linejoin="round" stroke-width="0.383" fill-rule="evenodd"/>
            <path id="path5160" d="M692.435,796.361l2.5-3.475" transform="translate(-691.408 -788.26)" fill="none" stroke="#000" stroke-linecap="round" stroke-linejoin="round" stroke-width="0.383" fill-rule="evenodd"/>
            <path id="path5162" d="M698.851,796.372l-2.307-3.591" transform="translate(-689.805 -788.301)" fill="none" stroke="#000" stroke-linecap="round" stroke-linejoin="round" stroke-width="0.383" fill-rule="evenodd"/>
            <path id="path5164" d="M697.337,792.375l-.331-.023-.457,1.023.123-1.08-.035-1.036Z" transform="translate(-689.803 -788.895)" fill="#474747" stroke="#000" stroke-linecap="round" stroke-linejoin="round" stroke-width="0.383" fill-rule="evenodd"/>
            <path id="path5166" d="M693.733,792.534l.267.031.436.992-.148-1.223-.014-1.169Z" transform="translate(-690.901 -788.931)" fill="#474747" stroke="#000" stroke-linecap="round" stroke-linejoin="round" stroke-width="0.383" fill-rule="evenodd"/>
            <path id="path5168" d="M695.463,791.234v.99l-.174.016-.338.326.587.783.726-.707-.313-.375-.174-.027-.005-1.011Z" transform="translate(-690.427 -788.907)" fill="#474747" stroke="#000" stroke-linecap="round" stroke-linejoin="round" stroke-width="0.383" fill-rule="evenodd"/>
            <path id="path5170" d="M695.219,792.229l-1.035.109" transform="translate(-690.725 -788.516)" fill="none" stroke="#000" stroke-linecap="round" stroke-linejoin="round" stroke-width="0.383" fill-rule="evenodd"/>
            <path id="path5172" d="M695.909,792.229l.975.1" transform="translate(-690.053 -788.516)" fill="none" stroke="#000" stroke-linecap="round" stroke-linejoin="round" stroke-width="0.383" fill-rule="evenodd"/>
            <path id="path5174" d="M694.58,792.139l-.788-.062a2.1,2.1,0,0,1-.323.615,2.792,2.792,0,0,1-.718.384,1.341,1.341,0,0,1-.127.6,3.024,3.024,0,0,1-.732.569,4.912,4.912,0,0,1,.155,1.138,5.274,5.274,0,0,1-.352,1.138,4.319,4.319,0,0,1,.338,1.184,3.764,3.764,0,0,1-.323,1.107,6.392,6.392,0,0,1,.267,1.261,4.7,4.7,0,0,1-.225,1.092,4.064,4.064,0,0,1,.281,1.123,3.331,3.331,0,0,1-.338,1,3.67,3.67,0,0,1,.267.984,2.741,2.741,0,0,1-.267.846l1,.292" transform="translate(-691.696 -788.576)" fill="none" stroke="#000" stroke-linecap="round" stroke-linejoin="round" stroke-width="0.383" fill-rule="evenodd"/>
            <path id="path5176" d="M691.848,793.638l.746.169" transform="translate(-691.637 -787.967)" fill="none" stroke="#000" stroke-linecap="round" stroke-linejoin="round" stroke-width="0.383" fill-rule="evenodd"/>
            <path id="path5178" d="M693.111,793.011l-.1,2.153" transform="translate(-691.183 -788.211)" fill="none" stroke="#000" stroke-linecap="round" stroke-linejoin="round" stroke-width="0.383" fill-rule="evenodd"/>
            <path id="path5180" d="M694.256,792.948l-.1,2.022" transform="translate(-690.736 -788.236)" fill="none" stroke="#000" stroke-linecap="round" stroke-linejoin="round" stroke-width="0.383" fill-rule="evenodd"/>
            <path id="path5182" d="M696.538,792.855l-.02,2.153" transform="translate(-689.815 -788.272)" fill="none" stroke="#000" stroke-linecap="round" stroke-linejoin="round" stroke-width="0.383" fill-rule="evenodd"/>
            <path id="path5184" d="M697.663,792.933v2.175" transform="translate(-689.368 -788.242)" fill="none" stroke="#000" stroke-linecap="round" stroke-linejoin="round" stroke-width="0.383" fill-rule="evenodd"/>
            <path id="path5186" d="M693.84,791.857l.673-.022.109-.782.456-.651.825-.239.586-.087-.673-.5H694.8l-.7.565-.261.934Z" transform="translate(-690.86 -789.551)" fill="#4d4d4d" fill-rule="evenodd"/>
            <path id="path5188" d="M696.8,790.247a5.747,5.747,0,0,0-.9-.584,2.075,2.075,0,0,0-.844-.092,1.369,1.369,0,0,0-.7.277,1.442,1.442,0,0,0-.366.615,3.274,3.274,0,0,0-.141.8c-.027.255-.028.769-.028.769l.647.584" transform="translate(-690.871 -789.558)" fill="none" stroke="#000" stroke-linecap="round" stroke-linejoin="round" stroke-width="0.383" fill-rule="evenodd"/>
            <path id="path5190" d="M694.318,791.58a2.648,2.648,0,0,1,.113-.707,1.574,1.574,0,0,1,.591-.738,1.626,1.626,0,0,1,.76-.123,1.974,1.974,0,0,1,.76.062,1.306,1.306,0,0,1,.591.431,1.341,1.341,0,0,1,.169.492c.061.252.113.769.113.769" transform="translate(-690.673 -789.385)" fill="none" stroke="#000" stroke-linecap="round" stroke-linejoin="round" stroke-width="0.383" fill-rule="evenodd"/>
          </g>
          <g id="g5268" transform="translate(9.131 16.935) rotate(180)">
            <path id="path5194" d="M1.694,2.884l1.137-.532.309-1.246-.8-1.03L.847,0,0,.941.213,2.1l.605.7Z" transform="translate(3.584 13.448)" fill="#1a1a1a" fill-rule="evenodd"/>
            <path id="path5196" d="M2.786,13.256l-.732.092-1.8-2.214L.225,9.842,0,8.765.281,7.6.028,6.3.2,5.228,0,4.275l.281-.953L.028,2.184l.113-.769L.056.277.957,0,.928,11.01Z" transform="translate(0.043 0.069)" fill="#474747" fill-rule="evenodd"/>
            <path id="path5198" d="M0,0,8.158.043V11.092L5.77,14.7,4.81,13.354l-1.26-.081-.514.492-.767.371-.4-.913L0,11.091Z" transform="translate(0.973)" fill="#999" fill-rule="evenodd"/>
            <path id="path5200" d="M0,10.933V0H8.048L0,10.934,1.811,13.2l.531,1.387" transform="translate(1.027 0.13)" fill="none" stroke="#000" stroke-linecap="round" stroke-linejoin="round" stroke-width="0.383" fill-rule="evenodd"/>
            <path id="path5202" d="M0,8.373,6.3,0" transform="translate(1.034 0.161)" fill="none" stroke="#000" stroke-linecap="round" stroke-linejoin="round" stroke-width="0.383" fill-rule="evenodd"/>
            <path id="path5204" d="M4.643,0,0,6.12" transform="translate(1.027 0.161)" fill="none" stroke="#000" stroke-linecap="round" stroke-linejoin="round" stroke-width="0.383" fill-rule="evenodd"/>
            <path id="path5206" d="M3.123,0,0,3.814" transform="translate(1.027 0.192)" fill="none" stroke="#000" stroke-linecap="round" stroke-linejoin="round" stroke-width="0.383" fill-rule="evenodd"/>
            <path id="path5208" d="M1.463,0,0,1.845" transform="translate(1.028 0.131)" fill="none" stroke="#000" stroke-linecap="round" stroke-linejoin="round" stroke-width="0.383" fill-rule="evenodd"/>
            <path id="path5210" d="M1.586,0V10.98L0,13.379" transform="translate(7.488 0.154)" fill="none" stroke="#000" stroke-linecap="round" stroke-linejoin="round" stroke-width="0.383" fill-rule="evenodd"/>
            <path id="path5212" d="M0,0,8,10.961" transform="translate(1.052 0.131)" fill="none" stroke="#000" stroke-linecap="round" stroke-linejoin="round" stroke-width="0.383" fill-rule="evenodd"/>
            <path id="path5214" d="M6.3,8.373,0,0" transform="translate(2.785 0.161)" fill="none" stroke="#000" stroke-linecap="round" stroke-linejoin="round" stroke-width="0.383" fill-rule="evenodd"/>
            <path id="path5216" d="M0,0,4.643,6.12" transform="translate(4.39 0.161)" fill="none" stroke="#000" stroke-linecap="round" stroke-linejoin="round" stroke-width="0.383" fill-rule="evenodd"/>
            <path id="path5218" d="M0,0,3.1,3.792" transform="translate(5.962 0.192)" fill="none" stroke="#000" stroke-linecap="round" stroke-linejoin="round" stroke-width="0.383" fill-rule="evenodd"/>
            <path id="path5220" d="M3.123,0,0,3.814" transform="translate(1.027 0.192)" fill="none" stroke="#000" stroke-linecap="round" stroke-linejoin="round" stroke-width="0.383" fill-rule="evenodd"/>
            <path id="path5222" d="M0,0,1.463,1.845" transform="translate(7.594 0.131)" fill="none" stroke="#000" stroke-linecap="round" stroke-linejoin="round" stroke-width="0.383" fill-rule="evenodd"/>
            <path id="path5224" d="M0,0,7.243,10.091" transform="translate(1.052 2.219)" fill="none" stroke="#000" stroke-linecap="round" stroke-linejoin="round" stroke-width="0.383" fill-rule="evenodd"/>
            <path id="path5226" d="M0,0,5.721,8.153" transform="translate(1.012 4.306)" fill="none" stroke="#000" stroke-linecap="round" stroke-linejoin="round" stroke-width="0.383" fill-rule="evenodd"/>
            <path id="path5228" d="M7.133,0,0,9.917" transform="translate(1.937 2.273)" fill="none" stroke="#000" stroke-linecap="round" stroke-linejoin="round" stroke-width="0.383" fill-rule="evenodd"/>
            <path id="path5230" d="M5.536,0,0,7.889" transform="translate(3.535 4.437)" fill="none" stroke="#000" stroke-linecap="round" stroke-linejoin="round" stroke-width="0.383" fill-rule="evenodd"/>
            <path id="path5232" d="M0,0,4.083,5.823l1.73,2.106" transform="translate(0.999 6.62)" fill="none" stroke="#000" stroke-linecap="round" stroke-linejoin="round" stroke-width="0.383" fill-rule="evenodd"/>
            <path id="path5234" d="M5.754,0,1.74,5.867,0,8.114" transform="translate(3.35 6.62)" fill="none" stroke="#000" stroke-linecap="round" stroke-linejoin="round" stroke-width="0.383" fill-rule="evenodd"/>
            <path id="path5236" d="M0,0,2.5,3.475" transform="translate(1.027 8.834)" fill="none" stroke="#000" stroke-linecap="round" stroke-linejoin="round" stroke-width="0.383" fill-rule="evenodd"/>
            <path id="path5238" d="M2.307,0,0,3.591" transform="translate(6.739 8.865)" fill="none" stroke="#000" stroke-linecap="round" stroke-linejoin="round" stroke-width="0.383" fill-rule="evenodd"/>
            <path id="path5240" d="M.788,1l-.331.023L0,0,.123,1.08.088,2.116Z" transform="translate(6.746 12.455)" fill="#474747" stroke="#000" stroke-linecap="round" stroke-linejoin="round" stroke-width="0.383" fill-rule="evenodd"/>
            <path id="path5242" d="M0,1.023.267.992.7,0,.556,1.223.542,2.391Z" transform="translate(2.831 12.31)" fill="#474747" stroke="#000" stroke-linecap="round" stroke-linejoin="round" stroke-width="0.383" fill-rule="evenodd"/>
            <path id="path5244" d="M.512,2.115v-.99L.338,1.109,0,.783.587,0l.726.707L1,1.082l-.174.027L.82,2.12Z" transform="translate(4.524 12.494)" fill="#474747" stroke="#000" stroke-linecap="round" stroke-linejoin="round" stroke-width="0.383" fill-rule="evenodd"/>
            <path id="path5246" d="M1.035.109,0,0" transform="translate(3.459 13.114)" fill="none" stroke="#000" stroke-linecap="round" stroke-linejoin="round" stroke-width="0.383" fill-rule="evenodd"/>
            <path id="path5248" d="M0,.1.975,0" transform="translate(5.856 13.125)" fill="none" stroke="#000" stroke-linecap="round" stroke-linejoin="round" stroke-width="0.383" fill-rule="evenodd"/>
            <path id="path5250" d="M2.884,13.271l-.788.062a2.1,2.1,0,0,0-.324-.615,2.791,2.791,0,0,0-.718-.384,1.34,1.34,0,0,0-.127-.6A3.027,3.027,0,0,0,.2,11.164a4.913,4.913,0,0,0,.155-1.138A5.275,5.275,0,0,0,0,8.888,4.322,4.322,0,0,0,.338,7.7,3.765,3.765,0,0,0,.014,6.6,6.394,6.394,0,0,0,.281,5.336,4.7,4.7,0,0,0,.056,4.244,4.069,4.069,0,0,0,.338,3.122a3.33,3.33,0,0,0-.338-1,3.668,3.668,0,0,0,.267-.984A2.742,2.742,0,0,0,0,.292L1,0" transform="translate(0 0.1)" fill="none" stroke="#000" stroke-linecap="round" stroke-linejoin="round" stroke-width="0.383" fill-rule="evenodd"/>
            <path id="path5252" d="M0,.169.746,0" transform="translate(0.211 11.095)" fill="none" stroke="#000" stroke-linecap="round" stroke-linejoin="round" stroke-width="0.383" fill-rule="evenodd"/>
            <path id="path5254" d="M.1,2.153,0,0" transform="translate(1.829 9.983)" fill="none" stroke="#000" stroke-linecap="round" stroke-linejoin="round" stroke-width="0.383" fill-rule="evenodd"/>
            <path id="path5256" d="M.1,2.022,0,0" transform="translate(3.42 10.201)" fill="none" stroke="#000" stroke-linecap="round" stroke-linejoin="round" stroke-width="0.383" fill-rule="evenodd"/>
            <path id="path5258" d="M.02,2.153,0,0" transform="translate(6.703 10.2)" fill="none" stroke="#000" stroke-linecap="round" stroke-linejoin="round" stroke-width="0.383" fill-rule="evenodd"/>
            <path id="path5260" d="M0,2.175V0" transform="translate(8.295 10.069)" fill="none" stroke="#000" stroke-linecap="round" stroke-linejoin="round" stroke-width="0.383" fill-rule="evenodd"/>
            <path id="path5262" d="M0,0,.673.022.782.8l.456.652.825.239.586.087-.673.5H.956l-.7-.565L0,.782Z" transform="translate(2.98 14.629)" fill="#4d4d4d" fill-rule="evenodd"/>
            <path id="path5264" d="M2.985,2.369a5.744,5.744,0,0,1-.9.584,2.074,2.074,0,0,1-.844.092,1.369,1.369,0,0,1-.7-.277,1.442,1.442,0,0,1-.366-.615,3.28,3.28,0,0,1-.141-.8C0,1.1,0,.584,0,.584L.647,0" transform="translate(2.94 13.878)" fill="none" stroke="#000" stroke-linecap="round" stroke-linejoin="round" stroke-width="0.383" fill-rule="evenodd"/>
            <path id="path5266" d="M0,.185A2.646,2.646,0,0,0,.113.892,1.574,1.574,0,0,0,.7,1.63a1.627,1.627,0,0,0,.76.123,1.975,1.975,0,0,0,.76-.062,1.307,1.307,0,0,0,.591-.431A1.338,1.338,0,0,0,2.983.769C3.044.517,3.1,0,3.1,0" transform="translate(3.645 14.555)" fill="none" stroke="#000" stroke-linecap="round" stroke-linejoin="round" stroke-width="0.383" fill-rule="evenodd"/>
          </g>
        </g>
      </g>
    </g>
    <g id="g5202" transform="translate(0)">
      <g id="g6994" transform="translate(4.316 6.428)">
        <path id="path6916" d="M618.445,677.58c.676,1.421.5,1.382,1.259,3.244s2.734,6.026,3.389,7.891a26.942,26.942,0,0,1,1.452,10.7h-27.67a26.947,26.947,0,0,1,1.452-10.7c.656-1.866,2.628-6.029,3.389-7.891s.583-1.823,1.259-3.244l.155.033a41.3,41.3,0,0,1,7.58-1.352,41.3,41.3,0,0,1,7.58,1.352Z" transform="translate(-596.829 -676.261)" stroke="#000" stroke-linecap="round" stroke-linejoin="round" stroke-width="0.401" fill-rule="evenodd" fill="url(#linear-gradient-9)"/>
        <g id="g6973" transform="translate(8.108 23.153) rotate(180)">
          <path id="path6969" d="M0,22.25A189.47,189.47,0,0,0,2.516,0L3.733,9.34l.593.739L6.8,9.895a2.567,2.567,0,0,1-.188.8c-.655,1.866-2.628,6.03-3.389,7.891s-.583,1.823-1.259,3.244L1.807,21.8Z" fill-rule="evenodd" fill="url(#linear-gradient-10)"/>
          <path id="path6971" d="M3.613.183,6.085,0A2.567,2.567,0,0,1,5.9.8C5.242,2.671,3.269,6.834,2.508,8.7s-.583,1.823-1.259,3.244l-.155-.033L0,12.185c1.28-3.97,2.61-7.921,3.613-12Z" transform="translate(0.713 9.894)" fill-rule="evenodd" fill="url(#linear-gradient-11)"/>
        </g>
        <g id="g6967" transform="translate(19.654 0.903)">
          <path id="path6847" d="M610.967,676.911a189.454,189.454,0,0,1,2.516,22.25l1.216-9.34.593-.739,2.471.184a2.569,2.569,0,0,0-.188-.8c-.655-1.866-2.628-6.029-3.389-7.891s-.583-1.823-1.259-3.244l-.155.032Z" transform="translate(-610.967 -676.911)" fill-rule="evenodd" fill="url(#linear-gradient-12)"/>
          <path id="path6838" d="M615.093,689.035l2.471.183a2.562,2.562,0,0,0-.188-.8c-.655-1.866-2.628-6.029-3.389-7.891s-.583-1.823-1.259-3.244l-.155.033-1.094-.278c1.28,3.97,2.61,7.92,3.613,12Z" transform="translate(-610.767 -676.863)" fill-rule="evenodd" fill="url(#linear-gradient-11)"/>
        </g>
      </g>
      <path id="path6621" d="M630.85,694.51a2.166,2.166,0,0,1-.461-.522,3.744,3.744,0,0,1-.123-1.2h27.417a3.744,3.744,0,0,1-.123,1.2,2.167,2.167,0,0,1-.461.522Z" transform="translate(-625.778 -663.385)" stroke="#000" stroke-linecap="round" stroke-linejoin="round" stroke-width="0.401" fill-rule="evenodd" fill="url(#linear-gradient-14)"/>
      <g id="g6583" transform="translate(0 33.799)">
        <path id="path6577" d="M598.759,718.674s-3.953-.767-4.326-.828-.562-.22-.608-.565c0-1.431-.087-8.558-.087-8.558l5.387-12.772.163,22.681Z" transform="translate(-593.738 -695.951)" stroke="#000" stroke-linecap="round" stroke-linejoin="round" stroke-width="0.401" fill-rule="evenodd" fill="url(#linear-gradient-15)"/>
        <path id="path6565" d="M616.454,718.674s3.953-.767,4.326-.828.562-.22.608-.565c0-1.431.087-8.558.087-8.558l-5.387-12.772-.163,22.681Z" transform="translate(-585.083 -695.951)" stroke="#000" stroke-linecap="round" stroke-linejoin="round" stroke-width="0.401" fill-rule="evenodd" fill="url(#linear-gradient-16)"/>
      </g>
      <rect id="rect5744" width="25.95" height="25.58" fill="url(#linear-gradient-17)" stroke="#000" stroke-width="0.401" transform="translate(5.222 30.973)"/>
      <path id="path6786" d="M634.563,679.384a27.885,27.885,0,0,1,2.953-5.18,8.544,8.544,0,0,1,2.856-2.227,5.64,5.64,0,0,1,3.85,0,8.545,8.545,0,0,1,2.857,2.227,27.892,27.892,0,0,1,2.953,5.18l-.155.033a41.3,41.3,0,0,0-7.58-1.352,41.3,41.3,0,0,0-7.58,1.352Z" transform="translate(-624.101 -671.637)" fill-rule="evenodd" fill="url(#linear-gradient-18)"/>
      <g id="g6816" transform="translate(11.522 13.279)">
        <ellipse id="path6764" cx="0.999" cy="1.89" rx="0.999" ry="1.89" fill="url(#radial-gradient)" transform="translate(0.429 0.007) rotate(6.521)" stroke-linecap="round" stroke-linejoin="round" stroke-width="0.401" stroke="#000"/>
        <ellipse id="ellipse6776" cx="0.999" cy="1.89" rx="0.999" ry="1.89" fill="url(#radial-gradient-2)" transform="translate(13.349 3.755) rotate(173.479)" stroke-linecap="round" stroke-linejoin="round" stroke-width="0.401" stroke="#000"/>
      </g>
      <g id="g6698" transform="translate(4.481 19.46)">
        <g id="g6663" transform="translate(0 0)">
          <path id="path6651" d="M602.345,695.524s-.957-8.87-1.13-9.188a1.382,1.382,0,0,0-.608-.673,16.063,16.063,0,0,0-2.389.13,28.64,28.64,0,0,0-1.216,9.8Z" transform="translate(-596.982 -685.636)" fill="#787878" fill-rule="evenodd"/>
          <path id="path6629" d="M601.683,695.11s-.43-4.276-.825-6.386c-.111-.594-.435-1.759-.435-1.759a.684.684,0,0,0-.391-.434l-1.694.065a.872.872,0,0,0-.478.369,26.661,26.661,0,0,0-.825,8.232Z" transform="translate(-596.971 -685.287)" fill-rule="evenodd" fill="url(#linear-gradient-19)"/>
          <path id="path6633" d="M600.786,688.111a1.606,1.606,0,0,0-.369-.391.662.662,0,0,0-.5-.027c-1.485.911-2.069,3.3-2.889,5.023l.043,2,4.627-.043Z" transform="translate(-596.964 -684.849)" fill-rule="evenodd" fill="url(#linear-gradient-20)"/>
          <path id="path6631" d="M600.8,688.111a1.606,1.606,0,0,0-.369-.391.662.662,0,0,0-.5-.027c-1.485.911-2.124,3.485-2.943,5.207" transform="translate(-596.979 -684.849)" fill="rgba(68,255,255,0)" stroke="#000" stroke-linecap="round" stroke-linejoin="round" stroke-width="0.401" fill-rule="evenodd"/>
          <path id="path6625" d="M602.345,695.524s-.957-8.87-1.13-9.188a1.382,1.382,0,0,0-.608-.673,16.063,16.063,0,0,0-2.389.13,28.64,28.64,0,0,0-1.216,9.8Z" transform="translate(-596.982 -685.636)" fill="rgba(68,255,255,0)" stroke="#000" stroke-linecap="round" stroke-linejoin="round" stroke-width="0.401" fill-rule="evenodd"/>
          <path id="path6627" d="M601.47,695.11s-.43-4.276-.825-6.386c-.111-.594-.434-1.759-.434-1.759a.684.684,0,0,0-.391-.434l-1.694.065a1.24,1.24,0,0,0-.57.446" transform="translate(-596.758 -685.287)" fill="rgba(68,255,255,0)" stroke="#000" stroke-linecap="round" stroke-linejoin="round" stroke-width="0.401" fill-rule="evenodd"/>
        </g>
        <g id="g6677" transform="translate(27.431 9.953) rotate(180)">
          <path id="path6665" d="M5.363.065s-.957,8.87-1.129,9.188a1.382,1.382,0,0,1-.608.673A16.048,16.048,0,0,1,1.237,9.8,28.645,28.645,0,0,1,.02,0Z" transform="translate(0)" fill="#787878" fill-rule="evenodd"/>
          <path id="path6667" d="M4.674.087s-.43,4.276-.825,6.386c-.111.594-.434,1.759-.434,1.759a.684.684,0,0,1-.391.434L1.329,8.6a.871.871,0,0,1-.478-.369A26.666,26.666,0,0,1,.026,0Z" transform="translate(0.038 0.044)" fill-rule="evenodd" fill="url(#linear-gradient-21)"/>
          <path id="path6669" d="M3.758,6.6a1.606,1.606,0,0,1-.369.391.662.662,0,0,1-.5.027C1.4,6.111.82,3.721,0,2L.043,0,4.67.043Z" transform="translate(0.064 0.087)" fill-rule="evenodd" fill="url(#linear-gradient-22)"/>
          <path id="path6671" d="M3.812,4.789a1.606,1.606,0,0,1-.369.391.662.662,0,0,1-.5.027C1.458,4.3.82,1.723,0,0" transform="translate(0.01 1.901)" fill="rgba(68,255,255,0)" stroke="#000" stroke-linecap="round" stroke-linejoin="round" stroke-width="0.401" fill-rule="evenodd"/>
          <path id="path6673" d="M5.363.065s-.957,8.87-1.129,9.188a1.382,1.382,0,0,1-.608.673A16.048,16.048,0,0,1,1.237,9.8,28.645,28.645,0,0,1,.02,0Z" transform="translate(0)" fill="rgba(68,255,255,0)" stroke="#000" stroke-linecap="round" stroke-linejoin="round" stroke-width="0.401" fill-rule="evenodd"/>
          <path id="path6675" d="M3.915,0s-.43,4.276-.825,6.386c-.111.594-.434,1.759-.434,1.759a.684.684,0,0,1-.391.434L.57,8.514A1.24,1.24,0,0,1,0,8.068" transform="translate(0.796 0.13)" fill="rgba(68,255,255,0)" stroke="#000" stroke-linecap="round" stroke-linejoin="round" stroke-width="0.401" fill-rule="evenodd"/>
        </g>
      </g>
      <path id="path6731" d="M634.674,677.612a41.3,41.3,0,0,1,7.58-1.352,41.3,41.3,0,0,1,7.58,1.352" transform="translate(-624.057 -669.833)" fill="none" stroke="#000" stroke-linecap="round" stroke-linejoin="round" stroke-width="0.401" fill-rule="evenodd"/>
      <g id="g6762" transform="translate(12.318 8.497)">
        <path id="path14421" d="M437.818,471.733h-1.2l-.045.033v1.07h.333v-.4l.032-.028h.883c.223,0,.327-.06.327-.214v-.246c0-.154-.1-.214-.327-.214m0,.4c0,.072-.048.088-.153.088h-.727l-.036-.034v-.229l.032-.029h.73c.1,0,.153.015.153.088Z" transform="translate(-434.503 -471.086)" fill="#005288"/>
        <path id="polyline14423" d="M3.2.672l.287.42-.016.041H2.842l-.162.2h.943l.065.04.146.2h.381L3.381.456" transform="translate(1.046 0.178)" fill="#005288"/>
        <path id="polyline14425" d="M5.878,1.248v-.3l.034-.03H6.55V.732H5.54v.733H7.03V1.277H5.914" transform="translate(2.161 0.286)" fill="#005288"/>
        <rect id="rect14427" width="1.506" height="0.208" transform="translate(7.702 0.648)" fill="#005288"/>
        <path id="path14429" d="M439.52,471.93h1.214c-.019-.154-.114-.2-.357-.2h-.869c-.274,0-.362.054-.362.261v.582c0,.208.087.261.362.261h.869c.246,0,.341-.046.347-.206h-1.2l-.036-.034v-.644" transform="translate(-433.498 -471.086)" fill="#005288"/>
        <path id="path14431" d="M436.341,472.163h-.883l-.026-.029v-.189l.026-.02h1.19l.016-.04c-.041-.1-.146-.153-.34-.153H435.5c-.274,0-.361.053-.361.261v.122c0,.208.088.261.361.261h.881l.028.024v.2l-.023.031h-1.271s-.03.015-.029.022c.023.145.121.186.358.186h.9c.274,0,.364-.053.364-.261v-.152c0-.207-.09-.261-.364-.261" transform="translate(-435.083 -471.086)" fill="#005288"/>
        <path id="path14433" d="M442.535,471.73h-.5l-.027.051.55.4c.1-.06.218-.122.341-.182" transform="translate(-432.38 -471.087)" fill="#005288"/>
        <path id="path14435" d="M442.708,472.336l.484.353h.5l.021-.047-.722-.529q-.144.106-.284.223" transform="translate(-432.109 -470.937)" fill="#005288"/>
        <path id="path14437" d="M442.472,473.018h-.448l-.038-.059a6.842,6.842,0,0,1,4.632-1.691,6.8,6.8,0,0,0-4.146,1.75" transform="translate(-432.39 -471.267)" fill="#a7a9ac"/>
      </g>
      <path id="path6953" d="M643.743,687.228a.8.8,0,0,0,.565-.63l-.434-5.995a.753.753,0,0,0-.7-.651h-4.27a.752.752,0,0,0-.695.651l-.434,5.995a.794.794,0,0,0,.565.63h5.4Z" transform="translate(-622.846 -668.394)" fill="none" stroke="#000" stroke-linecap="round" stroke-linejoin="round" stroke-width="0.401" fill-rule="evenodd"/>
      <path id="rect6956" d="M640.987,682.119l-.119.117v1.015l.119.119h1.292l.119-.119v-1.015l-.119-.117Zm.119.236h1.056v.777h-1.056Z" transform="translate(-621.641 -667.548)" fill-rule="evenodd"/>
      <g id="g14461" transform="translate(14.035 24.128)">
        <g id="g14445" transform="translate(0.325 0)">
          <path id="path14441" d="M186.2,291.842c.917-.107,2.066-.149,2.107.682a2.056,2.056,0,0,1,2.5-.026,1.058,1.058,0,0,1,.455.017,1.178,1.178,0,0,1-.245-.542c-.538-.073-1.007-.217-1.5-.332a11.377,11.377,0,0,1-1.521-.21c-.569-.352-.963-.861-1.521-1.241a7.753,7.753,0,0,1-1.276-.734c.781.69,2.389,1.848,1.005,2.387Z" transform="translate(-185.19 -289.32)" fill="#00006d" fill-rule="evenodd"/>
          <path id="path14443" d="M185.474,289.358a28.3,28.3,0,0,0,3.025,1.282,1.085,1.085,0,0,0,.692.3,2.106,2.106,0,0,0,1.534.725c.206.086.272.046.347.15a1.893,1.893,0,0,1,.209.708.537.537,0,0,1-.219-.318c-.049-.438-.154-.4-.246-.409-.145-.016-.274,0,.1.131l-1.206-.245-1.268-.446-.2.14.446.14-.621-.087a16.3,16.3,0,0,1-1.5-1.128,5.2,5.2,0,0,0,1.25.35Z" transform="translate(-185.079 -289.358)" fill="#00006d" fill-rule="evenodd"/>
        </g>
        <g id="g14459" transform="translate(0 3.534)">
          <path id="path14447" d="M212.211,361.446l.211-.007-.011-.555a.55.55,0,0,0-.717,0l0,.555h.216l-.011-.332.117,0c.029-.014.053-.064.065-.083l-.187,0,0-.155a.33.33,0,0,1,.309,0s.006.427.007.577Z" transform="translate(-208.787 -360.735)" fill-rule="evenodd"/>
          <path id="path14449" d="M214.055,360.744c-.2,0-.448.129-.447.367,0,.477.886.5.887,0A.4.4,0,0,0,214.055,360.744Zm0,.061c.121,0,.239.093.24.307,0,.41-.486.418-.489,0A.269.269,0,0,1,214.057,360.8Z" transform="translate(-208.039 -360.737)" fill-rule="evenodd"/>
          <path id="path14451" d="M214.94,361.463l-.207,0v-.633c.054-.022.183-.069.206-.074v.019a.727.727,0,0,1,.518.1l0,.583h-.207l0-.56c-.066-.061-.1-.07-.316-.056,0,0,0,.425,0,.62Z" transform="translate(-207.6 -360.734)" fill-rule="evenodd"/>
          <path id="path14453" d="M209.6,360.739v.729l.3,0c.67,0,.641-.721,0-.729Zm.195.064.146,0c.341.022.275.592,0,.6H209.8Z" transform="translate(-209.602 -360.739)" fill-rule="evenodd"/>
          <path id="path14455" d="M210.881,361.479l-.206,0,0-.724s.268-.015.481-.005a.58.58,0,0,1,.193.044c0,.121,0,.255,0,.255-.008.049-.169.031-.177.051.008.027.186,0,.186.06v.323a.527.527,0,0,1-.2-.035c0-.094,0-.3,0-.3l-.107-.005a.208.208,0,0,1-.079-.08l.185,0,0-.246a.714.714,0,0,0-.287,0Z" transform="translate(-209.183 -360.737)" fill-rule="evenodd"/>
          <path id="path14457" d="M212.987,361.068l.361,0,0,.355a1.906,1.906,0,0,1-.679,0v-.656a1.821,1.821,0,0,1,.683,0l0,.142h-.185v-.1a.475.475,0,0,0-.3-.007l-.007.587a.575.575,0,0,0,.311,0v-.283h-.148a.067.067,0,0,1-.036-.043Z" transform="translate(-208.404 -360.739)" fill-rule="evenodd"/>
        </g>
      </g>
      <g id="g7747" transform="translate(27.38 15.394)">
        <ellipse id="circle7392" cx="0.982" cy="1.054" rx="0.982" ry="1.054" transform="translate(0 0.608) rotate(-18.044)" fill="#0b3d91"/>
        <path id="path7474" d="M648.043,684.034c-.095.042-.188.078-.269.1a2.684,2.684,0,0,0-.846.407l.028.014a1.087,1.087,0,0,1,.36-.172c.112-.037.482-.116.648-.162a1.932,1.932,0,0,0,.188-.064q-.039-.047-.08-.1Zm.192.234a.658.658,0,0,1-.05.044c-.072.055-.411.379-.488.453a4.6,4.6,0,0,0-.323.451l.007.037a3.375,3.375,0,0,1,.326-.413c.1-.108.3-.3.375-.367s.129-.115.184-.166l-.005-.007Zm.268-.488a2.4,2.4,0,0,1-.443.247l.019.022q.046.053.088.106a1.232,1.232,0,0,0,.381-.232,2.953,2.953,0,0,1-.3.335l.03.041a3.01,3.01,0,0,0,.306-.316,1.037,1.037,0,0,0,.255-.629A.987.987,0,0,1,648.5,683.779Z" transform="translate(-646.657 -682.461)" fill="#fc3d21"/>
        <path id="path7476" d="M647.756,684.514l-.1-.113c-.04-.046-.079-.093-.115-.139l-.022.005c.044.058.091.116.141.174.037.042.069.076.086.1l.02.026.018-.017Zm.195.179c-.022-.021-.072-.057-.128-.11l-.022.021a.661.661,0,0,0,.127.13C647.979,684.764,647.979,684.72,647.95,684.693Zm.034-.687c-.344-.395-.7-.626-.792-.513-.074.088.042.373.259.681l.019-.007c-.216-.3-.326-.572-.256-.655.088-.1.429.127.763.51.069.079.132.159.189.235.215.294.326.552.258.648-.021.029-.108.034-.244-.041,0,0,0,.009.006.011.115.059.218.086.255.043C648.529,684.813,648.329,684.4,647.985,684.005Z" transform="translate(-646.563 -682.418)" fill="#fff"/>
        <path id="path7478" d="M647.012,683.819l.156.014.2.282-.057-.211a.149.149,0,0,0-.049-.062l.108.009a.063.063,0,0,0-.012.057l.083.311a.167.167,0,0,0,.048.058l-.151-.013-.206-.284.057.214a.151.151,0,0,0,.051.062l-.115-.01a.052.052,0,0,0,.018-.053c0-.021-.079-.295-.082-.307A.155.155,0,0,0,647.012,683.819Z" transform="translate(-646.625 -682.279)" fill="#fff"/>
        <path id="path7480" d="M648.189,684.338l.208.018a.1.1,0,0,1-.043-.045l-.22-.394-.079-.007-.055.056v0c0,.025.015.292.014.306s-.021.037-.029.047l.112.01a.1.1,0,0,1-.031-.049c0-.017-.005-.05-.005-.05l.116.01a.439.439,0,0,1,.024.047A.052.052,0,0,1,648.189,684.338Zm-.132-.16,0-.152.093.16Zm-.087-.26.013-.014-.03,0Z" transform="translate(-646.258 -682.247)" fill="#fff"/>
        <path id="path7482" d="M647.495,684.232c0-.017-.005-.05-.005-.05l.116.01a.414.414,0,0,1,.024.048.051.051,0,0,1-.012.048l.183.016.009-.008a.142.142,0,0,1-.027-.034l-.22-.394-.181-.016a.14.14,0,0,1,.047.067c0,.025.015.292.014.305s-.021.037-.029.047l.112.01A.1.1,0,0,1,647.495,684.232Zm-.012-.255.093.16-.091-.008Z" transform="translate(-646.481 -682.266)" fill="#fff"/>
        <path id="path7484" d="M647.968,684.107l-.085.077a.089.089,0,0,1,.042.042c.011.031-.036.041-.083.031a.125.125,0,0,1-.029-.01l-.023.02-.028.025.012.044c0-.021.018-.038.033-.038a.261.261,0,0,0,.13.03.1.1,0,0,0,.1-.12A.219.219,0,0,0,647.968,684.107Zm-.233.083.012.045.019-.018A.334.334,0,0,1,647.735,684.19Zm.193-.114-.031-.019c-.051-.029-.1-.038-.118-.073s0-.046.048-.04a.255.255,0,0,1,.116.056l-.029-.11s-.012.024-.027.019a.593.593,0,0,0-.129-.026c-.06,0-.1.047-.079.118a.216.216,0,0,0,.138.151l.014.006c.028-.025.05-.044.063-.054Z" transform="translate(-646.366 -682.254)" fill="#fff"/>
      </g>
      <path id="path6726" d="M630.187,701.218a26.951,26.951,0,0,1,1.452-10.7c.655-1.866,2.628-6.029,3.389-7.891s.583-1.823,1.259-3.244a27.884,27.884,0,0,1,2.953-5.18,8.54,8.54,0,0,1,2.856-2.227,5.638,5.638,0,0,1,3.851,0A8.54,8.54,0,0,1,648.8,674.2a27.882,27.882,0,0,1,2.953,5.18c.676,1.421.5,1.382,1.259,3.244s2.734,6.026,3.389,7.891a26.947,26.947,0,0,1,1.452,10.7Z" transform="translate(-625.826 -671.637)" fill="none" stroke="#000" stroke-linecap="round" stroke-linejoin="round" stroke-width="0.401" fill-rule="evenodd"/>
      <path id="path6587" d="M641.368,696.479,637.252,713l.061,7.618.4.246,3.563-2.672Z" transform="translate(-623.052 -661.946)" fill-rule="evenodd" fill="url(#linear-gradient-23)"/>
      <rect id="rect6609" width="25.95" height="25.58" stroke-width="0.401" fill="none" stroke="#000" transform="translate(5.222 30.973)"/>
      <path id="path6585" d="M640.257,696.347l.123,22.124" transform="translate(-621.879 -661.998)" fill="rgba(255,255,255,0)" stroke="#000" stroke-linecap="round" stroke-linejoin="round" stroke-width="0.401" fill-rule="evenodd"/>
      <g id="g8196" transform="translate(21.817 24.427)">
        <path id="path6611" d="M642.776,696.7a6.9,6.9,0,0,0,.092,1.259c.038.181.023.432.184.522a6.625,6.625,0,0,0,2.058.061c.181-.02.317-.2.43-.338a1.55,1.55,0,0,0,.246-.522,2.849,2.849,0,0,0,.092-.614c.027-.368-.018-.738,0-1.106.031-.627.175-1.246.184-1.874a10.6,10.6,0,0,0-.092-1.321,8.454,8.454,0,0,0-.338-2.242,2.47,2.47,0,0,0-.8-1.136,1.213,1.213,0,0,0-.707-.184,1.181,1.181,0,0,0-.707.215.971.971,0,0,0-.276.492,3.135,3.135,0,0,0-.061.922c.007.729.154,1.452.184,2.181.014.327.019.656,0,.983a4.68,4.68,0,0,1-.092.8,4.819,4.819,0,0,1-.323.768S642.767,696.326,642.776,696.7Z" transform="translate(-642.714 -689.209)" stroke="#000" stroke-linecap="round" stroke-linejoin="round" stroke-width="0.401" fill-rule="evenodd" fill="url(#linear-gradient-24)"/>
        <path id="path8182" d="M642.731,694.665l.89.8,1.325.087,1.021-.3.152-2.085-2.8-.152Z" transform="translate(-642.731 -687.725)" fill-rule="evenodd" fill="url(#linear-gradient-25)"/>
        <path id="path6613" d="M642.856,694.342a5.012,5.012,0,0,0,.684.663,10.312,10.312,0,0,0,1.694.037.86.86,0,0,0,.576-.3" transform="translate(-642.682 -687.207)" fill="none" stroke="#000" stroke-linecap="round" stroke-linejoin="round" stroke-width="0.401" fill-rule="evenodd"/>
        <path id="path8180" d="M642.776,696.7a6.9,6.9,0,0,0,.092,1.259c.038.181.023.432.184.522a6.625,6.625,0,0,0,2.058.061c.181-.02.317-.2.43-.338a1.55,1.55,0,0,0,.246-.522,2.849,2.849,0,0,0,.092-.614c.027-.368-.018-.738,0-1.106.031-.627.175-1.246.184-1.874a10.6,10.6,0,0,0-.092-1.321,8.454,8.454,0,0,0-.338-2.242,2.47,2.47,0,0,0-.8-1.136,1.213,1.213,0,0,0-.707-.184,1.181,1.181,0,0,0-.707.215.971.971,0,0,0-.276.492,3.135,3.135,0,0,0-.061.922c.007.729.154,1.452.184,2.181.014.327.019.656,0,.983a4.68,4.68,0,0,1-.092.8,4.819,4.819,0,0,1-.323.768S642.767,696.326,642.776,696.7Z" transform="translate(-642.714 -689.209)" fill="none" stroke="#000" stroke-linecap="round" stroke-linejoin="round" stroke-width="0.401" fill-rule="evenodd"/>
      </g>
    </g>
  </g>
</svg>
